<svg xmlns="http://www.w3.org/2000/svg" viewBox="0 0 837.44 837.45"><defs><style>.cls-1{fill:#8bd4e4;}.cls-2{fill:#6dc0d5;}.cls-3{fill:#466583;}.cls-4{fill:#1e4569;}</style></defs><title>aries</title><g id="Layer_2" data-name="Layer 2"><g id="Layer_1-2" data-name="Layer 1"><path class="cls-1" d="M493.14,53c-150.92-15.77-290,93.73-196.31,263.92,35.51,64.52,103.11,116.42,182.63,120.9,84.7,4.76,133.09-42.45,143.61-105.58a97.89,97.89,0,0,1-8,9.71c-25.33,26.95-62.64,35-98.09,28.55-129.3-23.36-120.72-179.18-27.63-186,16.14-1.18,32.86,3.37,47.89,15.18,33.53,26.35,22.41,81-14.07,80.15,11.46-23.33-4.44-57.18-31-55.24C445.55,228,442.38,316.26,524.06,331c21.94,4,45.87.3,61.76-16.61,17.4-18.51,25.59-53,13.51-109.26-5.7-24,27.79-34.32,37.75-13.22,70.67,139.26,5.38,295.25-159.82,286-71.82-4-134.87-39.94-179.39-90.32C278.53,445,261,526.37,270.25,586.84c26.71,17,51.62,32,82,41.12,63.53-64.72,117.64-40.36,164.28,21.76-2.14-14.69-5.94-33.52-9.63-51.83-35.46-175.8,197.57-122.31,236.79,15a376.68,376.68,0,0,0,53.52-194.12C797.19,250.12,667.71,71.21,493.14,53Z"/><path class="cls-2" d="M526.44,503.93c54.53-47.75,188.37,7.89,217.23,108.91a376.6,376.6,0,0,0,53.5-190.65C699.87,401.72,595.27,430.88,526.44,503.93Z"/><path class="cls-2" d="M488,362.22c-78.9-31.81-85.33-123-40.63-161C493,162.37,618,138.18,677.3,142.7,627,94,563.77,60.35,493.14,53,246.89,27.26,281.77,278.62,488,362.22Z"/><path class="cls-3" d="M418.72,0C187.48,0,0,187.48,0,418.72S187.48,837.45,418.72,837.45,837.44,650,837.44,418.72C837.44,187.2,649.8,0,418.72,0Zm0,797.19c-209,0-378.46-169.45-378.46-378.47,0-168.32,111.22-316.31,272.16-363.32C226.55,114.28,191.36,225,269,348.81,242.65,420.76,226.24,486,228.61,565c.77,25.82,6.71,47,13.35,51.42,10.62,7,47.9,30.37,77.1,43.29,27.36,12.11,42.46,15.83,62-3.67,49.53-49.52,81.37-13,111.86,29.41,39.79,55.28,66.12,22.17,63.57-29.06-1-20.34-5.71-43.63-10.29-66.32C528.37,485.35,691,532.32,712.49,657.34A377.7,377.7,0,0,1,418.72,797.19ZM743.67,612.84c-39.22-137.26-272.25-190.75-236.79-15,3.69,18.31,7.49,37.14,9.63,51.83C469.87,587.6,415.76,563.24,352.23,628c-30.36-9.09-55.27-24.16-82-41.12C261,526.37,278.53,445,297.87,387.57c44.52,50.38,107.57,86.28,179.39,90.32,165.2,9.29,230.49-146.7,159.82-286-10-21.1-43.45-10.82-37.75,13.22,12.08,56.23,3.89,90.75-13.51,109.26C569.93,331.32,546,335,524.06,331c-81.68-14.76-78.51-103-31.88-106.45,26.55-1.94,42.45,31.91,31,55.24,36.48.83,47.6-53.8,14.07-80.15-15-11.81-31.75-16.36-47.89-15.18-93.09,6.82-101.67,162.64,27.63,186,35.45,6.41,72.76-1.6,98.09-28.55a97.89,97.89,0,0,0,8-9.71c-10.52,63.13-58.91,110.34-143.61,105.58-79.52-4.48-147.12-56.38-182.63-120.9C203.14,146.71,342.22,37.21,493.14,53,667.71,71.21,797.19,250.12,797.19,418.72A376.68,376.68,0,0,1,743.67,612.84Z"/><path class="cls-3" d="M304.17,420.19l-8.82,47.92c-3.19,17.3,10.81,32.95,31.91,6.44C308.33,482.55,303.05,427,304.17,420.19Z"/><path class="cls-4" d="M380.11,1.76c-46.38,13.17-89.67,37.89-121.88,74.11a376.14,376.14,0,0,1,54.2-20.48C382.89,7.09,489-2.55,568.21,27.48A419.82,419.82,0,0,0,380.11,1.76Z"/></g></g></svg>