<svg xmlns="http://www.w3.org/2000/svg" viewBox="0 0 837.45 902.37"><defs><style>.cls-1{fill:#466583;}.cls-2{fill:#edc286;}.cls-3{fill:#daaa66;}.cls-4{fill:#8bd4e4;}.cls-5{fill:#6dc0d5;}</style></defs><title>libra</title><g id="Layer_2" data-name="Layer 2"><g id="Layer_1-2" data-name="Layer 1"><path class="cls-1" d="M438.85,65.41V20.13a20.13,20.13,0,1,0-40.26,0V65.41C175.59,76,0,260.25,0,483.65,0,714.9,187.47,902.37,418.72,902.37S837.45,714.9,837.45,483.65C837.45,260.25,661.86,76,438.85,65.41ZM99.4,686.89A376.74,376.74,0,0,1,40.26,483.65c0-201.18,157.57-367.41,358.33-377.93v36.05A335.36,335.36,0,0,0,83.4,476.49a134.69,134.69,0,0,0,268.87,11.78c15.5-90.62-29.23-195.91-91.78-260.87a293.19,293.19,0,0,1,138.1-45.29V686.89Zm24.94-230.53A294.41,294.41,0,0,1,227.81,251.5c51.78,51.86,88.61,130.8,87.1,204.86Zm186,40.26a94.46,94.46,0,0,1-184.56,0Zm108.35,365.5A377.65,377.65,0,0,1,129,727.15H708.46A377.65,377.65,0,0,1,418.72,862.12ZM738,686.89H438.85V182.11A293.23,293.23,0,0,1,577,227.4c-62.55,65-107.28,170.25-91.78,260.87A134.69,134.69,0,0,0,754,476.49,335.34,335.34,0,0,0,438.85,141.77V105.72c200.77,10.52,358.34,176.75,358.34,377.93A376.66,376.66,0,0,1,738,686.89ZM522.53,456.36c-1.51-74.06,35.32-153,87.1-204.86A294.41,294.41,0,0,1,713.1,456.36Zm189.11,40.26a94.46,94.46,0,0,1-184.57,0Z"/><path class="cls-2" d="M218.09,570.92a94.46,94.46,0,0,0,92.28-74.3H125.81A94.46,94.46,0,0,0,218.09,570.92Z"/><path class="cls-3" d="M268.14,556.56a94.21,94.21,0,0,0,42.23-59.94H179.65C201.66,518.21,231.58,538.36,268.14,556.56Z"/><path class="cls-4" d="M418.72,862.12a377.65,377.65,0,0,0,289.74-135H129A377.65,377.65,0,0,0,418.72,862.12Z"/><path class="cls-5" d="M225.06,808.89a378.63,378.63,0,0,0,483.4-81.74H611.71C458.14,737.2,322.79,766.85,225.06,808.89Z"/><path class="cls-2" d="M619.36,570.92a94.46,94.46,0,0,0,92.28-74.3H527.07A94.47,94.47,0,0,0,619.36,570.92Z"/><path class="cls-3" d="M669.41,556.56a94.28,94.28,0,0,0,42.23-59.94H580.91C602.92,518.21,632.84,538.36,669.41,556.56Z"/></g></g></svg>