<svg xmlns="http://www.w3.org/2000/svg" viewBox="0 0 837.44 853.45"><defs><style>.cls-1{fill:#efbf7e;}.cls-2{fill:#daaa66;}.cls-3{fill:#8bd4e4;}.cls-4{fill:#6dc0d5;}.cls-5{fill:#466583;}.cls-6{fill:#1e4569;}</style></defs><title>scorpio</title><g id="Layer_2" data-name="Layer 2"><g id="Layer_1-2" data-name="Layer 1"><path class="cls-1" d="M375.09,47.4c-28.1,12-48.38,37.37-62.41,63.63-18.53,34.69-20.47,82.61,18.7,103.53,39.77,21.25,92.3,5.23,131.45-10.39,40-16,76.81-30.63,112.86-8.76-14.21-40.2-35.64-75-60.84-101.62C480.07,57.12,426.12,25.64,375.09,47.4Z"/><path class="cls-2" d="M300.41,150.18c-8.44,20.26.65,56.48,26.25,70.15,39.77,21.24,96,8.89,135.12-6.72,39.85-15.9,77.5-39.92,113.37-18.52-53.73-34.2-119.8-54.39-191.26-54.39A369.36,369.36,0,0,0,300.41,150.18Z"/><path class="cls-3" d="M416.43,591.93c-11.85,41.47-52.64,79.71-88.49,102.76,76.46,72.37,229.62,62.16,303.75-7.73,3.91-34.64-12.3-99.25-37.26-124C547.53,516.38,471.19,606.81,416.43,591.93Z"/><path class="cls-4" d="M416.43,591.93c26.36,70.78,136.78,116.88,215.26,95,8-55.18-16-102.87-37.26-124C547.53,516.38,471.19,606.81,416.43,591.93Z"/><path class="cls-5" d="M487.36,21.62c-39-21.71-84-29.95-128-11.18a136.41,136.41,0,0,0-25.21,14.12C140,64.37,0,236,0,434.73,0,666,187.48,853.45,418.72,853.45S837.44,666,837.44,434.73C837.44,229.87,689,54.88,487.36,21.62ZM312.68,111c14-26.26,34.31-51.65,62.41-63.63,51-21.76,105,9.72,139.76,46.39,25.2,26.58,46.63,61.42,60.84,101.62-36.05-21.87-72.82-7.21-112.86,8.76-39.15,15.62-91.68,31.64-131.45,10.39C292.21,193.64,294.15,145.72,312.68,111Zm-48,12.45c-14.72,53.25,3.74,108.15,56.53,130.63-23,39.65-30.42,121.57-69.09,142.79-28.65,15.74-68-12.88-88.33-31.19-18.49-16.61-26-28.55-40-47C140.93,236.25,200.54,173.8,264.71,123.48Zm112.75,458.7c-13.15,42.41-57,68.47-92.27,90.51-101.83-35.12-162.33-189-161.77-290.09,35.09,36,93,76.16,144.29,51.47C289.55,486,395.85,522.8,377.46,582.18Zm39,9.75c54.76,14.88,131.1-75.55,178-29,25,24.79,41.17,89.4,37.26,124-74.13,69.89-227.29,80.1-303.75,7.73C363.79,671.64,404.58,633.4,416.43,591.93Zm2.29,221.27c-209,0-378.46-169.44-378.46-378.47A378,378,0,0,1,198.52,126.89c-55.7,51.18-100,111.5-114.76,187.34-1.59,6.51.51,14,3.15,20-20,131.69,53.92,335.85,190,378a27.5,27.5,0,0,0,12.52.47c83.15,91.88,243.78,90.53,342.25,25.31q7.27-.32,14.86-1A376.8,376.8,0,0,1,418.72,813.2ZM701.94,685.79c-10.38,2.89-20.64,5.28-30.59,7.15,6.27-42.15-12.77-113.37-38.87-147.35,58.12-21.86,107.69-66.71,164.23-91.83A377,377,0,0,1,701.94,685.79ZM591.68,514.4c-73.08-26-140.35,55.88-174.39,33.39-15.64-57.42-118-108.67-113.71-144.82,21.78-30.41,44.14-135.55,66.2-138.57,39.68,1.61,71.54-8.48,107.83-23,41.5-16.56,78-31.12,114.5,33.84,16.15,28.83,42.41,13.61,40.55-6.07C625.76,196,597.33,130.7,558.73,83,694.22,137,787.29,264.6,796.44,410.74,738.76,430.81,637.46,514.34,591.68,514.4Z"/><path class="cls-6" d="M155.74,149.65c-26.49,29-48.58,60.44-64.4,95.08A379.91,379.91,0,0,1,198.53,126.88C234,94.29,276,63.62,322.84,33.39q5.57-4.77,11.33-8.83-19.74,4-38.78,9.91C245.37,67.86,196.05,105.5,155.74,149.65Z"/><path class="cls-6" d="M524.91,29.6q-18.31-4.79-37.26-7.94c19.86,11.07,38.9,26.12,56.29,44.46q7.6,8,14.8,16.9,13.46,5.37,26.39,11.7a312.19,312.19,0,0,0-30.92-38.34A272,272,0,0,0,524.91,29.6Z"/><path class="cls-3" d="M264.71,123.48C200.54,173.8,140.93,236.25,123.8,318.75c14,18.41,21.53,30.35,40,47,20.37,18.31,59.68,46.93,88.33,31.19,38.67-21.22,46.09-103.14,69.09-142.79C268.45,231.63,250,176.73,264.71,123.48Z"/><path class="cls-4" d="M123.8,318.75c14,18.41,21.53,30.35,40,47,20.37,18.31,59.68,46.93,88.33,31.19,38.67-21.22,46.09-103.13,69.09-142.78C274.27,248.71,135.74,261.21,123.8,318.75Z"/><path class="cls-3" d="M267.71,434.07c-51.31,24.69-109.2-15.46-144.29-51.47-.56,101.14,59.94,255,161.77,290.09,35.31-22,79.12-48.1,92.27-90.51C395.85,522.8,289.55,486,267.71,434.07Z"/><path class="cls-4" d="M267.72,434.08C234.31,491,209,646.41,285.19,672.69c35.31-22,79.12-48.1,92.27-90.51C395.85,522.8,289.56,486,267.72,434.08Z"/><path class="cls-3" d="M671.35,692.94c9.95-1.87,20.21-4.26,30.59-7.15a377,377,0,0,0,94.77-232c-56.54,25.12-106.11,70-164.23,91.83C658.58,579.57,677.62,650.79,671.35,692.94Z"/><path class="cls-4" d="M756.16,606.29a376.45,376.45,0,0,0,40.55-152.53c-56.54,25.12-106.11,70-164.23,91.83C654.85,574.72,718.78,637,756.16,606.29Z"/></g></g></svg>