<svg xmlns="http://www.w3.org/2000/svg" viewBox="0 0 837.45 878.41"><defs><style>.cls-1{fill:#8bd4e4;}.cls-2{fill:#6dc0d5;}.cls-3{fill:#466583;}.cls-4{fill:#1e4569;}</style></defs><title>taurus</title><g id="Layer_2" data-name="Layer 2"><g id="Layer_1-2" data-name="Layer 1"><path class="cls-1" d="M311,75.61c-91.93,65.64-122.58,196,9.14,240.25,22.79,7.66,18.62,6,39-5.95C299.05,244.82,270.83,160.57,311,75.61Z"/><path class="cls-2" d="M310.88,75.81c-29.41,49.34-46,105.11-46,164.16a313.49,313.49,0,0,0,3.77,48.38c13.22,11,30.22,20.37,51.46,27.51,22.79,7.66,18.62,6,39-5.95C299.09,244.87,270.88,160.7,310.88,75.81Z"/><path class="cls-1" d="M353.83,359.51c-11.69,8.19-33.9-1.38-46.46-5.6-46.36-15.59-93.31-42.56-124.69-84.08-22.92-30.31-37.47-67.91-37.51-113.78-56,100.52-17.69,185.29,81,240.78,44.23,24.89,89.1,36.7,111.23,34.49a20.07,20.07,0,1,1,3.94,39.94c-9.49.95-21.81.12-35.91-2.44-9.87,23.12-18.58,31.71-14.53,56.29l7.89,48a20,20,0,0,1,.38,14.93L272,681.72l90.24,19.71C430.06,638,492,548.56,584.16,522.13c-29.31,27-55.58,56.65-65.43,65.43,79.56,35,122.93,57.89,177.78,129.17A378.54,378.54,0,0,0,727.65,241C582.41,173.75,508.83,268.63,353.83,359.51Z"/><path class="cls-2" d="M696.51,716.73A377.12,377.12,0,0,0,797.17,463.18c-126.67.55-240.38,47.42-318.77,121.61C574.12,599.33,669.7,690.1,696.51,716.73Z"/><path class="cls-3" d="M380.76,42.67q3.87-4.48,8.05-9c24.5-25.78,1.23-45.65-41.5-25.38-43.47,20.62-75.93,44-99.44,69a417.78,417.78,0,0,0-56.68,30.84c2-8.67,4.38-17.2,7.18-25.64,8.32-20.6-18.58-37.64-33.58-21-42.8,47.66-71.13,98-81.3,147.26A416.85,416.85,0,0,0,0,459.69C0,690.93,187.48,878.41,418.72,878.41S837.45,690.93,837.45,459.69C837.45,213,625.65,20.64,380.76,42.67ZM350.23,87.41a378.54,378.54,0,0,1,332.5,101.1c-132-33.92-183.73,39.4-288,100.55C333.14,226.59,315.36,156.15,350.23,87.41ZM311,75.61c-40.14,85-11.92,169.21,48.17,234.3-20.41,12-16.24,13.61-39,5.95C188.39,271.58,219,141.25,311,75.61ZM204.8,147.44a176.68,176.68,0,0,0-9,64.42,150.82,150.82,0,0,1-10.17-50.34Q195,154.19,204.8,147.44ZM418.72,838.15c-209,0-378.46-169.44-378.46-378.46A376.73,376.73,0,0,1,83,284.8C94.59,340,133.74,391,206.47,431.9a351.83,351.83,0,0,0,59.66,26.58c-12.7,29.76-22,36.38-16.65,68.06l9.5,55.92L226.7,694.07c-5.73,19.79,12.43,25.19,26.76,26.43l114.15,21.79a20.1,20.1,0,0,0,16.85-6.78l110-114.74C571.88,655.18,613.81,674,667.57,744.85A377,377,0,0,1,418.72,838.15ZM797.19,459.69a377.14,377.14,0,0,1-100.68,257c-54.85-71.28-98.22-94.17-177.78-129.17,9.85-8.78,36.12-38.43,65.43-65.43C492,548.56,430.06,638,362.27,701.43L272,681.72,299.12,588a20,20,0,0,0-.38-14.93l-7.89-48c-4.05-24.58,4.66-33.17,14.53-56.29,14.1,2.56,26.42,3.39,35.91,2.44a20.07,20.07,0,1,0-3.94-39.94c-22.13,2.21-67-9.6-111.23-34.49-98.64-55.49-137-140.26-81-240.78.09,101,71.13,167.24,162.2,197.86,12.56,4.22,34.77,13.79,46.46,5.6,155-90.88,228.58-185.76,373.82-118.51A376.8,376.8,0,0,1,797.19,459.69Z"/><path class="cls-3" d="M307.89,514.41c-10,14.49-3.62,34.49,26.47,19-20.54-.46-2.62-53.27,1.2-59.05Z"/><path class="cls-4" d="M61.76,240.73a192,192,0,0,0,9.53,68.63Q76.72,296.83,83,284.8c-5.19-24.7-4.85-50.22.48-76Q71.91,224.21,61.76,240.73Z"/><path class="cls-4" d="M350.21,87.42q11-2,22.22-3.39C383,66.52,394,56.34,405.91,41.16q-12.68.39-25.16,1.51A223.7,223.7,0,0,0,350.21,87.42Z"/><path class="cls-4" d="M185.6,161.52q9.36-7.34,19.2-14.08c9-26.51,23.93-49.8,43.07-70.13a418.77,418.77,0,0,0-56.68,30.82A205.46,205.46,0,0,0,185.6,161.52Z"/></g></g></svg>