<svg xmlns="http://www.w3.org/2000/svg" viewBox="0 0 837.38 839.05"><defs><style>.cls-1{fill:#8bd4e4;}.cls-2{fill:#6dc0d5;}.cls-3{fill:#efbf7e;}.cls-4{fill:#daaa66;}.cls-5{fill:#466583;}.cls-6{fill:#1e4569;}</style></defs><title>virgo</title><g id="Layer_2" data-name="Layer 2"><g id="Layer_1-2" data-name="Layer 1"><path class="cls-1" d="M70,566.22c79.24,20.92-6.18-204-12-262.45C30.77,389.2,35,483.64,70,566.22Z"/><path class="cls-1" d="M315.91,54.38a377.71,377.71,0,0,0-146.83,79.83C187.07,130.52,359.25,90,315.91,54.38Z"/><path class="cls-1" d="M359.67,44.83C401.55,125,207,168.31,164.94,175.84c-36.84,6.6-54.78,23.75-62.66,45.35-34.85,95.52,127,394.82-24,388.74,14.06,38.23,56.94,85.39,102.42,75.55,9-2,16.52-6.72,21-14.36,5-8.51,7.1-20.49,4.9-36.16-18.56-90.8-54.15-134.83-62.29-241C123.84,127.12,511.44,207.4,455.63,84.26c127.56,150.05-286.57,71.17-269.79,309.49,9.53,135.2,80.77,197.06,65.73,330.33-2.71,24.07-10.15,52-29.75,68,28.61,9.32,63.29,10.27,89-7.36,48.65-33.36,27.88-104.59,6.53-147.4C202,405.92,246.3,323.6,329.94,281.9,409.25,242.37,540,254.8,548.63,152,557.47,47.39,449.91,30.7,359.67,44.83Z"/><path class="cls-2" d="M144.31,394a246.39,246.39,0,0,1-.35-33.58,298.82,298.82,0,0,0-37.7-31.15c24.55,123.49,83.4,285.2-28,280.71,14.06,38.23,56.94,85.39,102.42,75.55,9-2,16.52-6.72,21-14.36,5-8.51,7.1-20.49,4.9-36.16C188,544.16,152.45,500.13,144.31,394Z"/><path class="cls-2" d="M187.14,408.28c13.33,125.28,78.92,187.4,64.43,315.8-2.71,24.07-10.15,52-29.75,68,28.61,9.32,63.29,10.27,89-7.36,82.26-56.4-.06-156.52-23.52-212.77C256.43,507.87,222,452.12,187.14,408.28Z"/><path class="cls-3" d="M574.6,426.77c-17.75-13.69-61.76-23.13-52.62-62.37,3.29-14.11,27.13-15.09,33.51-21.1-9.49,3.92-28.92-2.12-33.5-10.78-9.38-17.74-8.34-44.27-2.93-71.11-54,26-117.93,29.95-171.2,56.5-63.82,31.82-95,99.86,5.51,301.52,26.6,53.35,41.7,124.52,6.36,173.19a378.94,378.94,0,0,0,44.38,4.3c-23.24-32.1-19.82-81.83-.88-118,27-51.46,73.23-51.21,120.55-56.57,33.56-3.8,44.16-10.37,27.23-48.16-5.73-12.8-2-23.68,7.39-33.16,10.09-10.2,6.51-18.4-3.79-28.95,7.39-.2,22.18-12.06,11.56-19.67-21.13-15.18-14-42.76,7.6-52.7C582.34,435.77,580.22,431.12,574.6,426.77Z"/><path class="cls-4" d="M359.73,792.62a378.94,378.94,0,0,0,44.38,4.3c-23.24-32.1-19.82-81.83-.88-118s47.39-46.78,79-51.76c-41.58,6.08-79,23.06-108.21,47.5C384.47,715.94,383.78,759.49,359.73,792.62Z"/><path class="cls-5" d="M483.84,345.39c6.9,19.35-48.82,21.48-55.58,20l47.34,11.52C492.69,381.05,509.11,368,483.84,345.39Z"/><path class="cls-5" d="M418.66,0A417.43,417.43,0,0,0,122.58,122.64C3.66,241.56-32.5,421.37,30.72,576.57a20.31,20.31,0,0,0-.28,7.45c8,53.86,45.1,113.13,96.11,134.7A421.18,421.18,0,0,0,180.34,763c-6.76-1.56-15-5.33-25-11.77-20.06-14.29-43.45,14-25.39,31,48.76,45.8,126.34,75.27,190.15,43.52a419.43,419.43,0,0,0,98.55,11.67c231.24,0,418.72-187.48,418.72-418.73S649.9,0,418.66,0ZM315.91,54.38C359.25,90,187.07,130.52,169.08,134.21A377.71,377.71,0,0,1,315.91,54.38ZM70,566.22c-35-82.58-39.24-177-12-262.45C63.83,362.19,149.25,587.14,70,566.22ZM209.3,734.05q-7.65-5.09-15-10.53A75.54,75.54,0,0,0,212,716,147.17,147.17,0,0,1,209.3,734.05Zm101.53,50.71c-25.72,17.63-60.4,16.68-89,7.36,19.6-16,27-44,29.75-68,15-133.27-56.2-195.13-65.73-330.33C169.06,155.43,583.19,234.31,455.63,84.26,511.44,207.4,123.84,127.12,144.31,394,152.45,500.13,188,544.16,206.6,635c2.2,15.67.14,27.65-4.9,36.16-4.52,7.64-12,12.41-21,14.36-45.48,9.84-88.36-37.32-102.42-75.55,151,6.08-10.81-293.22,24-388.74,7.88-21.6,25.82-38.75,62.66-45.35,42-7.53,236.61-50.85,194.73-131,90.24-14.13,197.8,2.56,189,107.19C540,254.8,409.25,242.37,329.94,281.9c-83.64,41.7-127.95,124-12.58,355.46C338.71,680.17,359.48,751.4,310.83,784.76Zm92.4-105.82c-18.94,36.15-22.36,85.88.88,118a378.94,378.94,0,0,1-44.38-4.3C395.07,744,380,672.78,353.37,619.43,252.84,417.77,284,349.73,347.86,317.91c53.27-26.55,117.21-30.45,171.2-56.5-5.41,26.84-6.45,53.37,2.93,71.11,4.58,8.66,24,14.7,33.5,10.78-6.38,6-30.22,7-33.51,21.1-9.14,39.24,34.87,48.68,52.62,62.37,5.62,4.35,7.74,9-.83,13-21.61,9.94-28.73,37.52-7.6,52.7C576.79,500,562,511.9,554.61,512.1c10.3,10.55,13.88,18.75,3.79,28.95-9.38,9.48-13.12,20.36-7.39,33.16,16.93,37.79,6.33,44.36-27.23,48.16C476.46,627.73,430.19,627.48,403.23,678.94ZM446.12,796.2c-18.79-19.68-22.83-45.91-15.56-86.2,6.15-18,15.92-30.27,32.86-37.39,19.61-8.25,43.48-8.33,64.25-10.68,54.91-6.23,84.75-34.27,60.29-96.56-8.31-20,26.93-28.09-4.14-47.12,11.94-1.75,22.95-24.52,10-34.34-6-4.53-13.87-8.47-9.59-12.54,70.23-46.54,25.89-55.22-12.33-87-2-1.64-19.56-18.14-17.63-18.43,30.94-4.53,37.91-21.8,47.12-35.58-58.9,20.51-45.27-27-39.81-65.89,1.73-12.3,7.68-24.27,14.48-36.49,36-64.72,29.51-116.08.35-153.36A378.51,378.51,0,0,1,797.12,418.72C797.12,617.07,643.77,782,446.12,796.2Z"/><path class="cls-6" d="M23.8,558.39q3.25,9.2,6.92,18.19a20.2,20.2,0,0,1,27.31-14q6.55,2.25,12,3.68-3.7-8.78-7-17.75A35,35,0,0,0,23.8,558.39Z"/></g></g></svg>