<svg xmlns="http://www.w3.org/2000/svg" viewBox="0 0 447.96 448.66"><defs><style>.cls-1,.cls-7,.cls-8,.cls-9{fill:none;}.cls-1{stroke:#bd6478;stroke-miterlimit:10;}.cls-1,.cls-10,.cls-7,.cls-8,.cls-9{stroke-linecap:round;}.cls-2{fill:#ffbfcd;}.cls-3{fill:#f2f2f2;}.cls-4{fill:#ef7f98;}.cls-5{fill:#bd6478;}.cls-6{fill:#060606;}.cls-10,.cls-7,.cls-8,.cls-9{stroke:#fff;stroke-linejoin:round;}.cls-8{stroke-dasharray:3.81 3.81;}.cls-9{stroke-dasharray:3;}.cls-10,.cls-11{fill:#fff;}</style></defs><title>astro-svg-1</title><g id="Layer_2" data-name="Layer 2"><g id="OBJECTS"><line class="cls-1" x1="223.86" y1="7.66" x2="223.86" y2="0.5"/><line class="cls-1" x1="261.93" y1="28.08" x2="262.79" y2="23.58"/><line class="cls-1" x1="255.98" y1="58.91" x2="259.14" y2="42.53"/><line class="cls-1" x1="293.35" y1="51.98" x2="307.11" y2="17.65"/><line class="cls-1" x1="284.46" y1="74.17" x2="287.51" y2="66.55"/><line class="cls-1" x1="317.69" y1="79.54" x2="321.53" y2="73.56"/><line class="cls-1" x1="293.35" y1="117.37" x2="308.95" y2="93.11"/><line class="cls-1" x1="328.81" y1="115.45" x2="378.42" y2="63.5"/><line class="cls-1" x1="306.94" y1="138.35" x2="314.14" y2="130.8"/><line class="cls-1" x1="359" y1="129.3" x2="365.06" y2="124.99"/><line class="cls-1" x1="315.19" y1="160.43" x2="345.12" y2="139.16"/><line class="cls-1" x1="364.09" y1="161.48" x2="427.55" y2="132.58"/><line class="cls-1" x1="327.47" y1="178.15" x2="341.62" y2="171.71"/><line class="cls-1" x1="386.05" y1="186.2" x2="393.37" y2="184.43"/><line class="cls-1" x1="342.92" y1="196.59" x2="368.57" y2="190.41"/><line class="cls-1" x1="377.79" y1="218.2" x2="447.46" y2="214.99"/><line class="cls-1" x1="344.57" y1="219.73" x2="355.81" y2="219.21"/><line class="cls-1" x1="398.24" y1="250.66" x2="408.99" y2="252.23"/><line class="cls-1" x1="354.52" y1="244.3" x2="380.83" y2="248.13"/><line class="cls-1" x1="397.2" y1="285.63" x2="435.27" y2="298.89"/><line class="cls-1" x1="365.55" y1="274.6" x2="377.72" y2="278.84"/><line class="cls-1" x1="401.96" y1="328.57" x2="404.5" y2="330.04"/><line class="cls-1" x1="385.99" y1="319.3" x2="395.37" y2="324.75"/><line class="cls-1" x1="316.73" y1="406.4" x2="325.99" y2="424.49"/><line class="cls-1" x1="277.27" y1="408.7" x2="280.62" y2="420.23"/><line class="cls-1" x1="242.9" y1="429.91" x2="244.59" y2="448.16"/><line class="cls-1" x1="241.18" y1="411.23" x2="241.58" y2="415.62"/><line class="cls-1" x1="205.56" y1="412.06" x2="203.76" y2="430.33"/><line class="cls-1" x1="162.43" y1="432.42" x2="160.22" y2="439.85"/><line class="cls-1" x1="169.47" y1="408.76" x2="165.83" y2="420.98"/><line class="cls-1" x1="124.44" y1="416.79" x2="120.74" y2="423.89"/><line class="cls-1" x1="129.69" y1="406.69" x2="127.89" y2="410.15"/><line class="cls-1" x1="47.47" y1="326.32" x2="42.95" y2="328.9"/><line class="cls-1" x1="65.95" y1="315.76" x2="56.76" y2="321.01"/><line class="cls-1" x1="53.19" y1="283.68" x2="12.19" y2="297.66"/><line class="cls-1" x1="81.51" y1="274.02" x2="73.49" y2="276.75"/><line class="cls-1" x1="55.81" y1="248.8" x2="47.71" y2="249.93"/><line class="cls-1" x1="93.28" y1="243.6" x2="72.53" y2="246.48"/><line class="cls-1" x1="64.92" y1="217.08" x2="0.5" y2="213.69"/><line class="cls-1" x1="103.56" y1="219.11" x2="87.03" y2="218.24"/><line class="cls-1" x1="95.16" y1="193.5" x2="62.56" y2="185.41"/><line class="cls-1" x1="116.61" y1="198.82" x2="109.33" y2="197.02"/><line class="cls-1" x1="35.45" y1="138.15" x2="20.88" y2="131.4"/><line class="cls-1" x1="124.09" y1="179.2" x2="60.42" y2="149.71"/><line class="cls-1" x1="101.61" y1="137.32" x2="79.99" y2="121.74"/><line class="cls-1" x1="121.16" y1="151.4" x2="114.14" y2="146.35"/><line class="cls-1" x1="78.3" y1="70.96" x2="70.42" y2="62.6"/><line class="cls-1" x1="121.63" y1="116.93" x2="93.71" y2="87.31"/><line class="cls-1" x1="138.8" y1="91.28" x2="124.97" y2="69.46"/><line class="cls-1" x1="154.76" y1="116.44" x2="147.97" y2="105.72"/><line class="cls-1" x1="145.12" y1="25.12" x2="141.99" y2="17.16"/><line class="cls-1" x1="166.76" y1="80.15" x2="153.38" y2="46.13"/><line class="cls-1" x1="189.84" y1="42.56" x2="187.41" y2="29.53"/><line class="cls-1" x1="192.61" y1="57.43" x2="191.59" y2="51.99"/><path class="cls-2" d="M419.87,399.78H30.21l1.06-2.11L225,11.74ZM34.93,396.86H415.14L225,18.24Z"/><polygon class="cls-2" points="225.04 35.68 313.75 212.36 402.45 389.04 225.04 389.04 47.62 389.04 136.33 212.36 225.04 35.68"/><path class="cls-3" d="M334.83,307.84l4-2.57A.48.48,0,0,0,339,305l1.38-4.77a.4.4,0,0,1,.76,0l1.56,4.8a.39.39,0,0,0,.19.23l4.15,2.18a.4.4,0,0,1,0,.71l-3.86,1.95a.39.39,0,0,0-.19.23l-1.61,4.7a.4.4,0,0,1-.75,0l-1.81-4.72a.4.4,0,0,0-.22-.22l-3.72-1.59A.39.39,0,0,1,334.83,307.84Z"/><path class="cls-3" d="M101.22,385.46l4-2.58a.41.41,0,0,0,.17-.22l1.37-4.77a.4.4,0,0,1,.77,0l1.56,4.8a.39.39,0,0,0,.19.23l4.15,2.18a.4.4,0,0,1,0,.71l-3.86,1.95a.42.42,0,0,0-.2.23l-1.6,4.7a.4.4,0,0,1-.75,0L105.21,388a.43.43,0,0,0-.21-.23l-3.73-1.58A.4.4,0,0,1,101.22,385.46Z"/><path class="cls-3" d="M141.44,244.32l4-2.57a.33.33,0,0,0,.17-.23l1.38-4.77a.4.4,0,0,1,.76,0l1.56,4.79a.48.48,0,0,0,.2.24l4.14,2.17a.4.4,0,0,1,0,.71l-3.86,1.95a.38.38,0,0,0-.2.23l-1.6,4.71a.4.4,0,0,1-.75,0l-1.82-4.72a.4.4,0,0,0-.22-.22L141.5,245A.4.4,0,0,1,141.44,244.32Z"/><path class="cls-3" d="M294.93,340.41l2.06-1.32a.15.15,0,0,0,.08-.11l.71-2.44a.2.2,0,0,1,.39,0L299,339a.15.15,0,0,0,.1.12l2.12,1.12a.2.2,0,0,1,0,.36l-2,1a.17.17,0,0,0-.1.12l-.82,2.41a.21.21,0,0,1-.39,0L297,341.7a.22.22,0,0,0-.11-.12l-1.9-.81A.2.2,0,0,1,294.93,340.41Z"/><path class="cls-3" d="M155.38,359.94l2.06-1.31a.27.27,0,0,0,.09-.12l.7-2.44a.21.21,0,0,1,.4,0l.79,2.46a.22.22,0,0,0,.1.11l2.13,1.12a.2.2,0,0,1,0,.36l-2,1a.25.25,0,0,0-.11.12l-.82,2.41a.2.2,0,0,1-.38,0l-.93-2.42a.25.25,0,0,0-.11-.12l-1.91-.81A.2.2,0,0,1,155.38,359.94Z"/><path class="cls-3" d="M144.83,312.5l1.23-.78a.18.18,0,0,0,.05-.07l.42-1.46a.12.12,0,0,1,.23,0l.48,1.46a.11.11,0,0,0,.06.07l1.26.67a.12.12,0,0,1,0,.21l-1.18.6a.11.11,0,0,0-.06.07l-.49,1.43a.12.12,0,0,1-.23,0l-.55-1.44a.12.12,0,0,0-.07-.07l-1.13-.48A.13.13,0,0,1,144.83,312.5Z"/><path class="cls-3" d="M202,101l1.23-.78a.18.18,0,0,0,0-.07l.42-1.46a.12.12,0,0,1,.23,0l.48,1.46a.11.11,0,0,0,.06.07l1.26.67a.12.12,0,0,1,0,.21l-1.18.6a.11.11,0,0,0-.06.07l-.49,1.43a.12.12,0,0,1-.23,0l-.55-1.44a.12.12,0,0,0-.07-.07l-1.13-.48A.13.13,0,0,1,202,101Z"/><path class="cls-3" d="M248.59,146.25l1.23-.78a.18.18,0,0,0,.05-.07l.42-1.46a.12.12,0,0,1,.23,0l.48,1.46a.11.11,0,0,0,.06.07l1.26.67a.12.12,0,0,1,0,.21l-1.18.6a.14.14,0,0,0-.06.07l-.48,1.43a.12.12,0,0,1-.23,0l-.56-1.44a.11.11,0,0,0-.06-.07l-1.14-.48A.13.13,0,0,1,248.59,146.25Z"/><path class="cls-3" d="M349.91,376.81l1.23-.78a.18.18,0,0,0,.05-.07l.42-1.46a.12.12,0,0,1,.23,0l.48,1.46a.11.11,0,0,0,.06.07l1.26.67a.12.12,0,0,1,0,.21l-1.18.6a.11.11,0,0,0-.06.07l-.49,1.43a.12.12,0,0,1-.23,0l-.55-1.44a.12.12,0,0,0-.07-.07l-1.13-.48A.13.13,0,0,1,349.91,376.81Z"/><path class="cls-3" d="M71.39,366.11l1.22-.78a.13.13,0,0,0,.06-.07l.42-1.46a.12.12,0,0,1,.23,0l.47,1.46a.11.11,0,0,0,.06.07l1.27.67a.12.12,0,0,1,0,.21l-1.18.6a.11.11,0,0,0-.06.07l-.49,1.43a.12.12,0,0,1-.23,0l-.55-1.44a.16.16,0,0,0-.07-.07l-1.13-.48A.12.12,0,0,1,71.39,366.11Z"/><path class="cls-3" d="M135.56,301.48l2.05-1.32a.16.16,0,0,0,.09-.11l.71-2.45a.2.2,0,0,1,.39,0l.8,2.45a.17.17,0,0,0,.1.12l2.12,1.11a.21.21,0,0,1,0,.37l-2,1a.16.16,0,0,0-.1.11l-.82,2.41a.21.21,0,0,1-.39,0l-.93-2.41a.19.19,0,0,0-.11-.12l-1.9-.81A.2.2,0,0,1,135.56,301.48Z"/><path class="cls-3" d="M290.8,214.25l2.06-1.32a.2.2,0,0,0,.08-.12l.71-2.44a.2.2,0,0,1,.39,0l.8,2.46a.19.19,0,0,0,.1.12l2.12,1.11a.21.21,0,0,1,0,.37l-2,1a.23.23,0,0,0-.1.12l-.82,2.41a.21.21,0,0,1-.39,0l-.93-2.42a.2.2,0,0,0-.11-.11l-1.9-.81A.2.2,0,0,1,290.8,214.25Z"/><path class="cls-3" d="M242.76,177.77l2.05-1.32a.18.18,0,0,0,.09-.12l.71-2.44a.2.2,0,0,1,.39,0l.8,2.46a.19.19,0,0,0,.1.12l2.12,1.11a.21.21,0,0,1,0,.37l-2,1a.19.19,0,0,0-.1.12l-.82,2.41a.21.21,0,0,1-.39,0l-.93-2.42a.2.2,0,0,0-.11-.11l-1.9-.81A.2.2,0,0,1,242.76,177.77Z"/><path class="cls-3" d="M164.56,172.92l2.06-1.32a.15.15,0,0,0,.08-.11l.71-2.45a.2.2,0,0,1,.39,0l.8,2.45a.2.2,0,0,0,.1.12l2.12,1.11a.21.21,0,0,1,0,.37l-2,1a.18.18,0,0,0-.1.11l-.82,2.41a.2.2,0,0,1-.38,0l-.93-2.41a.18.18,0,0,0-.12-.12l-1.9-.81A.2.2,0,0,1,164.56,172.92Z"/><path class="cls-3" d="M378.14,377.09l2.06-1.31a.2.2,0,0,0,.08-.12l.71-2.44a.2.2,0,0,1,.39,0l.8,2.46a.16.16,0,0,0,.1.11l2.12,1.12a.2.2,0,0,1,0,.36l-2,1a.2.2,0,0,0-.1.12l-.82,2.41a.21.21,0,0,1-.39,0l-.93-2.41a.25.25,0,0,0-.11-.12l-1.9-.81A.2.2,0,0,1,378.14,377.09Z"/><path class="cls-3" d="M242.38,109.84l4-2.57a.48.48,0,0,0,.17-.23l1.38-4.77a.4.4,0,0,1,.76,0l1.56,4.79a.38.38,0,0,0,.2.23l4.14,2.18a.4.4,0,0,1,0,.71l-3.87,2a.39.39,0,0,0-.19.23l-1.6,4.7a.4.4,0,0,1-.76,0l-1.81-4.72a.4.4,0,0,0-.22-.22l-3.72-1.59A.39.39,0,0,1,242.38,109.84Z"/><path class="cls-3" d="M128,361.83a18,18,0,1,1-17-31.32,17.78,17.78,0,0,1,5.61-1A18,18,0,0,0,128,361.83Z"/><path class="cls-3" d="M351.27,348.48a18,18,0,0,1-18,18,17.71,17.71,0,0,1-5.63-.9,18,18,0,0,1,0-34.28,17.71,17.71,0,0,1,5.63-.9A18,18,0,0,1,351.27,348.48Z"/><path class="cls-3" d="M105.16,312.33a1.36,1.36,0,1,1-1.35-1.36A1.35,1.35,0,0,1,105.16,312.33Z"/><circle class="cls-3" cx="137.02" cy="339.74" r="1.36"/><path class="cls-3" d="M377.79,348.22a1.36,1.36,0,1,1-1.36-1.36A1.36,1.36,0,0,1,377.79,348.22Z"/><circle class="cls-3" cx="203.45" cy="145.01" r="1.36"/><circle class="cls-3" cx="300.65" cy="374.79" r="1.36"/><path class="cls-3" d="M293.45,240.47a1.36,1.36,0,1,1-1.36-1.36A1.35,1.35,0,0,1,293.45,240.47Z"/><path class="cls-3" d="M289,195.64a.5.5,0,0,1-.36-.16l-4-4.23-6.22,3.85a.5.5,0,0,1-.6,0,.51.51,0,0,1-.12-.59l3.37-7-3.94-4.18a.49.49,0,0,1,.45-.83l5.4,1.06,2.6-5.39a.5.5,0,0,1,.52-.28.48.48,0,0,1,.42.41l1.09,6.16,4.86.95a.5.5,0,0,1,.17.92l-4.23,2.62,1.08,6.13a.49.49,0,0,1-.27.53A.43.43,0,0,1,289,195.64Zm-3.49-4.93,2.71,2.87-.73-4.1Zm-3.7-2.45-2.46,5.09,4.59-2.84Zm.46-1L284.8,190l2.5-1.54-.56-3.15-3.2-.63Zm5.53-1.8.42,2.37,2.81-1.74Zm-8.88-1.74,2.62,2.76,1-2Zm5.08,0,2.56.51L285.8,180Z"/><path class="cls-3" d="M120.18,275.62a.46.46,0,0,1-.23-.06.5.5,0,0,1-.27-.53l1.09-6.13-4.23-2.62a.48.48,0,0,1-.23-.51.47.47,0,0,1,.39-.4l4.86-1,1.09-6.16a.5.5,0,0,1,.43-.41.48.48,0,0,1,.51.28l2.61,5.39,5.39-1.06a.5.5,0,0,1,.46.83l-4,4.18,3.37,7a.5.5,0,0,1-.11.59.5.5,0,0,1-.6.05l-6.22-3.85-4,4.23A.52.52,0,0,1,120.18,275.62Zm1.5-6.15-.72,4.09,2.71-2.87Zm3.56,1,4.59,2.84-2.46-5.09Zm-3.37-2.08,2.5,1.54,2.53-2.68-1.27-2.63-3.2.62Zm-3.72-2.31,2.81,1.74.41-2.37Zm8.49-1.66,1,2.06,2.61-2.77ZM123.37,260l-.76,4.26,2.57-.51Z"/><path class="cls-3" d="M269.53,378.1a.44.44,0,0,1-.22-.05.5.5,0,0,1-.27-.53l1.09-6.13-4.24-2.62a.52.52,0,0,1-.23-.52.51.51,0,0,1,.4-.4l4.86-1,1.09-6.16a.5.5,0,0,1,.42-.41.49.49,0,0,1,.52.28l2.6,5.38,5.4-1.05a.5.5,0,0,1,.46.83l-4,4.18,3.37,7a.47.47,0,0,1-.12.58.48.48,0,0,1-.59.06l-6.23-3.85-4,4.23A.51.51,0,0,1,269.53,378.1ZM271,372l-.72,4.1,2.71-2.87Zm3.55,1,4.59,2.84-2.46-5.1Zm-3.36-2.09,2.5,1.55,2.53-2.68L275,367.12l-3.21.63Zm-3.73-2.3,2.81,1.74.42-2.37Zm8.5-1.66,1,2.05,2.62-2.76Zm-3.28-4.5L272,366.7l2.57-.51Z"/><path class="cls-4" d="M331.85,187.09a23.4,23.4,0,0,0-17.93,14.4l12.23,7.85a13.62,13.62,0,0,0,3.6-5.35,42.1,42.1,0,0,0,3.44-15.6A1.23,1.23,0,0,0,331.85,187.09Z"/><path class="cls-5" d="M331.21,200.09a40.51,40.51,0,0,1-1.46,3.9,13.55,13.55,0,0,1-3.6,5.35l-12.23-7.85a23.23,23.23,0,0,1,5.16-7.82,11.28,11.28,0,0,1,12.13,6.42Z"/><path class="cls-4" d="M273.3,76.58a38.6,38.6,0,0,0-9.51,25.9h17.3a47.4,47.4,0,0,0-5.82-25.7A1.21,1.21,0,0,0,273.3,76.58Z"/><path class="cls-5" d="M281.09,102.49H263.78a36,36,0,0,1,1.55-11.39,10.19,10.19,0,0,1,3.28-1.55,15.64,15.64,0,0,1,6.64-.13,10.64,10.64,0,0,1,3.37,1.08A8.4,8.4,0,0,1,280.54,92,45.39,45.39,0,0,1,281.09,102.49Z"/><path class="cls-4" d="M224.59,52.46c-5.52,7.91-8,17.32-8.53,26.78L234,80.59a47.53,47.53,0,0,0-7.34-28.12A1.21,1.21,0,0,0,224.59,52.46Z"/><path class="cls-5" d="M234,80.59l-17.89-1.35a59.81,59.81,0,0,1,2.05-12.83,9.13,9.13,0,0,1,3.12-1.59,13.22,13.22,0,0,1,5.67-.27,11.35,11.35,0,0,1,3.5,1,13.27,13.27,0,0,1,2.37,1.59A45.74,45.74,0,0,1,234,80.59Z"/><path class="cls-4" d="M135.39,114.37a.87.87,0,0,0-1.39.34,46.92,46.92,0,0,0-3,21.43l14.47,1.11a38.53,38.53,0,0,0-3-12.9A29.22,29.22,0,0,0,135.39,114.37Z"/><path class="cls-5" d="M145.37,135.92a8.82,8.82,0,0,1-.42,1.29L131,136.13a43.69,43.69,0,0,1,.14-10.15s0,0,0,0a8.9,8.9,0,0,1,1.19-1.33,6.89,6.89,0,0,1,1.65-1,9.8,9.8,0,0,1,5.31-.79,7.48,7.48,0,0,1,3,1.15,2.6,2.6,0,0,1,.16.34A37.61,37.61,0,0,1,145.37,135.92Z"/><path class="cls-4" d="M180.37,71.66a45.47,45.47,0,0,0-4.85,25.17l16.3.87a47.47,47.47,0,0,0-9.3-26.21A1.26,1.26,0,0,0,180.37,71.66Z"/><path class="cls-5" d="M191.82,97.7l-16.29-.87a43,43,0,0,1,.3-11.21,8.47,8.47,0,0,1,.79-.54,11.39,11.39,0,0,1,4.62-1.5,11.83,11.83,0,0,1,5.22.47,8.52,8.52,0,0,1,3.39,2.06A45.83,45.83,0,0,1,191.82,97.7Z"/><path class="cls-6" d="M289.17,256c1.95,1.41,4.88.48,6.43-1.36s2.07-4.32,2.55-6.69a43.51,43.51,0,0,0,1-7.25c.08-2.86-.4-5.7-.51-8.56-.37-9.68,3.53-19,8.2-27.51a24.62,24.62,0,0,1,4.24-6A13.69,13.69,0,0,1,322.4,195a10.13,10.13,0,0,1,7.28,4.42c2.43,4,.89,9.11-.34,13.62-1.62,5.92-2.62,12.15-1.53,18.19.83,4.65,2.88,9.13,2.74,13.84-.11,3.73-1.59,7.26-2.85,10.77C321.43,273.37,323,293,312,308c-12.14,16.6-25.9,30.08-40.89,44.17L271,386.41l-96-.78c1.28-11.61,2.36-22.55,2.82-34.22.06-1.46-2.53-3.51-3.35-4.65-1.89-2.63-3.14-5.89-4.48-8.87a204.29,204.29,0,0,1-7.64-19.83,206.5,206.5,0,0,1-9-41.49,204.13,204.13,0,0,1-1.23-21c0-6.71-.68-13.4,0-20.12a38.58,38.58,0,0,0-1.41-15.15c-5.86-19.09-11.64-38.21-16.69-57.53-.7-2.71-1.39-5.44-2-8.18s-1.18-5.36-1.61-8.07a51.74,51.74,0,0,1-1-9.19,23.47,23.47,0,0,1,1.59-8.57,7.36,7.36,0,0,1,2.17-2.88,7.44,7.44,0,0,1,6.51-1.34,6.18,6.18,0,0,1,.72.26c6.57,2.74,8.45,10.78,9.91,17l.33,1.41c2.48,10.44,5.17,20.84,8.62,31,1.72,5.06,3.63,10,5.79,14.94,1.08,2.43,2.19,4.84,3.42,7.19s2.24,5.35,4.25,6.94c1.58,1.26,4.24,1.31,5-.86a5.66,5.66,0,0,0,.18-2c-.3-9.66-.65-19.31-1.12-28.95-.56-11.44-1.23-22.87-1.91-34.3q-1-17.62-2.09-35.24c-.23-4-.4-8.32,1.7-11.75a10.41,10.41,0,0,1,9.13-4.8,10.93,10.93,0,0,1,8.83,5.42,19.48,19.48,0,0,1,2,6c1.5,7.52,1.94,15.2,2.36,22.86.59,10.84,1.14,21.69,2.11,32.5.5,5.63,1.11,11.24,1.89,16.84.55,3.87,1.07,7.73,1.66,11.59.56,3.7.49,11.53,4.95,12.89a3.38,3.38,0,0,0,4.64-3.26c.09-3.2-.22-6.4-.32-9.59s-.15-6.62-.12-9.92c.07-6.54,0-13.08-.2-19.62s-.35-13.21-.45-19.82c-.09-5.21-.12-10.42,0-15.63.21-12.16.43-24.36,2.31-36.38.82-5.18,2.38-11,8-12.61,2.07-.61,5.6-.84,7.6,0,5.3,2.19,6.66,7.91,7.53,13.23.68,4.16.38,8.41.21,12.62-.2,4.87-.23,9.74-.26,14.61q0,6.45-.08,12.88l.69,50.77c0,3.44,0,6.89.28,10.32s.65,6.73,2.46,9.5a4.67,4.67,0,0,0,.36.51,4.84,4.84,0,0,0,7.93-.1,12.4,12.4,0,0,0,1.63-3.47c2.72-8,3.66-16.48,4.46-24.88q1.35-14,2.69-28.07c.75-8.15,1.55-16.3,2.33-24.44.6-6.29,1.45-13.67,7.4-17.34a16.41,16.41,0,0,1,2-1,10.43,10.43,0,0,1,10.7,1.86c3.16,2.77,3.71,7.5,3.78,11.49.07,4.45-.08,9-.29,13.39-.29,6-.83,12-1.37,18-2.07,22.82-6.09,43.44-5.68,65.67a144.61,144.61,0,0,0,5.1,35.58c1.72,6.32,4,12.57,7.83,17.71a5.63,5.63,0,0,0,.81.87"/><ellipse class="cls-4" cx="223.03" cy="386.09" rx="10.96" ry="47.99" transform="translate(-164.37 606.84) rotate(-89.66)"/><path class="cls-5" d="M271,386.38c0,6-21.55,10.82-48,10.67s-48-5.19-47.92-11.24c0-1.2.85-2.34,2.4-3.4,6.28,4.4,24.28,7.65,45.52,7.78s39.34-2.93,45.65-7.28C270.18,384,271,385.18,271,386.38Z"/><path class="cls-7" d="M134.29,149.52c.38-.33.76-.65,1.16-1"/><path class="cls-8" d="M138.66,146.52a23.15,23.15,0,0,1,5.32-2"/><path class="cls-7" d="M145.85,144.12c.49-.08,1-.14,1.49-.18"/><path class="cls-9" d="M176.64,113.14a31.11,31.11,0,0,1,13.09-3.44,10,10,0,0,1,4.55.67"/><path class="cls-9" d="M214.57,104.12a29.77,29.77,0,0,1,18.36-1.91"/><path class="cls-9" d="M260.62,118.69a36.26,36.26,0,0,1,19.11-.77"/><path class="cls-9" d="M141.4,181a26.6,26.6,0,0,1,14.86-6.65"/><path class="cls-9" d="M178.86,153.1a19.64,19.64,0,0,1,16.34-2.51"/><path class="cls-9" d="M214.31,141.12c6-2.37,12.64-3.8,18.88-2.21"/><path class="cls-9" d="M258.05,154.3c5.73-1.51,11.83-3,17.49-1.28"/><path class="cls-9" d="M182.88,200.14c5.51-2.56,11.3-5.19,17.37-4.87"/><path class="cls-9" d="M217.36,191.07a24.34,24.34,0,0,1,17.22-.56"/><path class="cls-9" d="M254.77,190.41c5.5-.31,11.37.28,15.82,3.53"/><path class="cls-9" d="M153.07,215.48c4.27-4.14,9.5-7.7,15.42-8.31"/><path class="cls-9" d="M301.39,236.8a27,27,0,0,0,2.74.84,37.26,37.26,0,0,0,19-.18"/><path class="cls-9" d="M287.82,261.41a43.66,43.66,0,0,0,19.84,28.23"/><path class="cls-9" d="M241.4,200.3a134.49,134.49,0,0,1-79.61,45.2"/><path class="cls-9" d="M270.81,223.8a146.15,146.15,0,0,0-89.67,51.51"/><path class="cls-9" d="M272,230.07c-14,13-26.86,27.49-36.1,44.21s-14.75,35.84-13.49,54.9"/><path class="cls-7" d="M263.74,349.92a30.07,30.07,0,0,1,3.35,2.13"/><path class="cls-7" d="M239,343.38c2.86.33,5.7.75,8.53,1.28,1.4.26,2.8.55,4.19.88"/><path class="cls-7" d="M181.58,350.33a123.65,123.65,0,0,1,11.91-3.75"/><path class="cls-7" d="M203.2,344.73a54.78,54.78,0,0,1,7.22-.9"/><path class="cls-7" d="M231.61,394.43c-1.35,0-2.73.07-4.12.09"/><path class="cls-7" d="M265,383.93c1.17.77,1.8,1.58,1.79,2.42,0,3.43-10.6,6.31-25.78,7.55"/><path class="cls-7" d="M260.64,382c.6.2,1.17.4,1.69.61"/><path class="cls-7" d="M204.62,378.32q1.78-.15,3.66-.27"/><path class="cls-7" d="M180.61,387.93a2.77,2.77,0,0,1-1.34-2.1c0-2.84,7.29-5.31,18.44-6.78"/><path class="cls-7" d="M185,390.05c-.5-.18-1-.35-1.41-.53"/><path class="cls-7" d="M156.2,262.12c-.08-1.75-.14-3.5-.17-5.25"/><path class="cls-7" d="M163.83,308.71a203.77,203.77,0,0,1-6.47-32.27"/><path class="cls-7" d="M286.85,332a143.6,143.6,0,0,0,13-14.86"/><path class="cls-7" d="M275.17,342.38q1.81-1.45,3.6-3"/><path class="cls-7" d="M324.9,198.84a6.92,6.92,0,0,1,2.73,2.06,5,5,0,0,1,.73,2.78c.05,3.08-1.41,6-2,9"/><path class="cls-7" d="M180.79,359l.27-3.68"/><path class="cls-7" d="M179.08,377.07q.57-5,1-10.08"/><path class="cls-7" d="M267.83,367.54q0-4.68.07-9.37"/><path class="cls-7" d="M267.94,377.55l-.06-3.23"/><path class="cls-7" d="M273.19,212a87.49,87.49,0,0,1-.5-11.1"/><path class="cls-7" d="M274.64,221c-.19-.87-.36-1.75-.52-2.62"/><path class="cls-7" d="M228.51,69.43a6.81,6.81,0,0,0-2.21-.71"/><path class="cls-7" d="M234.14,84.16c0-3.16,0-6.41-1.12-9.38A11.27,11.27,0,0,0,231.49,72"/><path class="cls-7" d="M279.08,98.09a8,8,0,0,1,.38,1,21,21,0,0,1,.55,7.38"/><path class="cls-7" d="M274.44,94a5.37,5.37,0,0,1,1.62.61"/><path class="cls-7" d="M191.18,92.14a15.72,15.72,0,0,1,.64,1.52"/><path class="cls-7" d="M180.92,88a7.71,7.71,0,0,1,8,1.07"/><path class="cls-7" d="M146.82,134.76c.22.58.42,1.16.62,1.73"/><path class="cls-7" d="M137.29,126.18a9.56,9.56,0,0,1,6.69,3.41,11.38,11.38,0,0,1,1.49,2.14"/><path class="cls-7" d="M254.41,283.72c.71-5.09,3.49-9.68,6.78-13.64a40.71,40.71,0,0,1,12.88-10.54,27,27,0,0,1,16.27-2.72"/><path class="cls-7" d="M143.47,137l-1.75.52a2.76,2.76,0,0,0-3.46-3.32,2.76,2.76,0,0,0-1,4.69l-1.71.51"/><line class="cls-7" x1="135.97" y1="140.91" x2="143.75" y2="138.58"/><path class="cls-7" d="M142.93,165.45a13.86,13.86,0,0,1-.66-4.28,3.31,3.31,0,0,1,.4-1.76,1.32,1.32,0,0,1,1.58-.56,1.71,1.71,0,0,1,.7.8c.78,1.55.79,3.38,1.24,5.06"/><path class="cls-7" d="M144.93,159.54a1.51,1.51,0,0,1,.31-1,1.27,1.27,0,0,1,1-.43,1.72,1.72,0,0,1,1.41.9,5,5,0,0,1,.54,1.66l.29,1.37a4.73,4.73,0,0,0,.58,1.68,1.59,1.59,0,0,0,1.5.76"/><path class="cls-7" d="M140.06,160.11a2,2,0,0,1,1-1.1,1,1,0,0,1,.52-.12.92.92,0,0,1,.58.32,1.4,1.4,0,0,1,.28.36"/><path class="cls-7" d="M152,198.67l4.31-7.82"/><path class="cls-7" d="M152.6,190.86a20.39,20.39,0,0,1,4.18-.69,33.57,33.57,0,0,1,.9,4.12"/><path class="cls-7" d="M151.51,194.29a19.76,19.76,0,0,0,3.88,2.72"/><path class="cls-7" d="M183.6,131.86a2.24,2.24,0,0,0-1.36.43,2.72,2.72,0,0,0,1.18,5.05A2.85,2.85,0,0,0,186,136a3,3,0,0,0,0-2.95,3.06,3.06,0,0,0-2.66-1.18"/><path class="cls-7" d="M183.42,132.06a6.56,6.56,0,0,1,.07-2.25,8,8,0,0,1,.73-2.58,3.44,3.44,0,0,1,1.94-1.77,2.71,2.71,0,0,1,3.12,1.31,3.84,3.84,0,0,1,.36,1.57,21.16,21.16,0,0,1-.09,2.25,6.43,6.43,0,0,0,.19,2.23,2.89,2.89,0,0,0,1.33,1.74,1.86,1.86,0,0,0,2.1-.19"/><path class="cls-7" d="M180.74,94.22a2.84,2.84,0,0,0-1,1.48,2.38,2.38,0,0,0-.06,1.06,1.87,1.87,0,0,0,.39.8,2.41,2.41,0,1,0,3.52-3.26A2.22,2.22,0,0,0,180.74,94.22Z"/><path class="cls-7" d="M181.11,94a8.13,8.13,0,0,1,4.36-.26,6.52,6.52,0,0,1,3.85,2"/><path class="cls-7" d="M187.74,102.12a2.9,2.9,0,0,0,1-1.49,2.33,2.33,0,0,0,.06-1,1.82,1.82,0,0,0-.39-.8,2.41,2.41,0,1,0-3.52,3.26A2.24,2.24,0,0,0,187.74,102.12Z"/><path class="cls-7" d="M187.37,102.34a7.94,7.94,0,0,1-4.36.26,6.47,6.47,0,0,1-3.85-1.95"/><path class="cls-7" d="M163.1,220.52A3.19,3.19,0,0,0,163,223a2.77,2.77,0,0,0,.72,1.12,3,3,0,0,0,2.64.53,3.26,3.26,0,0,0,1.16-.47,2.72,2.72,0,0,0,1.08-1.67,3.22,3.22,0,0,0-.25-2,3,3,0,0,0-1.34-1.44,2.61,2.61,0,0,0-2.2-.19A3,3,0,0,0,163.1,220.52Z"/><path class="cls-7" d="M191,208.12a3.62,3.62,0,0,0-.1,2.78,3.06,3.06,0,0,0,.8,1.25,3.34,3.34,0,0,0,3,.6,3.49,3.49,0,0,0,1.29-.53,3,3,0,0,0,1.22-1.87,3.65,3.65,0,0,0-.28-2.23,3.52,3.52,0,0,0-1.5-1.62,3,3,0,0,0-2.47-.21A3.3,3.3,0,0,0,191,208.12Z"/><path class="cls-7" d="M167.07,224.53c.46,1.37,1,2.73,1.55,4.06"/><path class="cls-7" d="M166.07,227.26a34.59,34.59,0,0,1,3.33-1.68"/><path class="cls-7" d="M161,218.86a2.4,2.4,0,0,0,.56,1.45,2.48,2.48,0,0,0,1.33.82"/><path class="cls-7" d="M166.67,216.1a2.47,2.47,0,0,1,.66,1.42A2.39,2.39,0,0,1,167,219"/><path class="cls-7" d="M191.75,214.49q1.73-4.76,3.75-9.39"/><path class="cls-7" d="M224.73,204.69a34.45,34.45,0,0,1-.54-4.29,4.22,4.22,0,0,1,.06-1.33,2.27,2.27,0,0,1,2.16-1.63,2.35,2.35,0,0,1,2.16,1.65,4.58,4.58,0,0,1,0,2l-.21,1.28a2.23,2.23,0,0,0,.08,1.47,1.16,1.16,0,0,0,1.66.34"/><path class="cls-7" d="M221.87,197.41a6.92,6.92,0,0,1,1.62-.21,1.6,1.6,0,0,1,1.35.79"/><path class="cls-7" d="M257.34,199.81c-.13-.09-.12-.3-.09-.46a2.68,2.68,0,0,1,2.17-2.14,1.53,1.53,0,0,1,.92.17,1.59,1.59,0,0,1,.41,2,4.57,4.57,0,0,1-1.6,1.58l-2.33,1.66a3.69,3.69,0,0,1,.88,0l6.09.52"/><path class="cls-7" d="M262.42,199.62a52.06,52.06,0,0,0-1.28,7.35"/><path class="cls-7" d="M261.2,167.11a6.08,6.08,0,0,0,8.2,1"/><path class="cls-7" d="M268.24,176.94a6.07,6.07,0,0,0-8.14-1.4"/><line class="cls-7" x1="264.06" y1="169.17" x2="263.51" y2="174.42"/><line class="cls-7" x1="266.32" y1="169.53" x2="265.77" y2="174.78"/><path class="cls-7" d="M266.29,136.14a3,3,0,0,0,.17,2.34,2.6,2.6,0,0,0,.79,1,2.8,2.8,0,0,0,2.54.22,3.27,3.27,0,0,0,1-.56,2.59,2.59,0,0,0,.84-1.68,3,3,0,0,0-.44-1.84,2.89,2.89,0,0,0-1.41-1.22,2.5,2.5,0,0,0-2.09.05A2.78,2.78,0,0,0,266.29,136.14Z"/><path class="cls-7" d="M263.65,132.56a3.57,3.57,0,0,1,4,1.78"/><path class="cls-7" d="M269.84,134.29a3.87,3.87,0,0,1,1.64-1.71,3.81,3.81,0,0,1,2.32-.42"/><path class="cls-7" d="M269.19,106.15a2,2,0,0,1-1.56-3.24,1.85,1.85,0,0,1,.68-.56,2.18,2.18,0,0,1,1.57,0,2.34,2.34,0,0,1,1,.57,2.92,2.92,0,0,1,.73,1.59,9,9,0,0,1,0,2.08c-.09,1.18-.28,2.35-.47,3.52"/><path class="cls-7" d="M273.76,106.56a2.08,2.08,0,0,0,1.95-.81,2.06,2.06,0,0,0,.16-2.1,1.76,1.76,0,0,0-.57-.67,2.19,2.19,0,0,0-1.54-.32,2.47,2.47,0,0,0-1.08.39,2.89,2.89,0,0,0-1,1.44"/><path class="cls-7" d="M220,166.3a7.44,7.44,0,0,0,2-2,5,5,0,0,0,.86-2.73,5.52,5.52,0,0,0-.8-2.75,11.59,11.59,0,0,0-1.81-2.26"/><path class="cls-7" d="M228.44,166.3a7.27,7.27,0,0,1-2-2,5.13,5.13,0,0,1-.87-2.73,5.62,5.62,0,0,1,.8-2.75,11.59,11.59,0,0,1,1.81-2.26"/><line class="cls-7" x1="219.5" y1="161.17" x2="228.58" y2="161.17"/><path class="cls-7" d="M175.48,318.51a4.92,4.92,0,0,0,3.11,2.18,4.1,4.1,0,0,0,2,0,4.58,4.58,0,0,0,2.88-2.95,5.06,5.06,0,0,0,.35-1.88,4.13,4.13,0,0,0-1.24-2.77,5,5,0,0,0-2.75-1.33,4.7,4.7,0,0,0-3,.52,4.08,4.08,0,0,0-2.07,2.67A4.52,4.52,0,0,0,175.48,318.51Z"/><path class="cls-7" d="M183.93,327.54l-.06.23c-1-2.37-1.91-4.78-2.72-7.22"/><path class="cls-7" d="M180.66,325.27c1.39-.66,3-.89,4.29-1.66"/><path class="cls-7" d="M309.62,218.5a4.14,4.14,0,0,0-.77,3.11,3.56,3.56,0,0,0,.61,1.6,3.9,3.9,0,0,0,3.2,1.37,4.23,4.23,0,0,0,1.58-.3,3.43,3.43,0,0,0,1.81-1.82,4.12,4.12,0,0,0,.21-2.57,4,4,0,0,0-1.31-2.18,3.46,3.46,0,0,0-2.74-.82A3.82,3.82,0,0,0,309.62,218.5Z"/><path class="cls-7" d="M313.32,216.79s0,0,0,0,0,0,.05-.06a29.86,29.86,0,0,0,.74-3.86"/><path class="cls-10" d="M315.72,214.16a14.76,14.76,0,0,0-3.66-.67,24.87,24.87,0,0,1,2.46-2.13C315,212.25,315.21,213.27,315.72,214.16Z"/><path class="cls-7" d="M184.69,179.74a14.58,14.58,0,0,1,.11-4.66,3.43,3.43,0,0,1,.76-1.79,1.42,1.42,0,0,1,1.78-.3,1.82,1.82,0,0,1,.58,1c.54,1.8.21,3.74.37,5.61"/><path class="cls-7" d="M187.92,173.86a1.61,1.61,0,0,1,.53-1,1.35,1.35,0,0,1,1.1-.27,1.88,1.88,0,0,1,1.32,1.22,5.3,5.3,0,0,1,.26,1.86c0,.5,0,1,.05,1.5a5,5,0,0,0,.3,1.89c.25.59.63,1.58,3.29,1.15"/><path class="cls-7" d="M182.66,173.55a2.14,2.14,0,0,1,1.27-1,1.07,1.07,0,0,1,.56,0,1,1,0,0,1,.56.45,2.64,2.64,0,0,1,.28.67"/><path class="cls-7" d="M190.8,173.52a1.55,1.55,0,0,1,1.63-.18,2.3,2.3,0,0,1,1.12,1.27,4.62,4.62,0,0,1,.26,1.7,7.15,7.15,0,0,1-.24,1.84,6.77,6.77,0,0,1-1.94,2.93,19.68,19.68,0,0,1-2.87,2.09"/><path class="cls-7" d="M217.89,119.23c.15-.19,3.49-3.11,3.49-3.11l.83,3.15,2.81-2.89,1.06,3,3-2.81.23,3.3"/><path class="cls-7" d="M217.89,124c.15-.19,3.49-3.11,3.49-3.11l.83,3.15,2.81-2.89,1.06,3,3-2.81.23,3.3"/><path class="cls-7" d="M221.36,87.36a36.61,36.61,0,0,1-.05-4.32,3.93,3.93,0,0,1,.22-1.32,2.26,2.26,0,0,1,2.33-1.37,2.34,2.34,0,0,1,1.95,1.89,4.57,4.57,0,0,1-.27,2A4.68,4.68,0,0,0,225.1,87a1.62,1.62,0,0,0,1.43,1.14A3.26,3.26,0,0,0,228.6,87"/><path class="cls-7" d="M219.36,79.8a6.35,6.35,0,0,1,1.63,0,1.56,1.56,0,0,1,1.25.93"/><path class="cls-7" d="M225.16,86.71a3.06,3.06,0,0,1,2-2.58,2,2,0,0,1,.65-.16,1.48,1.48,0,0,1,1.22.62,1.68,1.68,0,0,1,.25,1.36,3,3,0,0,1-.56,1.07,13,13,0,0,1-1.17,1.39,6.38,6.38,0,0,1-1.43,1.16,8.15,8.15,0,0,1-3.1.74"/><path class="cls-11" d="M272.88,324.35a9.4,9.4,0,0,1-14.88.73,9.4,9.4,0,0,0,10.35-14.93,9.87,9.87,0,0,1,2.16,1.12A9.41,9.41,0,0,1,272.88,324.35Z"/><path class="cls-11" d="M306,267a3.58,3.58,0,0,0,2.16-.18,9.51,9.51,0,0,0,4-2.24,4.5,4.5,0,0,0,1.24-4.26,2.13,2.13,0,0,0-.64-1,2,2,0,0,0-1.68-.33,3.94,3.94,0,0,0-1.55.85,2.51,2.51,0,0,0-.56-2.28,2.38,2.38,0,0,0-2.38-.72,3.54,3.54,0,0,0-2.06,2.49C303.72,261.8,304.63,264.67,306,267Z"/><path class="cls-7" d="M210.07,359s13.2-15.79,29.14,0"/><path class="cls-7" d="M239.21,359.28s-13.2,15.8-29.14,0"/><path class="cls-11" d="M224.4,353.63a5.32,5.32,0,1,0,5.31,5.31A5.32,5.32,0,0,0,224.4,353.63Zm0,7.85a2.54,2.54,0,1,1,2.53-2.54A2.54,2.54,0,0,1,224.4,361.48Z"/><polyline class="cls-7" points="235.91 364.26 238.19 368.2 224.76 368.2 211.33 368.2 213.51 364.42"/><polyline class="cls-7" points="221.28 350.18 224.76 344.15 228.34 350.35"/><line class="cls-7" x1="218.9" y1="350.8" x2="217.93" y2="345.73"/><line class="cls-7" x1="215.6" y1="352.07" x2="214.58" y2="349.62"/><line class="cls-7" x1="212.9" y1="354.31" x2="210.32" y2="349.83"/><line class="cls-7" x1="209.82" y1="356.27" x2="207.65" y2="354.29"/><line class="cls-7" x1="230.2" y1="350.8" x2="231.17" y2="345.73"/><line class="cls-7" x1="233.5" y1="352.07" x2="234.52" y2="349.62"/><line class="cls-7" x1="236.2" y1="354.31" x2="238.78" y2="349.83"/><line class="cls-7" x1="239.28" y1="356.27" x2="241.45" y2="354.29"/></g></g></svg>