<?xml version="1.0" encoding="utf-8"?>
<!-- Generator: Adobe Illustrator 22.0.0, SVG Export Plug-In . SVG Version: 6.00 Build 0)  -->
<svg version="1.1" id="Layer_1" xmlns="http://www.w3.org/2000/svg" xmlns:xlink="http://www.w3.org/1999/xlink" x="0px" y="0px"
	 viewBox="0 0 749.9 532.2" style="enable-background:new 0 0 749.9 532.2;" xml:space="preserve">
<style type="text/css">
	.st0{fill:url(#SVGID_1_);}
	.st1{fill:#546069;}
	.st2{fill:#1E506B;}
	.st3{fill:none;}
	.st4{fill:#CFCFCF;}
	.st5{font-family:'ArialMT';}
	.st6{font-size:12px;}
	.st7{fill:#F9F8F7;}
	.st8{font-family:'OpenSans';}
	.st9{font-size:9.5441px;}
	.st10{fill:url(#SVGID_2_);}
</style>
<g>
	
		<radialGradient id="SVGID_1_" cx="159.149" cy="281.8233" r="250.0083" gradientTransform="matrix(1.4995 0 0 -1.0644 136.356 566.0728)" gradientUnits="userSpaceOnUse">
		<stop  offset="0" style="stop-color:#6DA375"/>
		<stop  offset="1" style="stop-color:#6DA374"/>
	</radialGradient>
	<rect x="0.1" class="st0" width="749.8" height="532.2"/>
	<g>
		<path class="st1" d="M171.4,192.5L171.4,192.5c-0.9,0-1.6,0.7-1.6,1.6l0,0c0-0.9-0.7-1.6-1.6-1.6l0,0c0.9,0,1.6-0.7,1.6-1.6l0,0
			C169.8,191.8,170.6,192.5,171.4,192.5z"/>
		<path class="st1" d="M422.4,310.7L422.4,310.7c-0.9,0-1.6,0.7-1.6,1.6l0,0c0-0.9-0.7-1.6-1.6-1.6l0,0c0.9,0,1.6-0.7,1.6-1.6l0,0
			C420.8,310,421.5,310.7,422.4,310.7z"/>
		<path class="st1" d="M211,295.4L211,295.4c-0.9,0-1.6,0.7-1.6,1.6l0,0c0-0.9-0.7-1.6-1.6-1.6l0,0c0.9,0,1.6-0.7,1.6-1.6l0,0
			C209.5,294.7,210.2,295.4,211,295.4z"/>
		<path class="st1" d="M179.1,184.9L179.1,184.9c-0.4,0-0.7,0.3-0.7,0.7l0,0c0-0.4-0.3-0.7-0.7-0.7l0,0c0.4,0,0.7-0.3,0.7-0.7l0,0
			C178.4,184.6,178.7,184.9,179.1,184.9z"/>
		<path class="st1" d="M174.4,443.6L174.4,443.6c-0.4,0-0.7,0.3-0.7,0.7l0,0c0-0.4-0.3-0.7-0.7-0.7l0,0c0.4,0,0.7-0.3,0.7-0.7l0,0
			C173.7,443.3,174.1,443.6,174.4,443.6z"/>
		<path class="st1" d="M282.2,339.7L282.2,339.7c-0.4,0-0.7,0.3-0.7,0.7l0,0c0-0.4-0.3-0.7-0.7-0.7l0,0c0.4,0,0.7-0.3,0.7-0.7l0,0
			C281.5,339.4,281.8,339.7,282.2,339.7z"/>
		<path class="st1" d="M192.6,245.6L192.6,245.6c-0.6,0-1.1,0.5-1.1,1.1l0,0c0-0.6-0.5-1.1-1.1-1.1l0,0c0.6,0,1.1-0.5,1.1-1.1l0,0
			C191.5,245.1,192,245.6,192.6,245.6z"/>
		<path class="st1" d="M409.6,351.3L409.6,351.3c-0.6,0-1.1,0.5-1.1,1.1l0,0c0-0.6-0.5-1.1-1.1-1.1l0,0c0.6,0,1.1-0.5,1.1-1.1l0,0
			C408.5,350.8,408.9,351.3,409.6,351.3z"/>
		<path class="st1" d="M271.8,364.7L271.8,364.7c-0.6,0-1.1,0.5-1.1,1.1l0,0c0-0.6-0.5-1.1-1.1-1.1l0,0c0.6,0,1.1-0.5,1.1-1.1l0,0
			C270.7,364.2,271.2,364.7,271.8,364.7z"/>
		<path class="st1" d="M145.8,319.4L145.8,319.4c-0.6,0-1.1,0.5-1.1,1.1l0,0c0-0.6-0.5-1.1-1.1-1.1l0,0c0.6,0,1.1-0.5,1.1-1.1l0,0
			C144.7,318.9,145.2,319.4,145.8,319.4z"/>
		<path class="st1" d="M420.4,369.6L420.4,369.6c-0.6,0-1.1,0.5-1.1,1.1l0,0c0-0.6-0.5-1.1-1.1-1.1l0,0c0.6,0,1.1-0.5,1.1-1.1l0,0
			C419.3,369.1,419.8,369.6,420.4,369.6z"/>
		<path class="st1" d="M382.6,97.5L382.6,97.5c0.9,0,1.6-0.7,1.6-1.6l0,0c0,0.9,0.7,1.6,1.6,1.6l0,0c-0.9,0-1.6,0.7-1.6,1.6l0,0
			C384.2,98.2,383.4,97.5,382.6,97.5z"/>
		<path class="st1" d="M191.7,376.1L191.7,376.1c0.9,0,1.6-0.7,1.6-1.6l0,0c0,0.9,0.7,1.6,1.6,1.6l0,0c-0.9,0-1.6,0.7-1.6,1.6l0,0
			C193.2,376.8,192.5,376.1,191.7,376.1z"/>
		<path class="st1" d="M596.8,322.7L596.8,322.7c0.9,0,1.6-0.7,1.6-1.6l0,0c0,0.9,0.7,1.6,1.6,1.6l0,0c-0.9,0-1.6,0.7-1.6,1.6l0,0
			C598.4,323.4,597.7,322.7,596.8,322.7z"/>
		<path class="st1" d="M252.4,227.2L252.4,227.2c0.9,0,1.6-0.7,1.6-1.6l0,0c0,0.9,0.7,1.6,1.6,1.6l0,0c-0.9,0-1.6,0.7-1.6,1.6l0,0
			C254,228,253.3,227.2,252.4,227.2z"/>
		<path class="st1" d="M197.5,178.5L197.5,178.5c0.9,0,1.6-0.7,1.6-1.6l0,0c0,0.9,0.7,1.6,1.6,1.6l0,0c-0.9,0-1.6,0.7-1.6,1.6l0,0
			C199,179.2,198.3,178.5,197.5,178.5z"/>
		<path class="st1" d="M382,367.4L382,367.4c0.9,0,1.6-0.7,1.6-1.6l0,0c0,0.9,0.7,1.6,1.6,1.6l0,0c-0.9,0-1.6,0.7-1.6,1.6l0,0
			C383.5,368.1,382.8,367.4,382,367.4z"/>
		<path class="st1" d="M172.2,354.8L172.2,354.8c0.9,0,1.6-0.7,1.6-1.6l0,0c0,0.9,0.7,1.6,1.6,1.6l0,0c-0.9,0-1.6,0.7-1.6,1.6l0,0
			C173.7,355.5,173,354.8,172.2,354.8z"/>
		<path class="st1" d="M371.3,90.2L371.3,90.2c0.4,0,0.7-0.3,0.7-0.7l0,0c0,0.4,0.3,0.7,0.7,0.7l0,0c-0.4,0-0.7,0.3-0.7,0.7l0,0
			C372,90.5,371.7,90.2,371.3,90.2z"/>
		<path class="st1" d="M216.5,258.1L216.5,258.1c0.4,0,0.7-0.3,0.7-0.7l0,0c0,0.4,0.3,0.7,0.7,0.7l0,0c-0.4,0-0.7,0.3-0.7,0.7l0,0
			C217.2,258.4,216.8,258.1,216.5,258.1z"/>
		<path class="st1" d="M609.7,337L609.7,337c0.4,0,0.7-0.3,0.7-0.7l0,0c0,0.4,0.3,0.7,0.7,0.7l0,0c-0.4,0-0.7,0.3-0.7,0.7l0,0
			C610.4,337.3,610.1,337,609.7,337z"/>
		<path class="st1" d="M170.2,280.4L170.2,280.4c0.4,0,0.7-0.3,0.7-0.7l0,0c0,0.4,0.3,0.7,0.7,0.7l0,0c-0.4,0-0.7,0.3-0.7,0.7l0,0
			C170.9,280.7,170.6,280.4,170.2,280.4z"/>
		<path class="st1" d="M367.8,318.4L367.8,318.4c0.4,0,0.7-0.3,0.7-0.7l0,0c0,0.4,0.3,0.7,0.7,0.7l0,0c-0.4,0-0.7,0.3-0.7,0.7l0,0
			C368.5,318.7,368.2,318.4,367.8,318.4z"/>
		<path class="st1" d="M311.3,233.7L311.3,233.7c0.6,0,1.1-0.5,1.1-1.1l0,0c0,0.6,0.5,1.1,1.1,1.1l0,0c-0.6,0-1.1,0.5-1.1,1.1l0,0
			C312.4,234.2,311.9,233.7,311.3,233.7z"/>
		<path class="st1" d="M415.9,268.9L415.9,268.9c0.6,0,1.1-0.5,1.1-1.1l0,0c0,0.6,0.5,1.1,1.1,1.1l0,0c-0.6,0-1.1,0.5-1.1,1.1l0,0
			C417.1,269.4,416.6,268.9,415.9,268.9z"/>
		<path class="st1" d="M341.4,296.9L341.4,296.9c0.6,0,1.1-0.5,1.1-1.1l0,0c0,0.6,0.5,1.1,1.1,1.1l0,0c-0.6,0-1.1,0.5-1.1,1.1l0,0
			C342.5,297.4,342,296.9,341.4,296.9z"/>
		<path class="st1" d="M286.5,237.1L286.5,237.1c0.6,0,1.1-0.5,1.1-1.1l0,0c0,0.6,0.5,1.1,1.1,1.1l0,0c-0.6,0-1.1,0.5-1.1,1.1l0,0
			C287.6,237.6,287.1,237.1,286.5,237.1z"/>
		<path class="st1" d="M217.5,175.1L217.5,175.1c0.6,0,1.1-0.5,1.1-1.1l0,0c0,0.6,0.5,1.1,1.1,1.1l0,0c-0.6,0-1.1,0.5-1.1,1.1l0,0
			C218.7,175.6,218.2,175.1,217.5,175.1z"/>
		<path class="st1" d="M246.5,403.8L246.5,403.8c0,0.9,0.7,1.6,1.6,1.6l0,0c-0.9,0-1.6,0.7-1.6,1.6l0,0c0-0.9-0.7-1.6-1.6-1.6l0,0
			C245.8,405.4,246.5,404.7,246.5,403.8z"/>
		<path class="st1" d="M300.9,399.4L300.9,399.4c0,0.9,0.7,1.6,1.6,1.6l0,0c-0.9,0-1.6,0.7-1.6,1.6l0,0c0-0.9-0.7-1.6-1.6-1.6l0,0
			C300.2,400.9,300.9,400.2,300.9,399.4z"/>
		<path class="st1" d="M238.9,396.2L238.9,396.2c0,0.4,0.3,0.7,0.7,0.7l0,0c-0.4,0-0.7,0.3-0.7,0.7l0,0c0-0.4-0.3-0.7-0.7-0.7l0,0
			C238.6,396.8,238.9,396.5,238.9,396.2z"/>
		<path class="st1" d="M376.7,369.6L376.7,369.6c0,0.4,0.3,0.7,0.7,0.7l0,0c-0.4,0-0.7,0.3-0.7,0.7l0,0c0-0.4-0.3-0.7-0.7-0.7l0,0
			C376.4,370.3,376.7,370,376.7,369.6z"/>
		<path class="st1" d="M347.5,395.5L347.5,395.5c0,0.4,0.3,0.7,0.7,0.7l0,0c-0.4,0-0.7,0.3-0.7,0.7l0,0c0-0.4-0.3-0.7-0.7-0.7l0,0
			C347.2,396.2,347.5,395.8,347.5,395.5z"/>
		<path class="st1" d="M247.4,393L247.4,393c0,0.6,0.5,1.1,1.1,1.1l0,0c-0.6,0-1.1,0.5-1.1,1.1l0,0c0-0.6-0.5-1.1-1.1-1.1l0,0
			C246.9,394.1,247.4,393.6,247.4,393z"/>
		<path class="st1" d="M614.4,308L614.4,308c0,0.6,0.5,1.1,1.1,1.1l0,0c-0.6,0-1.1,0.5-1.1,1.1l0,0c0-0.6-0.5-1.1-1.1-1.1l0,0
			C613.9,309.1,614.4,308.6,614.4,308z"/>
		<path class="st1" d="M372.4,405.9L372.4,405.9c0,0.6,0.5,1.1,1.1,1.1l0,0c-0.6,0-1.1,0.5-1.1,1.1l0,0c0-0.6-0.5-1.1-1.1-1.1l0,0
			C371.9,407,372.4,406.5,372.4,405.9z"/>
		<path class="st1" d="M192.1,431.1L192.1,431.1c0,0.6,0.5,1.1,1.1,1.1l0,0c-0.6,0-1.1,0.5-1.1,1.1l0,0c0-0.6-0.5-1.1-1.1-1.1l0,0
			C191.6,432.2,192.1,431.7,192.1,431.1z"/>
		<path class="st1" d="M285.4,263.2L285.4,263.2c0,0.6,0.5,1.1,1.1,1.1l0,0c-0.6,0-1.1,0.5-1.1,1.1l0,0c0-0.6-0.5-1.1-1.1-1.1l0,0
			C284.9,264.3,285.4,263.8,285.4,263.2z"/>
		<path class="st1" d="M159.4,265.8L159.4,265.8c0-0.9-0.7-1.6-1.6-1.6l0,0c0.9,0,1.6-0.7,1.6-1.6l0,0c0,0.9,0.7,1.6,1.6,1.6l0,0
			C160.1,264.3,159.4,265,159.4,265.8z"/>
		<path class="st1" d="M200.5,417.6L200.5,417.6c0-0.9-0.7-1.6-1.6-1.6l0,0c0.9,0,1.6-0.7,1.6-1.6l0,0c0,0.9,0.7,1.6,1.6,1.6l0,0
			C201.2,416,200.5,416.7,200.5,417.6z"/>
		<path class="st1" d="M283.5,464.6L283.5,464.6c0-0.9-0.7-1.6-1.6-1.6l0,0c0.9,0,1.6-0.7,1.6-1.6l0,0c0,0.9,0.7,1.6,1.6,1.6l0,0
			C284.2,463.1,283.5,463.8,283.5,464.6z"/>
		<path class="st1" d="M280.5,315L280.5,315c0-0.9-0.7-1.6-1.6-1.6l0,0c0.9,0,1.6-0.7,1.6-1.6l0,0c0,0.9,0.7,1.6,1.6,1.6l0,0
			C281.2,313.5,280.5,314.2,280.5,315z"/>
		<path class="st1" d="M229.1,333L229.1,333c0-0.9-0.7-1.6-1.6-1.6l0,0c0.9,0,1.6-0.7,1.6-1.6l0,0c0,0.9,0.7,1.6,1.6,1.6l0,0
			C229.8,331.4,229.1,332.1,229.1,333z"/>
		<path class="st1" d="M232.5,377.7L232.5,377.7c0-0.9-0.7-1.6-1.6-1.6l0,0c0.9,0,1.6-0.7,1.6-1.6l0,0c0,0.9,0.7,1.6,1.6,1.6l0,0
			C233.2,376.1,232.5,376.8,232.5,377.7z"/>
		<path class="st1" d="M350.7,365.1L350.7,365.1c0-0.9-0.7-1.6-1.6-1.6l0,0c0.9,0,1.6-0.7,1.6-1.6l0,0c0,0.9,0.7,1.6,1.6,1.6l0,0
			C351.4,363.5,350.7,364.2,350.7,365.1z"/>
		<path class="st1" d="M334,413.6L334,413.6c0-0.9-0.7-1.6-1.6-1.6l0,0c0.9,0,1.6-0.7,1.6-1.6l0,0c0,0.9,0.7,1.6,1.6,1.6l0,0
			C334.7,412,334,412.7,334,413.6z"/>
		<path class="st1" d="M152.1,277.2L152.1,277.2c0-0.4-0.3-0.7-0.7-0.7l0,0c0.4,0,0.7-0.3,0.7-0.7l0,0c0,0.4,0.3,0.7,0.7,0.7l0,0
			C152.4,276.5,152.1,276.8,152.1,277.2z"/>
		<path class="st1" d="M259.8,369.1L259.8,369.1c0-0.4-0.3-0.7-0.7-0.7l0,0c0.4,0,0.7-0.3,0.7-0.7l0,0c0,0.4,0.3,0.7,0.7,0.7l0,0
			C260.1,368.4,259.8,368.7,259.8,369.1z"/>
		<path class="st1" d="M276.9,326.8L276.9,326.8c0-0.4-0.3-0.7-0.7-0.7l0,0c0.4,0,0.7-0.3,0.7-0.7l0,0c0,0.4,0.3,0.7,0.7,0.7l0,0
			C277.2,326.1,276.9,326.5,276.9,326.8z"/>
		<path class="st1" d="M282.1,415.5L282.1,415.5c0-0.4-0.3-0.7-0.7-0.7l0,0c0.4,0,0.7-0.3,0.7-0.7l0,0c0,0.4,0.3,0.7,0.7,0.7l0,0
			C282.4,414.9,282.1,415.2,282.1,415.5z"/>
		<path class="st1" d="M157,338.2L157,338.2c0-0.4-0.3-0.7-0.7-0.7l0,0c0.4,0,0.7-0.3,0.7-0.7l0,0c0,0.4,0.3,0.7,0.7,0.7l0,0
			C157.3,337.5,157,337.8,157,338.2z"/>
		<path class="st1" d="M143.6,280.3L143.6,280.3c0-0.6-0.5-1.1-1.1-1.1l0,0c0.6,0,1.1-0.5,1.1-1.1l0,0c0,0.6,0.5,1.1,1.1,1.1l0,0
			C144.1,279.2,143.6,279.7,143.6,280.3z"/>
		<path class="st1" d="M185,267.6L185,267.6c0-0.6-0.5-1.1-1.1-1.1l0,0c0.6,0,1.1-0.5,1.1-1.1l0,0c0,0.6,0.5,1.1,1.1,1.1l0,0
			C185.5,266.5,185,267,185,267.6z"/>
		<path class="st1" d="M266.9,346L266.9,346c0-0.6-0.5-1.1-1.1-1.1l0,0c0.6,0,1.1-0.5,1.1-1.1l0,0c0,0.6,0.5,1.1,1.1,1.1l0,0
			C267.4,344.9,266.9,345.4,266.9,346z"/>
		<path class="st1" d="M135.6,364.7L135.6,364.7c0-0.6-0.5-1.1-1.1-1.1l0,0c0.6,0,1.1-0.5,1.1-1.1l0,0c0,0.6,0.5,1.1,1.1,1.1l0,0
			C136.1,363.6,135.6,364.1,135.6,364.7z"/>
		<path class="st1" d="M238.9,298.8L238.9,298.8c0-0.6-0.5-1.1-1.1-1.1l0,0c0.6,0,1.1-0.5,1.1-1.1l0,0c0,0.6,0.5,1.1,1.1,1.1l0,0
			C239.4,297.7,238.9,298.2,238.9,298.8z"/>
		<path class="st1" d="M229.1,357.6L229.1,357.6c0-0.6-0.5-1.1-1.1-1.1l0,0c0.6,0,1.1-0.5,1.1-1.1l0,0c0,0.6,0.5,1.1,1.1,1.1l0,0
			C229.6,356.4,229.1,356.9,229.1,357.6z"/>
		<path class="st1" d="M413.8,35.2L413.8,35.2c0-0.9-0.7-1.6-1.6-1.6l0,0c0.9,0,1.6-0.7,1.6-1.6l0,0c0,0.9,0.7,1.6,1.6,1.6l0,0
			C414.5,33.7,413.8,34.4,413.8,35.2z"/>
		<path class="st1" d="M292.4,235L292.4,235c0-0.9-0.7-1.6-1.6-1.6l0,0c0.9,0,1.6-0.7,1.6-1.6l0,0c0,0.9,0.7,1.6,1.6,1.6l0,0
			C293.1,233.4,292.4,234.1,292.4,235z"/>
		<path class="st1" d="M516.4,29L516.4,29c0-0.4-0.3-0.7-0.7-0.7l0,0c0.4,0,0.7-0.3,0.7-0.7l0,0c0,0.4,0.3,0.7,0.7,0.7l0,0
			C516.7,28.3,516.4,28.6,516.4,29z"/>
		<path class="st1" d="M202.4,187.8L202.4,187.8c0-0.4-0.3-0.7-0.7-0.7l0,0c0.4,0,0.7-0.3,0.7-0.7l0,0c0,0.4,0.3,0.7,0.7,0.7l0,0
			C202.7,187.1,202.4,187.4,202.4,187.8z"/>
		<path class="st1" d="M231.5,161.9L231.5,161.9c0-0.4-0.3-0.7-0.7-0.7l0,0c0.4,0,0.7-0.3,0.7-0.7l0,0c0,0.4,0.3,0.7,0.7,0.7l0,0
			C231.8,161.2,231.5,161.5,231.5,161.9z"/>
		<path class="st1" d="M474.4,61L474.4,61c0-0.6-0.5-1.1-1.1-1.1l0,0c0.6,0,1.1-0.5,1.1-1.1l0,0c0,0.6,0.5,1.1,1.1,1.1l0,0
			C474.9,59.9,474.4,60.4,474.4,61z"/>
		<path class="st1" d="M170.9,381.9L170.9,381.9c0-0.6-0.5-1.1-1.1-1.1l0,0c0.6,0,1.1-0.5,1.1-1.1l0,0c0,0.6,0.5,1.1,1.1,1.1l0,0
			C171.4,380.8,170.9,381.3,170.9,381.9z"/>
		<path class="st1" d="M309,197.3L309,197.3c0-0.6-0.5-1.1-1.1-1.1l0,0c0.6,0,1.1-0.5,1.1-1.1l0,0c0,0.6,0.5,1.1,1.1,1.1l0,0
			C309.5,196.2,309,196.7,309,197.3z"/>
		<path class="st1" d="M263.9,253.1L263.9,253.1c0-0.6-0.5-1.1-1.1-1.1l0,0c0.6,0,1.1-0.5,1.1-1.1l0,0c0,0.6,0.5,1.1,1.1,1.1l0,0
			C264.4,252,263.9,252.5,263.9,253.1z"/>
		<path class="st1" d="M177,403.6L177,403.6c0-0.6-0.5-1.1-1.1-1.1l0,0c0.6,0,1.1-0.5,1.1-1.1l0,0c0,0.6,0.5,1.1,1.1,1.1l0,0
			C177.5,402.5,177,403,177,403.6z"/>
		<path class="st1" d="M430.1,343.7L430.1,343.7c0,0.9,0.7,1.6,1.6,1.6l0,0c-0.9,0-1.6,0.7-1.6,1.6l0,0c0-0.9-0.7-1.6-1.6-1.6l0,0
			C429.4,345.3,430.1,344.6,430.1,343.7z"/>
		<path class="st1" d="M309,294.5L309,294.5c0,0.9,0.7,1.6,1.6,1.6l0,0c-0.9,0-1.6,0.7-1.6,1.6l0,0c0-0.9-0.7-1.6-1.6-1.6l0,0
			C308.3,296.1,309,295.4,309,294.5z"/>
		<path class="st1" d="M452.4,270.2L452.4,270.2c0,0.9,0.7,1.6,1.6,1.6l0,0c-0.9,0-1.6,0.7-1.6,1.6l0,0c0-0.9-0.7-1.6-1.6-1.6l0,0
			C451.6,271.7,452.4,271,452.4,270.2z"/>
		<path class="st1" d="M413.8,79.8L413.8,79.8c0,0.9,0.7,1.6,1.6,1.6l0,0c-0.9,0-1.6,0.7-1.6,1.6l0,0c0-0.9-0.7-1.6-1.6-1.6l0,0
			C413.1,81.3,413.8,80.6,413.8,79.8z"/>
		<path class="st1" d="M137.1,336.5L137.1,336.5c0,0.9,0.7,1.6,1.6,1.6l0,0c-0.9,0-1.6,0.7-1.6,1.6l0,0c0-0.9-0.7-1.6-1.6-1.6l0,0
			C136.4,338.1,137.1,337.4,137.1,336.5z"/>
		<path class="st1" d="M238.8,244.4L238.8,244.4c0,0.9,0.7,1.6,1.6,1.6l0,0c-0.9,0-1.6,0.7-1.6,1.6l0,0c0-0.9-0.7-1.6-1.6-1.6l0,0
			C238.1,246,238.8,245.3,238.8,244.4z"/>
		<path class="st1" d="M347.5,189.6L347.5,189.6c0,0.9,0.7,1.6,1.6,1.6l0,0c-0.9,0-1.6,0.7-1.6,1.6l0,0c0-0.9-0.7-1.6-1.6-1.6l0,0
			C346.8,191.2,347.5,190.5,347.5,189.6z"/>
		<path class="st1" d="M594.9,358.4L594.9,358.4c0,0.4,0.3,0.7,0.7,0.7l0,0c-0.4,0-0.7,0.3-0.7,0.7l0,0c0-0.4-0.3-0.7-0.7-0.7l0,0
			C594.6,359.1,594.9,358.8,594.9,358.4z"/>
		<path class="st1" d="M386.5,88.4L386.5,88.4c0,0.4,0.3,0.7,0.7,0.7l0,0c-0.4,0-0.7,0.3-0.7,0.7l0,0c0-0.4-0.3-0.7-0.7-0.7l0,0
			C386.2,89.1,386.5,88.8,386.5,88.4z"/>
		<path class="st1" d="M312.5,282.7L312.5,282.7c0,0.4,0.3,0.7,0.7,0.7l0,0c-0.4,0-0.7,0.3-0.7,0.7l0,0c0-0.4-0.3-0.7-0.7-0.7l0,0
			C312.2,283.4,312.5,283.1,312.5,282.7z"/>
		<path class="st1" d="M364.3,41.9L364.3,41.9c0,0.4,0.3,0.7,0.7,0.7l0,0c-0.4,0-0.7,0.3-0.7,0.7l0,0c0-0.4-0.3-0.7-0.7-0.7l0,0
			C364,42.6,364.3,42.3,364.3,41.9z"/>
		<path class="st1" d="M355.2,293.7L355.2,293.7c0,0.4,0.3,0.7,0.7,0.7l0,0c-0.4,0-0.7,0.3-0.7,0.7l0,0c0-0.4-0.3-0.7-0.7-0.7l0,0
			C354.9,294.3,355.2,294,355.2,293.7z"/>
		<path class="st1" d="M445.9,329.3L445.9,329.3c0,0.6,0.5,1.1,1.1,1.1l0,0c-0.6,0-1.1,0.5-1.1,1.1l0,0c0-0.6-0.5-1.1-1.1-1.1l0,0
			C445.4,330.4,445.9,329.9,445.9,329.3z"/>
		<path class="st1" d="M549.8,74.1L549.8,74.1c0,0.6,0.5,1.1,1.1,1.1l0,0c-0.6,0-1.1,0.5-1.1,1.1l0,0c0-0.6-0.5-1.1-1.1-1.1l0,0
			C549.3,75.2,549.8,74.7,549.8,74.1z"/>
		<path class="st1" d="M284.6,273.5L284.6,273.5c0,0.6,0.5,1.1,1.1,1.1l0,0c-0.6,0-1.1,0.5-1.1,1.1l0,0c0-0.6-0.5-1.1-1.1-1.1l0,0
			C284.1,274.6,284.6,274.1,284.6,273.5z"/>
		<path class="st1" d="M442.6,304.4L442.6,304.4c0,0.6,0.5,1.1,1.1,1.1l0,0c-0.6,0-1.1,0.5-1.1,1.1l0,0c0-0.6-0.5-1.1-1.1-1.1l0,0
			C442.1,305.5,442.6,305,442.6,304.4z"/>
		<path class="st1" d="M417.2,99.9L417.2,99.9c0,0.6,0.5,1.1,1.1,1.1l0,0c-0.6,0-1.1,0.5-1.1,1.1l0,0c0-0.6-0.5-1.1-1.1-1.1l0,0
			C416.7,101,417.2,100.5,417.2,99.9z"/>
		<path class="st1" d="M370.5,198.4L370.5,198.4c0-0.9-0.7-1.6-1.6-1.6l0,0c0.9,0,1.6-0.7,1.6-1.6l0,0c0,0.9,0.7,1.6,1.6,1.6l0,0
			C371.2,196.9,370.5,197.6,370.5,198.4z"/>
		<path class="st1" d="M234.1,434.9L234.1,434.9c0-0.9-0.7-1.6-1.6-1.6l0,0c0.9,0,1.6-0.7,1.6-1.6l0,0c0,0.9,0.7,1.6,1.6,1.6l0,0
			C234.8,433.3,234.1,434,234.1,434.9z"/>
		<path class="st1" d="M269.6,449.9L269.6,449.9c0-0.9-0.7-1.6-1.6-1.6l0,0c0.9,0,1.6-0.7,1.6-1.6l0,0c0,0.9,0.7,1.6,1.6,1.6l0,0
			C270.3,448.3,269.6,449,269.6,449.9z"/>
		<path class="st1" d="M217.5,181.9L217.5,181.9c0-0.9-0.7-1.6-1.6-1.6l0,0c0.9,0,1.6-0.7,1.6-1.6l0,0c0,0.9,0.7,1.6,1.6,1.6l0,0
			C218.2,180.3,217.5,181,217.5,181.9z"/>
		<path class="st1" d="M286.1,212.5L286.1,212.5c0-0.4-0.3-0.7-0.7-0.7l0,0c0.4,0,0.7-0.3,0.7-0.7l0,0c0,0.4,0.3,0.7,0.7,0.7l0,0
			C286.4,211.8,286.1,212.1,286.1,212.5z"/>
		<path class="st1" d="M137.9,186.8L137.9,186.8c0-0.4-0.3-0.7-0.7-0.7l0,0c0.4,0,0.7-0.3,0.7-0.7l0,0c0,0.4,0.3,0.7,0.7,0.7l0,0
			C138.2,186.2,137.9,186.5,137.9,186.8z"/>
		<path class="st1" d="M167.1,161L167.1,161c0-0.4-0.3-0.7-0.7-0.7l0,0c0.4,0,0.7-0.3,0.7-0.7l0,0c0,0.4,0.3,0.7,0.7,0.7l0,0
			C167.4,160.3,167.1,160.6,167.1,161z"/>
		<path class="st1" d="M277.6,215.6L277.6,215.6c0-0.6-0.5-1.1-1.1-1.1l0,0c0.6,0,1.1-0.5,1.1-1.1l0,0c0,0.6,0.5,1.1,1.1,1.1l0,0
			C278.1,214.5,277.6,215,277.6,215.6z"/>
		<path class="st1" d="M244.6,196.4L244.6,196.4c0-0.6-0.5-1.1-1.1-1.1l0,0c0.6,0,1.1-0.5,1.1-1.1l0,0c0,0.6,0.5,1.1,1.1,1.1l0,0
			C245.1,195.3,244.6,195.8,244.6,196.4z"/>
		<path class="st1" d="M199.4,252.2L199.4,252.2c0-0.6-0.5-1.1-1.1-1.1l0,0c0.6,0,1.1-0.5,1.1-1.1l0,0c0,0.6,0.5,1.1,1.1,1.1l0,0
			C199.9,251.1,199.4,251.6,199.4,252.2z"/>
		<path class="st1" d="M239.6,345.5L239.6,345.5c0-0.6-0.5-1.1-1.1-1.1l0,0c0.6,0,1.1-0.5,1.1-1.1l0,0c0,0.6,0.5,1.1,1.1,1.1l0,0
			C240.1,344.4,239.6,344.9,239.6,345.5z"/>
		<path class="st1" d="M191,265.7L191,265.7c0,0.9,0.7,1.6,1.6,1.6l0,0c-0.9,0-1.6,0.7-1.6,1.6l0,0c0-0.9-0.7-1.6-1.6-1.6l0,0
			C190.3,267.2,191,266.5,191,265.7z"/>
		<path class="st1" d="M299.8,337.4L299.8,337.4c0,0.9,0.7,1.6,1.6,1.6l0,0c-0.9,0-1.6,0.7-1.6,1.6l0,0c0-0.9-0.7-1.6-1.6-1.6l0,0
			C299.1,339,299.8,338.3,299.8,337.4z"/>
		<path class="st1" d="M241.9,306.9L241.9,306.9c0,0.9,0.7,1.6,1.6,1.6l0,0c-0.9,0-1.6,0.7-1.6,1.6l0,0c0-0.9-0.7-1.6-1.6-1.6l0,0
			C241.2,308.5,241.9,307.8,241.9,306.9z"/>
		<path class="st1" d="M163.9,191.4L163.9,191.4c0,0.9,0.7,1.6,1.6,1.6l0,0c-0.9,0-1.6,0.7-1.6,1.6l0,0c0-0.9-0.7-1.6-1.6-1.6l0,0
			C163.2,192.9,163.9,192.2,163.9,191.4z"/>
		<path class="st1" d="M283,188.7L283,188.7c0,0.9,0.7,1.6,1.6,1.6l0,0c-0.9,0-1.6,0.7-1.6,1.6l0,0c0-0.9-0.7-1.6-1.6-1.6l0,0
			C282.3,190.3,283,189.5,283,188.7z"/>
		<path class="st1" d="M372.9,331.5L372.9,331.5c0,0.4,0.3,0.7,0.7,0.7l0,0c-0.4,0-0.7,0.3-0.7,0.7l0,0c0-0.4-0.3-0.7-0.7-0.7l0,0
			C372.6,332.1,372.9,331.8,372.9,331.5z"/>
		<path class="st1" d="M265.2,239.5L265.2,239.5c0,0.4,0.3,0.7,0.7,0.7l0,0c-0.4,0-0.7,0.3-0.7,0.7l0,0c0-0.4-0.3-0.7-0.7-0.7l0,0
			C264.9,240.2,265.2,239.9,265.2,239.5z"/>
		<path class="st1" d="M248.1,281.8L248.1,281.8c0,0.4,0.3,0.7,0.7,0.7l0,0c-0.4,0-0.7,0.3-0.7,0.7l0,0c0-0.4-0.3-0.7-0.7-0.7l0,0
			C247.8,282.5,248.1,282.2,248.1,281.8z"/>
		<path class="st1" d="M334.9,186.7L334.9,186.7c0,0.4,0.3,0.7,0.7,0.7l0,0c-0.4,0-0.7,0.3-0.7,0.7l0,0c0-0.4-0.3-0.7-0.7-0.7l0,0
			C334.6,187.4,334.9,187.1,334.9,186.7z"/>
		<path class="st1" d="M290.7,292.7L290.7,292.7c0,0.4,0.3,0.7,0.7,0.7l0,0c-0.4,0-0.7,0.3-0.7,0.7l0,0c0-0.4-0.3-0.7-0.7-0.7l0,0
			C290.4,293.4,290.7,293.1,290.7,292.7z"/>
		<path class="st1" d="M381.4,328.3L381.4,328.3c0,0.6,0.5,1.1,1.1,1.1l0,0c-0.6,0-1.1,0.5-1.1,1.1l0,0c0-0.6-0.5-1.1-1.1-1.1l0,0
			C380.9,329.5,381.4,329,381.4,328.3z"/>
		<path class="st1" d="M206.5,415.7L206.5,415.7c0,0.6,0.5,1.1,1.1,1.1l0,0c-0.6,0-1.1,0.5-1.1,1.1l0,0c0-0.6-0.5-1.1-1.1-1.1l0,0
			C206.1,416.8,206.5,416.3,206.5,415.7z"/>
		<path class="st1" d="M221.2,438.8L221.2,438.8c0,0.6,0.5,1.1,1.1,1.1l0,0c-0.6,0-1.1,0.5-1.1,1.1l0,0c0-0.6-0.5-1.1-1.1-1.1l0,0
			C220.7,439.9,221.2,439.4,221.2,438.8z"/>
		<path class="st1" d="M409.9,198.2L409.9,198.2c0,0.6,0.5,1.1,1.1,1.1l0,0c-0.6,0-1.1,0.5-1.1,1.1l0,0c0-0.6-0.5-1.1-1.1-1.1l0,0
			C409.4,199.4,409.9,198.9,409.9,198.2z"/>
		<path class="st1" d="M220.1,272.6L220.1,272.6c0,0.6,0.5,1.1,1.1,1.1l0,0c-0.6,0-1.1,0.5-1.1,1.1l0,0c0-0.6-0.5-1.1-1.1-1.1l0,0
			C219.6,273.7,220.1,273.2,220.1,272.6z"/>
		<path class="st1" d="M378.1,303.4L378.1,303.4c0,0.6,0.5,1.1,1.1,1.1l0,0c-0.6,0-1.1,0.5-1.1,1.1l0,0c0-0.6-0.5-1.1-1.1-1.1l0,0
			C377.6,304.5,378.1,304,378.1,303.4z"/>
		<path class="st1" d="M295.9,251.1L295.9,251.1c0,0.6,0.5,1.1,1.1,1.1l0,0c-0.6,0-1.1,0.5-1.1,1.1l0,0c0-0.6-0.5-1.1-1.1-1.1l0,0
			C295.4,252.2,295.9,251.7,295.9,251.1z"/>
		<path class="st1" d="M509.7,394.9L509.7,394.9c0.9,0,1.6-0.7,1.6-1.6l0,0c0,0.9,0.7,1.6,1.6,1.6l0,0c-0.9,0-1.6,0.7-1.6,1.6l0,0
			C511.2,395.6,510.5,394.9,509.7,394.9z"/>
		<path class="st1" d="M292,307.3L292,307.3c0.9,0,1.6-0.7,1.6-1.6l0,0c0,0.9,0.7,1.6,1.6,1.6l0,0c-0.9,0-1.6,0.7-1.6,1.6l0,0
			C293.5,308,292.8,307.3,292,307.3z"/>
		<path class="st1" d="M443.1,501.6L443.1,501.6c0.4,0,0.7-0.3,0.7-0.7l0,0c0,0.4,0.3,0.7,0.7,0.7l0,0c-0.4,0-0.7,0.3-0.7,0.7l0,0
			C443.8,501.9,443.5,501.6,443.1,501.6z"/>
		<path class="st1" d="M371.3,103.4L371.3,103.4c0.4,0,0.7-0.3,0.7-0.7l0,0c0,0.4,0.3,0.7,0.7,0.7l0,0c-0.4,0-0.7,0.3-0.7,0.7l0,0
			C372,103.7,371.7,103.4,371.3,103.4z"/>
		<path class="st1" d="M432.2,278.3L432.2,278.3c0.4,0,0.7-0.3,0.7-0.7l0,0c0,0.4,0.3,0.7,0.7,0.7l0,0c-0.4,0-0.7,0.3-0.7,0.7l0,0
			C432.9,278.6,432.6,278.3,432.2,278.3z"/>
		<path class="st1" d="M429.8,378.8L429.8,378.8c0.6,0,1.1-0.5,1.1-1.1l0,0c0,0.6,0.5,1.1,1.1,1.1l0,0c-0.6,0-1.1,0.5-1.1,1.1l0,0
			C430.9,379.3,430.4,378.8,429.8,378.8z"/>
		<path class="st1" d="M182.7,121L182.7,121c0.6,0,1.1-0.5,1.1-1.1l0,0c0,0.6,0.5,1.1,1.1,1.1l0,0c-0.6,0-1.1,0.5-1.1,1.1l0,0
			C183.9,121.5,183.4,121,182.7,121z"/>
		<path class="st1" d="M407.5,107.6L407.5,107.6c0.6,0,1.1-0.5,1.1-1.1l0,0c0,0.6,0.5,1.1,1.1,1.1l0,0c-0.6,0-1.1,0.5-1.1,1.1l0,0
			C408.6,108.1,408.1,107.6,407.5,107.6z"/>
		<path class="st1" d="M393.3,300.3L393.3,300.3c0.6,0,1.1-0.5,1.1-1.1l0,0c0,0.6,0.5,1.1,1.1,1.1l0,0c-0.6,0-1.1,0.5-1.1,1.1l0,0
			C394.4,300.8,394,300.3,393.3,300.3z"/>
		<path class="st1" d="M202,254.8L202,254.8c0.6,0,1.1-0.5,1.1-1.1l0,0c0,0.6,0.5,1.1,1.1,1.1l0,0c-0.6,0-1.1,0.5-1.1,1.1l0,0
			C203.1,255.3,202.6,254.8,202,254.8z"/>
		<path class="st1" d="M163.2,449.5L163.2,449.5c-0.9,0-1.6,0.7-1.6,1.6l0,0c0-0.9-0.7-1.6-1.6-1.6l0,0c0.9,0,1.6-0.7,1.6-1.6l0,0
			C161.6,448.8,162.3,449.5,163.2,449.5z"/>
		<path class="st1" d="M239.8,453.1L239.8,453.1c-0.9,0-1.6,0.7-1.6,1.6l0,0c0-0.9-0.7-1.6-1.6-1.6l0,0c0.9,0,1.6-0.7,1.6-1.6l0,0
			C238.2,452.4,238.9,453.1,239.8,453.1z"/>
		<path class="st1" d="M287.9,298.3L287.9,298.3c-0.9,0-1.6,0.7-1.6,1.6l0,0c0-0.9-0.7-1.6-1.6-1.6l0,0c0.9,0,1.6-0.7,1.6-1.6l0,0
			C286.4,297.6,287.1,298.3,287.9,298.3z"/>
		<path class="st1" d="M352.1,345.6L352.1,345.6c-0.9,0-1.6,0.7-1.6,1.6l0,0c0-0.9-0.7-1.6-1.6-1.6l0,0c0.9,0,1.6-0.7,1.6-1.6l0,0
			C350.5,344.9,351.2,345.6,352.1,345.6z"/>
		<path class="st1" d="M370,397.1L370,397.1c-0.9,0-1.6,0.7-1.6,1.6l0,0c0-0.9-0.7-1.6-1.6-1.6l0,0c0.9,0,1.6-0.7,1.6-1.6l0,0
			C368.4,396.4,369.1,397.1,370,397.1z"/>
		<path class="st1" d="M587.4,447.4L587.4,447.4c-0.9,0-1.6,0.7-1.6,1.6l0,0c0-0.9-0.7-1.6-1.6-1.6l0,0c0.9,0,1.6-0.7,1.6-1.6l0,0
			C585.8,446.7,586.5,447.4,587.4,447.4z"/>
		<path class="st1" d="M450.3,291.9L450.3,291.9c-0.9,0-1.6,0.7-1.6,1.6l0,0c0-0.9-0.7-1.6-1.6-1.6l0,0c0.9,0,1.6-0.7,1.6-1.6l0,0
			C448.7,291.2,449.4,291.9,450.3,291.9z"/>
		<path class="st1" d="M174.5,456.8L174.5,456.8c-0.4,0-0.7,0.3-0.7,0.7l0,0c0-0.4-0.3-0.7-0.7-0.7l0,0c0.4,0,0.7-0.3,0.7-0.7l0,0
			C173.8,456.5,174.1,456.8,174.5,456.8z"/>
		<path class="st1" d="M405.9,366.3L405.9,366.3c-0.4,0-0.7,0.3-0.7,0.7l0,0c0-0.4-0.3-0.7-0.7-0.7l0,0c0.4,0,0.7-0.3,0.7-0.7l0,0
			C405.3,366,405.6,366.3,405.9,366.3z"/>
		<path class="st1" d="M363.8,349.2L363.8,349.2c-0.4,0-0.7,0.3-0.7,0.7l0,0c0-0.4-0.3-0.7-0.7-0.7l0,0c0.4,0,0.7-0.3,0.7-0.7l0,0
			C363.1,348.8,363.4,349.2,363.8,349.2z"/>
		<path class="st1" d="M605.5,388.7L605.5,388.7c-0.4,0-0.7,0.3-0.7,0.7l0,0c0-0.4-0.3-0.7-0.7-0.7l0,0c0.4,0,0.7-0.3,0.7-0.7l0,0
			C604.8,388.4,605.1,388.7,605.5,388.7z"/>
		<path class="st1" d="M346.6,299.6L346.6,299.6c-0.4,0-0.7,0.3-0.7,0.7l0,0c0-0.4-0.3-0.7-0.7-0.7l0,0c0.4,0,0.7-0.3,0.7-0.7l0,0
			C345.9,299.3,346.2,299.6,346.6,299.6z"/>
		<path class="st1" d="M311.1,390.7L311.1,390.7c-0.6,0-1.1,0.5-1.1,1.1l0,0c0-0.6-0.5-1.1-1.1-1.1l0,0c0.6,0,1.1-0.5,1.1-1.1l0,0
			C310,390.2,310.5,390.7,311.1,390.7z"/>
		<path class="st1" d="M165,423.8L165,423.8c-0.6,0-1.1,0.5-1.1,1.1l0,0c0-0.6-0.5-1.1-1.1-1.1l0,0c0.6,0,1.1-0.5,1.1-1.1l0,0
			C163.8,423.3,164.3,423.8,165,423.8z"/>
		<path class="st1" d="M382.9,359.2L382.9,359.2c-0.6,0-1.1,0.5-1.1,1.1l0,0c0-0.6-0.5-1.1-1.1-1.1l0,0c0.6,0,1.1-0.5,1.1-1.1l0,0
			C381.8,358.7,382.3,359.2,382.9,359.2z"/>
		<path class="st1" d="M202.4,462L202.4,462c-0.6,0-1.1,0.5-1.1,1.1l0,0c0-0.6-0.5-1.1-1.1-1.1l0,0c0.6,0,1.1-0.5,1.1-1.1l0,0
			C201.3,461.5,201.8,462,202.4,462z"/>
		<path class="st1" d="M394.4,397.1L394.4,397.1c-0.6,0-1.1,0.5-1.1,1.1l0,0c0-0.6-0.5-1.1-1.1-1.1l0,0c0.6,0,1.1-0.5,1.1-1.1l0,0
			C393.3,396.6,393.8,397.1,394.4,397.1z"/>
		<path class="st1" d="M300.7,107.6L300.7,107.6c-0.9,0-1.6,0.7-1.6,1.6l0,0c0-0.9-0.7-1.6-1.6-1.6l0,0c0.9,0,1.6-0.7,1.6-1.6l0,0
			C299.1,106.9,299.8,107.6,300.7,107.6z"/>
		<path class="st1" d="M496.2,243.7L496.2,243.7c-0.9,0-1.6,0.7-1.6,1.6l0,0c0-0.9-0.7-1.6-1.6-1.6l0,0c0.9,0,1.6-0.7,1.6-1.6l0,0
			C494.6,243,495.3,243.7,496.2,243.7z"/>
		<path class="st1" d="M355.3,163.7L355.3,163.7c-0.4,0-0.7,0.3-0.7,0.7l0,0c0-0.4-0.3-0.7-0.7-0.7l0,0c0.4,0,0.7-0.3,0.7-0.7l0,0
			C354.6,163.4,354.9,163.7,355.3,163.7z"/>
		<path class="st1" d="M381.7,301.9L381.7,301.9c-0.4,0-0.7,0.3-0.7,0.7l0,0c0-0.4-0.3-0.7-0.7-0.7l0,0c0.4,0,0.7-0.3,0.7-0.7l0,0
			C381,301.6,381.4,301.9,381.7,301.9z"/>
		<path class="st1" d="M615.1,340.8L615.1,340.8c-0.4,0-0.7,0.3-0.7,0.7l0,0c0-0.4-0.3-0.7-0.7-0.7l0,0c0.4,0,0.7-0.3,0.7-0.7l0,0
			C614.4,340.5,614.7,340.8,615.1,340.8z"/>
		<path class="st1" d="M358.4,172.2L358.4,172.2c-0.6,0-1.1,0.5-1.1,1.1l0,0c0-0.6-0.5-1.1-1.1-1.1l0,0c0.6,0,1.1-0.5,1.1-1.1l0,0
			C357.3,171.7,357.8,172.2,358.4,172.2z"/>
		<path class="st1" d="M483.4,284.2L483.4,284.2c-0.6,0-1.1,0.5-1.1,1.1l0,0c0-0.6-0.5-1.1-1.1-1.1l0,0c0.6,0,1.1-0.5,1.1-1.1l0,0
			C482.3,283.7,482.8,284.2,483.4,284.2z"/>
		<path class="st1" d="M345.6,297.6L345.6,297.6c-0.6,0-1.1,0.5-1.1,1.1l0,0c0-0.6-0.5-1.1-1.1-1.1l0,0c0.6,0,1.1-0.5,1.1-1.1l0,0
			C344.5,297.1,345,297.6,345.6,297.6z"/>
		<path class="st1" d="M302.9,257L302.9,257c-0.6,0-1.1,0.5-1.1,1.1l0,0c0-0.6-0.5-1.1-1.1-1.1l0,0c0.6,0,1.1-0.5,1.1-1.1l0,0
			C301.8,256.5,302.3,257,302.9,257z"/>
		<path class="st1" d="M494.2,302.6L494.2,302.6c-0.6,0-1.1,0.5-1.1,1.1l0,0c0-0.6-0.5-1.1-1.1-1.1l0,0c0.6,0,1.1-0.5,1.1-1.1l0,0
			C493.1,302.1,493.6,302.6,494.2,302.6z"/>
		<path class="st1" d="M491.5,176.2L491.5,176.2c0.9,0,1.6-0.7,1.6-1.6l0,0c0,0.9,0.7,1.6,1.6,1.6l0,0c-0.9,0-1.6,0.7-1.6,1.6l0,0
			C493.1,176.9,492.4,176.2,491.5,176.2z"/>
		<path class="st1" d="M408.3,259.1L408.3,259.1c0.9,0,1.6-0.7,1.6-1.6l0,0c0,0.9,0.7,1.6,1.6,1.6l0,0c-0.9,0-1.6,0.7-1.6,1.6l0,0
			C409.9,259.8,409.2,259.1,408.3,259.1z"/>
		<path class="st1" d="M476.6,81.6L476.6,81.6c0.9,0,1.6-0.7,1.6-1.6l0,0c0,0.9,0.7,1.6,1.6,1.6l0,0c-0.9,0-1.6,0.7-1.6,1.6l0,0
			C478.2,82.3,477.5,81.6,476.6,81.6z"/>
		<path class="st1" d="M418.2,153.8L418.2,153.8c0.9,0,1.6-0.7,1.6-1.6l0,0c0,0.9,0.7,1.6,1.6,1.6l0,0c-0.9,0-1.6,0.7-1.6,1.6l0,0
			C419.8,154.5,419.1,153.8,418.2,153.8z"/>
		<path class="st1" d="M373.7,157.3L373.7,157.3c0.9,0,1.6-0.7,1.6-1.6l0,0c0,0.9,0.7,1.6,1.6,1.6l0,0c-0.9,0-1.6,0.7-1.6,1.6l0,0
			C375.2,158,374.5,157.3,373.7,157.3z"/>
		<path class="st1" d="M455.8,300.3L455.8,300.3c0.9,0,1.6-0.7,1.6-1.6l0,0c0,0.9,0.7,1.6,1.6,1.6l0,0c-0.9,0-1.6,0.7-1.6,1.6l0,0
			C457.3,301,456.6,300.3,455.8,300.3z"/>
		<path class="st1" d="M403.7,228.8L403.7,228.8c0.9,0,1.6-0.7,1.6-1.6l0,0c0,0.9,0.7,1.6,1.6,1.6l0,0c-0.9,0-1.6,0.7-1.6,1.6l0,0
			C405.3,229.5,404.6,228.8,403.7,228.8z"/>
		<path class="st1" d="M245.9,265.5L245.9,265.5c0.9,0,1.6-0.7,1.6-1.6l0,0c0,0.9,0.7,1.6,1.6,1.6l0,0c-0.9,0-1.6,0.7-1.6,1.6l0,0
			C247.5,266.2,246.8,265.5,245.9,265.5z"/>
		<path class="st1" d="M480.2,168.8L480.2,168.8c0.4,0,0.7-0.3,0.7-0.7l0,0c0,0.4,0.3,0.7,0.7,0.7l0,0c-0.4,0-0.7,0.3-0.7,0.7l0,0
			C480.9,169.1,480.6,168.8,480.2,168.8z"/>
		<path class="st1" d="M347.1,38.9L347.1,38.9c0.4,0,0.7-0.3,0.7-0.7l0,0c0,0.4,0.3,0.7,0.7,0.7l0,0c-0.4,0-0.7,0.3-0.7,0.7l0,0
			C347.8,39.2,347.5,38.9,347.1,38.9z"/>
		<path class="st1" d="M464.7,52.6L464.7,52.6c0.4,0,0.7-0.3,0.7-0.7l0,0c0,0.4,0.3,0.7,0.7,0.7l0,0c-0.4,0-0.7,0.3-0.7,0.7l0,0
			C465.4,52.9,465.1,52.6,464.7,52.6z"/>
		<path class="st1" d="M233.6,161.2L233.6,161.2c0.4,0,0.7-0.3,0.7-0.7l0,0c0,0.4,0.3,0.7,0.7,0.7l0,0c-0.4,0-0.7,0.3-0.7,0.7l0,0
			C234.2,161.5,233.9,161.2,233.6,161.2z"/>
		<path class="st1" d="M406.5,105.6L406.5,105.6c0.4,0,0.7-0.3,0.7-0.7l0,0c0,0.4,0.3,0.7,0.7,0.7l0,0c-0.4,0-0.7,0.3-0.7,0.7l0,0
			C407.2,106,406.9,105.6,406.5,105.6z"/>
		<path class="st1" d="M477.1,160.3L477.1,160.3c0.6,0,1.1-0.5,1.1-1.1l0,0c0,0.6,0.5,1.1,1.1,1.1l0,0c-0.6,0-1.1,0.5-1.1,1.1l0,0
			C478.2,160.8,477.7,160.3,477.1,160.3z"/>
		<path class="st1" d="M489.8,201.8L489.8,201.8c0.6,0,1.1-0.5,1.1-1.1l0,0c0,0.6,0.5,1.1,1.1,1.1l0,0c-0.6,0-1.1,0.5-1.1,1.1l0,0
			C490.9,202.3,490.4,201.8,489.8,201.8z"/>
		<path class="st1" d="M370.1,46.1L370.1,46.1c0.6,0,1.1-0.5,1.1-1.1l0,0c0,0.6,0.5,1.1,1.1,1.1l0,0c-0.6,0-1.1,0.5-1.1,1.1l0,0
			C371.2,46.6,370.8,46.1,370.1,46.1z"/>
		<path class="st1" d="M452.3,163.7L452.3,163.7c0.6,0,1.1-0.5,1.1-1.1l0,0c0,0.6,0.5,1.1,1.1,1.1l0,0c-0.6,0-1.1,0.5-1.1,1.1l0,0
			C453.4,164.2,452.9,163.7,452.3,163.7z"/>
		<path class="st1" d="M393.7,153.8L393.7,153.8c0.6,0,1.1-0.5,1.1-1.1l0,0c0,0.6,0.5,1.1,1.1,1.1l0,0c-0.6,0-1.1,0.5-1.1,1.1l0,0
			C394.9,154.3,394.4,153.8,393.7,153.8z"/>
		<path class="st1" d="M151,365.5L151,365.5c0,0.9,0.7,1.6,1.6,1.6l0,0c-0.9,0-1.6,0.7-1.6,1.6l0,0c0-0.9-0.7-1.6-1.6-1.6l0,0
			C150.3,367,151,366.3,151,365.5z"/>
		<path class="st1" d="M357.3,42L357.3,42c0,0.9,0.7,1.6,1.6,1.6l0,0c-0.9,0-1.6,0.7-1.6,1.6l0,0c0-0.9-0.7-1.6-1.6-1.6l0,0
			C356.6,43.6,357.3,42.9,357.3,42z"/>
		<path class="st1" d="M370.9,307.5L370.9,307.5c0,0.9,0.7,1.6,1.6,1.6l0,0c-0.9,0-1.6,0.7-1.6,1.6l0,0c0-0.9-0.7-1.6-1.6-1.6l0,0
			C370.2,309.1,370.9,308.4,370.9,307.5z"/>
		<path class="st1" d="M143.4,357.8L143.4,357.8c0,0.4,0.3,0.7,0.7,0.7l0,0c-0.4,0-0.7,0.3-0.7,0.7l0,0c0-0.4-0.3-0.7-0.7-0.7l0,0
			C143.1,358.4,143.4,358.1,143.4,357.8z"/>
		<path class="st1" d="M450.5,302.6L450.5,302.6c0,0.4,0.3,0.7,0.7,0.7l0,0c-0.4,0-0.7,0.3-0.7,0.7l0,0c0-0.4-0.3-0.7-0.7-0.7l0,0
			C450.2,303.3,450.5,303,450.5,302.6z"/>
		<path class="st1" d="M421.3,328.4L421.3,328.4c0,0.4,0.3,0.7,0.7,0.7l0,0c-0.4,0-0.7,0.3-0.7,0.7l0,0c0-0.4-0.3-0.7-0.7-0.7l0,0
			C421,329.1,421.3,328.8,421.3,328.4z"/>
		<path class="st1" d="M151.9,354.6L151.9,354.6c0,0.6,0.5,1.1,1.1,1.1l0,0c-0.6,0-1.1,0.5-1.1,1.1l0,0c0-0.6-0.5-1.1-1.1-1.1l0,0
			C151.4,355.7,151.9,355.2,151.9,354.6z"/>
		<path class="st1" d="M446.7,98.8L446.7,98.8c0,0.6,0.5,1.1,1.1,1.1l0,0c-0.6,0-1.1,0.5-1.1,1.1l0,0c0-0.6-0.5-1.1-1.1-1.1l0,0
			C446.2,99.9,446.7,99.4,446.7,98.8z"/>
		<path class="st1" d="M599.5,383.5L599.5,383.5c0,0.6,0.5,1.1,1.1,1.1l0,0c-0.6,0-1.1,0.5-1.1,1.1l0,0c0-0.6-0.5-1.1-1.1-1.1l0,0
			C599,384.6,599.5,384.1,599.5,383.5z"/>
		<path class="st1" d="M307.4,295.8L307.4,295.8c0,0.6,0.5,1.1,1.1,1.1l0,0c-0.6,0-1.1,0.5-1.1,1.1l0,0c0-0.6-0.5-1.1-1.1-1.1l0,0
			C306.9,296.9,307.4,296.4,307.4,295.8z"/>
		<path class="st1" d="M491.5,40.5L491.5,40.5c0,0.6,0.5,1.1,1.1,1.1l0,0c-0.6,0-1.1,0.5-1.1,1.1l0,0c0-0.6-0.5-1.1-1.1-1.1l0,0
			C491,41.7,491.5,41.2,491.5,40.5z"/>
		<path class="st1" d="M325.2,192.4L325.2,192.4c0-0.9-0.7-1.6-1.6-1.6l0,0c0.9,0,1.6-0.7,1.6-1.6l0,0c0,0.9,0.7,1.6,1.6,1.6l0,0
			C325.9,190.8,325.2,191.6,325.2,192.4z"/>
		<path class="st1" d="M407.8,275.9L407.8,275.9c0-0.9-0.7-1.6-1.6-1.6l0,0c0.9,0,1.6-0.7,1.6-1.6l0,0c0,0.9,0.7,1.6,1.6,1.6l0,0
			C408.5,274.3,407.8,275.1,407.8,275.9z"/>
		<path class="st1" d="M443.1,189.3L443.1,189.3c0-0.9-0.7-1.6-1.6-1.6l0,0c0.9,0,1.6-0.7,1.6-1.6l0,0c0,0.9,0.7,1.6,1.6,1.6l0,0
			C443.8,187.8,443.1,188.5,443.1,189.3z"/>
		<path class="st1" d="M210.9,272.3L210.9,272.3c0-0.9-0.7-1.6-1.6-1.6l0,0c0.9,0,1.6-0.7,1.6-1.6l0,0c0,0.9,0.7,1.6,1.6,1.6l0,0
			C211.6,270.8,210.9,271.5,210.9,272.3z"/>
		<path class="st1" d="M137,339.3L137,339.3c0-0.9-0.7-1.6-1.6-1.6l0,0c0.9,0,1.6-0.7,1.6-1.6l0,0c0,0.9,0.7,1.6,1.6,1.6l0,0
			C137.7,337.7,137,338.4,137,339.3z"/>
		<path class="st1" d="M413.8,82.6L413.8,82.6c0-0.9-0.7-1.6-1.6-1.6l0,0c0.9,0,1.6-0.7,1.6-1.6l0,0c0,0.9,0.7,1.6,1.6,1.6l0,0
			C414.5,81,413.8,81.7,413.8,82.6z"/>
		<path class="st1" d="M424.5,298.1L424.5,298.1c0-0.9-0.7-1.6-1.6-1.6l0,0c0.9,0,1.6-0.7,1.6-1.6l0,0c0,0.9,0.7,1.6,1.6,1.6l0,0
			C425.2,296.5,424.5,297.2,424.5,298.1z"/>
		<path class="st1" d="M215.4,158L215.4,158c0-0.4-0.3-0.7-0.7-0.7l0,0c0.4,0,0.7-0.3,0.7-0.7l0,0c0,0.4,0.3,0.7,0.7,0.7l0,0
			C215.8,157.3,215.4,157.6,215.4,158z"/>
		<path class="st1" d="M333.6,302.1L333.6,302.1c0-0.4-0.3-0.7-0.7-0.7l0,0c0.4,0,0.7-0.3,0.7-0.7l0,0c0,0.4,0.3,0.7,0.7,0.7l0,0
			C333.9,301.4,333.6,301.7,333.6,302.1z"/>
		<path class="st1" d="M515.9,345.4L515.9,345.4c0-0.4-0.3-0.7-0.7-0.7l0,0c0.4,0,0.7-0.3,0.7-0.7l0,0c0,0.4,0.3,0.7,0.7,0.7l0,0
			C516.3,344.7,515.9,345,515.9,345.4z"/>
		<path class="st1" d="M308.1,248.9L308.1,248.9c0-0.4-0.3-0.7-0.7-0.7l0,0c0.4,0,0.7-0.3,0.7-0.7l0,0c0,0.4,0.3,0.7,0.7,0.7l0,0
			C308.4,248.2,308.1,248.5,308.1,248.9z"/>
		<path class="st1" d="M207,161.1L207,161.1c0-0.6-0.5-1.1-1.1-1.1l0,0c0.6,0,1.1-0.5,1.1-1.1l0,0c0,0.6,0.5,1.1,1.1,1.1l0,0
			C207.4,160,207,160.5,207,161.1z"/>
		<path class="st1" d="M449.8,215.6L449.8,215.6c0-0.6-0.5-1.1-1.1-1.1l0,0c0.6,0,1.1-0.5,1.1-1.1l0,0c0,0.6,0.5,1.1,1.1,1.1l0,0
			C450.3,214.5,449.8,215,449.8,215.6z"/>
		<path class="st1" d="M210.3,186L210.3,186c0-0.6-0.5-1.1-1.1-1.1l0,0c0.6,0,1.1-0.5,1.1-1.1l0,0c0,0.6,0.5,1.1,1.1,1.1l0,0
			C210.8,184.9,210.3,185.4,210.3,186z"/>
		<path class="st1" d="M210.9,296.9L210.9,296.9c0-0.6-0.5-1.1-1.1-1.1l0,0c0.6,0,1.1-0.5,1.1-1.1l0,0c0,0.6,0.5,1.1,1.1,1.1l0,0
			C211.4,295.8,210.9,296.3,210.9,296.9z"/>
		<path class="st1" d="M508.8,132.3L508.8,132.3c0-0.9-0.7-1.6-1.6-1.6l0,0c0.9,0,1.6-0.7,1.6-1.6l0,0c0,0.9,0.7,1.6,1.6,1.6l0,0
			C509.5,130.7,508.8,131.4,508.8,132.3z"/>
		<path class="st1" d="M458.2,161.6L458.2,161.6c0-0.9-0.7-1.6-1.6-1.6l0,0c0.9,0,1.6-0.7,1.6-1.6l0,0c0,0.9,0.7,1.6,1.6,1.6l0,0
			C458.9,160,458.2,160.7,458.2,161.6z"/>
		<path class="st1" d="M516.4,140L516.4,140c0-0.4-0.3-0.7-0.7-0.7l0,0c0.4,0,0.7-0.3,0.7-0.7l0,0c0,0.4,0.3,0.7,0.7,0.7l0,0
			C516.7,139.3,516.4,139.6,516.4,140z"/>
		<path class="st1" d="M378.6,166.5L378.6,166.5c0-0.4-0.3-0.7-0.7-0.7l0,0c0.4,0,0.7-0.3,0.7-0.7l0,0c0,0.4,0.3,0.7,0.7,0.7l0,0
			C378.9,165.8,378.6,166.1,378.6,166.5z"/>
		<path class="st1" d="M407.7,140.7L407.7,140.7c0-0.4-0.3-0.7-0.7-0.7l0,0c0.4,0,0.7-0.3,0.7-0.7l0,0c0,0.4,0.3,0.7,0.7,0.7l0,0
			C408.1,140,407.7,140.3,407.7,140.7z"/>
		<path class="st1" d="M507.9,143.1L507.9,143.1c0-0.6-0.5-1.1-1.1-1.1l0,0c0.6,0,1.1-0.5,1.1-1.1l0,0c0,0.6,0.5,1.1,1.1,1.1l0,0
			C508.4,142,507.9,142.5,507.9,143.1z"/>
		<path class="st1" d="M304.2,274.9L304.2,274.9c0-0.6-0.5-1.1-1.1-1.1l0,0c0.6,0,1.1-0.5,1.1-1.1l0,0c0,0.6,0.5,1.1,1.1,1.1l0,0
			C304.7,273.8,304.2,274.3,304.2,274.9z"/>
		<path class="st1" d="M382.8,130.3L382.8,130.3c0-0.6-0.5-1.1-1.1-1.1l0,0c0.6,0,1.1-0.5,1.1-1.1l0,0c0,0.6,0.5,1.1,1.1,1.1l0,0
			C383.3,129.2,382.8,129.7,382.8,130.3z"/>
		<path class="st1" d="M470,30.5L470,30.5c0-0.6-0.5-1.1-1.1-1.1l0,0c0.6,0,1.1-0.5,1.1-1.1l0,0c0,0.6,0.5,1.1,1.1,1.1l0,0
			C470.5,29.4,470,29.9,470,30.5z"/>
		<path class="st1" d="M436.3,200.5L436.3,200.5c0-0.6-0.5-1.1-1.1-1.1l0,0c0.6,0,1.1-0.5,1.1-1.1l0,0c0,0.6,0.5,1.1,1.1,1.1l0,0
			C436.8,199.4,436.3,199.9,436.3,200.5z"/>
		<path class="st1" d="M593.3,158.7L593.3,158.7c0,0.9,0.7,1.6,1.6,1.6l0,0c-0.9,0-1.6,0.7-1.6,1.6l0,0c0-0.9-0.7-1.6-1.6-1.6l0,0
			C592.6,160.3,593.3,159.6,593.3,158.7z"/>
		<path class="st1" d="M430.3,39L430.3,39c0,0.9,0.7,1.6,1.6,1.6l0,0c-0.9,0-1.6,0.7-1.6,1.6l0,0c0-0.9-0.7-1.6-1.6-1.6l0,0
			C429.6,40.6,430.3,39.9,430.3,39z"/>
		<path class="st1" d="M474.8,221.1L474.8,221.1c0,0.9,0.7,1.6,1.6,1.6l0,0c-0.9,0-1.6,0.7-1.6,1.6l0,0c0-0.9-0.7-1.6-1.6-1.6l0,0
			C474.1,222.7,474.8,222,474.8,221.1z"/>
		<path class="st1" d="M526.2,203.1L526.2,203.1c0,0.9,0.7,1.6,1.6,1.6l0,0c-0.9,0-1.6,0.7-1.6,1.6l0,0c0-0.9-0.7-1.6-1.6-1.6l0,0
			C525.5,204.7,526.2,204,526.2,203.1z"/>
		<path class="st1" d="M522.7,158.4L522.7,158.4c0,0.9,0.7,1.6,1.6,1.6l0,0c-0.9,0-1.6,0.7-1.6,1.6l0,0c0-0.9-0.7-1.6-1.6-1.6l0,0
			C522,160,522.7,159.3,522.7,158.4z"/>
		<path class="st1" d="M567.8,104.1L567.8,104.1c0,0.9,0.7,1.6,1.6,1.6l0,0c-0.9,0-1.6,0.7-1.6,1.6l0,0c0-0.9-0.7-1.6-1.6-1.6l0,0
			C567.1,105.6,567.8,104.9,567.8,104.1z"/>
		<path class="st1" d="M404.6,171L404.6,171c0,0.9,0.7,1.6,1.6,1.6l0,0c-0.9,0-1.6,0.7-1.6,1.6l0,0c0-0.9-0.7-1.6-1.6-1.6l0,0
			C403.9,172.6,404.6,171.9,404.6,171z"/>
		<path class="st1" d="M421.3,122.6L421.3,122.6c0,0.9,0.7,1.6,1.6,1.6l0,0c-0.9,0-1.6,0.7-1.6,1.6l0,0c0-0.9-0.7-1.6-1.6-1.6l0,0
			C420.6,124.1,421.3,123.4,421.3,122.6z"/>
		<path class="st1" d="M511.2,265.3L511.2,265.3c0,0.4,0.3,0.7,0.7,0.7l0,0c-0.4,0-0.7,0.3-0.7,0.7l0,0c0-0.4-0.3-0.7-0.7-0.7l0,0
			C510.9,266,511.2,265.7,511.2,265.3z"/>
		<path class="st1" d="M495.4,167L495.4,167c0,0.4,0.3,0.7,0.7,0.7l0,0c-0.4,0-0.7,0.3-0.7,0.7l0,0c0-0.4-0.3-0.7-0.7-0.7l0,0
			C495.1,167.7,495.4,167.4,495.4,167z"/>
		<path class="st1" d="M478.3,209.3L478.3,209.3c0,0.4,0.3,0.7,0.7,0.7l0,0c-0.4,0-0.7,0.3-0.7,0.7l0,0c0-0.4-0.3-0.7-0.7-0.7l0,0
			C478,210,478.3,209.7,478.3,209.3z"/>
		<path class="st1" d="M473.2,120.6L473.2,120.6c0,0.4,0.3,0.7,0.7,0.7l0,0c-0.4,0-0.7,0.3-0.7,0.7l0,0c0-0.4-0.3-0.7-0.7-0.7l0,0
			C472.9,121.3,473.2,121,473.2,120.6z"/>
		<path class="st1" d="M393.8,80.9L393.8,80.9c0,0.4,0.3,0.7,0.7,0.7l0,0c-0.4,0-0.7,0.3-0.7,0.7l0,0c0-0.4-0.3-0.7-0.7-0.7l0,0
			C393.5,81.6,393.8,81.3,393.8,80.9z"/>
		<path class="st1" d="M519.7,262.2L519.7,262.2c0,0.6,0.5,1.1,1.1,1.1l0,0c-0.6,0-1.1,0.5-1.1,1.1l0,0c0-0.6-0.5-1.1-1.1-1.1l0,0
			C519.2,263.3,519.7,262.8,519.7,262.2z"/>
		<path class="st1" d="M478.3,274.9L478.3,274.9c0,0.6,0.5,1.1,1.1,1.1l0,0c-0.6,0-1.1,0.5-1.1,1.1l0,0c0-0.6-0.5-1.1-1.1-1.1l0,0
			C477.8,276,478.3,275.5,478.3,274.9z"/>
		<path class="st1" d="M488.3,190.1L488.3,190.1c0,0.6,0.5,1.1,1.1,1.1l0,0c-0.6,0-1.1,0.5-1.1,1.1l0,0c0-0.6-0.5-1.1-1.1-1.1l0,0
			C487.8,191.2,488.3,190.8,488.3,190.1z"/>
		<path class="st1" d="M490.7,50.9L490.7,50.9c0,0.6,0.5,1.1,1.1,1.1l0,0c-0.6,0-1.1,0.5-1.1,1.1l0,0c0-0.6-0.5-1.1-1.1-1.1l0,0
			C490.2,52,490.7,51.5,490.7,50.9z"/>
		<path class="st1" d="M516.4,237.3L516.4,237.3c0,0.6,0.5,1.1,1.1,1.1l0,0c-0.6,0-1.1,0.5-1.1,1.1l0,0c0-0.6-0.5-1.1-1.1-1.1l0,0
			C515.9,238.4,516.4,237.9,516.4,237.3z"/>
		<path class="st1" d="M526.2,178.6L526.2,178.6c0,0.6,0.5,1.1,1.1,1.1l0,0c-0.6,0-1.1,0.5-1.1,1.1l0,0c0-0.6-0.5-1.1-1.1-1.1l0,0
			C525.7,179.7,526.2,179.2,526.2,178.6z"/>
		<path class="st1" d="M444.3,131.4L444.3,131.4c0-0.9-0.7-1.6-1.6-1.6l0,0c0.9,0,1.6-0.7,1.6-1.6l0,0c0,0.9,0.7,1.6,1.6,1.6l0,0
			C445,129.8,444.3,130.5,444.3,131.4z"/>
		<path class="st1" d="M472.6,371.2L472.6,371.2c0-0.9-0.7-1.6-1.6-1.6l0,0c0.9,0,1.6-0.7,1.6-1.6l0,0c0,0.9,0.7,1.6,1.6,1.6l0,0
			C473.3,369.6,472.6,370.3,472.6,371.2z"/>
		<path class="st1" d="M393.7,160.7L393.7,160.7c0-0.9-0.7-1.6-1.6-1.6l0,0c0.9,0,1.6-0.7,1.6-1.6l0,0c0,0.9,0.7,1.6,1.6,1.6l0,0
			C394.4,159.1,393.7,159.8,393.7,160.7z"/>
		<path class="st1" d="M451.9,139.1L451.9,139.1c0-0.4-0.3-0.7-0.7-0.7l0,0c0.4,0,0.7-0.3,0.7-0.7l0,0c0,0.4,0.3,0.7,0.7,0.7l0,0
			C452.2,138.4,451.9,138.7,451.9,139.1z"/>
		<path class="st1" d="M345.5,158.8L345.5,158.8c0-0.4-0.3-0.7-0.7-0.7l0,0c0.4,0,0.7-0.3,0.7-0.7l0,0c0,0.4,0.3,0.7,0.7,0.7l0,0
			C345.8,158.1,345.5,158.4,345.5,158.8z"/>
		<path class="st1" d="M343.3,139.8L343.3,139.8c0-0.4-0.3-0.7-0.7-0.7l0,0c0.4,0,0.7-0.3,0.7-0.7l0,0c0,0.4,0.3,0.7,0.7,0.7l0,0
			C343.6,139.1,343.3,139.4,343.3,139.8z"/>
		<path class="st1" d="M443.4,142.2L443.4,142.2c0-0.6-0.5-1.1-1.1-1.1l0,0c0.6,0,1.1-0.5,1.1-1.1l0,0c0,0.6,0.5,1.1,1.1,1.1l0,0
			C443.9,141.1,443.4,141.6,443.4,142.2z"/>
		<path class="st1" d="M239.8,274L239.8,274c0-0.6-0.5-1.1-1.1-1.1l0,0c0.6,0,1.1-0.5,1.1-1.1l0,0c0,0.6,0.5,1.1,1.1,1.1l0,0
			C240.2,272.8,239.8,273.3,239.8,274z"/>
		<path class="st1" d="M349.8,122.5L349.8,122.5c0-0.6-0.5-1.1-1.1-1.1l0,0c0.6,0,1.1-0.5,1.1-1.1l0,0c0,0.6,0.5,1.1,1.1,1.1l0,0
			C350.2,121.4,349.8,121.9,349.8,122.5z"/>
		<path class="st1" d="M365.2,178.8L365.2,178.8c0-0.6-0.5-1.1-1.1-1.1l0,0c0.6,0,1.1-0.5,1.1-1.1l0,0c0,0.6,0.5,1.1,1.1,1.1l0,0
			C365.7,177.7,365.2,178.2,365.2,178.8z"/>
		<path class="st1" d="M221.5,284.8L221.5,284.8c0-0.6-0.5-1.1-1.1-1.1l0,0c0.6,0,1.1-0.5,1.1-1.1l0,0c0,0.6,0.5,1.1,1.1,1.1l0,0
			C222,283.7,221.5,284.2,221.5,284.8z"/>
		<path class="st1" d="M274.6,120.4L274.6,120.4c0,0.9,0.7,1.6,1.6,1.6l0,0c-0.9,0-1.6,0.7-1.6,1.6l0,0c0-0.9-0.7-1.6-1.6-1.6l0,0
			C273.9,122,274.6,121.3,274.6,120.4z"/>
		<path class="st1" d="M461.7,202.2L461.7,202.2c0,0.9,0.7,1.6,1.6,1.6l0,0c-0.9,0-1.6,0.7-1.6,1.6l0,0c0-0.9-0.7-1.6-1.6-1.6l0,0
			C461,203.8,461.7,203.1,461.7,202.2z"/>
		<path class="st1" d="M524.1,80.7L524.1,80.7c0,0.9,0.7,1.6,1.6,1.6l0,0c-0.9,0-1.6,0.7-1.6,1.6l0,0c0-0.9-0.7-1.6-1.6-1.6l0,0
			C523.4,82.3,524.1,81.6,524.1,80.7z"/>
		<path class="st1" d="M458.3,157.5L458.3,157.5c0,0.9,0.7,1.6,1.6,1.6l0,0c-0.9,0-1.6,0.7-1.6,1.6l0,0c0-0.9-0.7-1.6-1.6-1.6l0,0
			C457.6,159.1,458.3,158.4,458.3,157.5z"/>
		<path class="st1" d="M223.7,246.3L223.7,246.3c0,0.9,0.7,1.6,1.6,1.6l0,0c-0.9,0-1.6,0.7-1.6,1.6l0,0c0-0.9-0.7-1.6-1.6-1.6l0,0
			C223,247.8,223.7,247.1,223.7,246.3z"/>
		<path class="st1" d="M234.2,48.8L234.2,48.8c0,0.9,0.7,1.6,1.6,1.6l0,0c-0.9,0-1.6,0.7-1.6,1.6l0,0c0-0.9-0.7-1.6-1.6-1.6l0,0
			C233.5,50.4,234.2,49.7,234.2,48.8z"/>
		<path class="st1" d="M356.8,121.6L356.8,121.6c0,0.9,0.7,1.6,1.6,1.6l0,0c-0.9,0-1.6,0.7-1.6,1.6l0,0c0-0.9-0.7-1.6-1.6-1.6l0,0
			C356.1,123.2,356.8,122.5,356.8,121.6z"/>
		<path class="st1" d="M446.7,264.4L446.7,264.4c0,0.4,0.3,0.7,0.7,0.7l0,0c-0.4,0-0.7,0.3-0.7,0.7l0,0c0-0.4-0.3-0.7-0.7-0.7l0,0
			C446.4,265.1,446.7,264.8,446.7,264.4z"/>
		<path class="st1" d="M431,166.1L431,166.1c0,0.4,0.3,0.7,0.7,0.7l0,0c-0.4,0-0.7,0.3-0.7,0.7l0,0c0-0.4-0.3-0.7-0.7-0.7l0,0
			C430.7,166.8,431,166.5,431,166.1z"/>
		<path class="st1" d="M378.7,62.7L378.7,62.7c0,0.4,0.3,0.7,0.7,0.7l0,0c-0.4,0-0.7,0.3-0.7,0.7l0,0c0-0.4-0.3-0.7-0.7-0.7l0,0
			C378.4,63.4,378.7,63.1,378.7,62.7z"/>
		<path class="st1" d="M408.7,119.7L408.7,119.7c0,0.4,0.3,0.7,0.7,0.7l0,0c-0.4,0-0.7,0.3-0.7,0.7l0,0c0-0.4-0.3-0.7-0.7-0.7l0,0
			C408.4,120.4,408.7,120.1,408.7,119.7z"/>
		<path class="st1" d="M272.5,232.1L272.5,232.1c0,0.4,0.3,0.7,0.7,0.7l0,0c-0.4,0-0.7,0.3-0.7,0.7l0,0c0-0.4-0.3-0.7-0.7-0.7l0,0
			C272.2,232.7,272.5,232.4,272.5,232.1z"/>
		<path class="st1" d="M455.2,261.3L455.2,261.3c0,0.6,0.5,1.1,1.1,1.1l0,0c-0.6,0-1.1,0.5-1.1,1.1l0,0c0-0.6-0.5-1.1-1.1-1.1l0,0
			C454.7,262.4,455.2,261.9,455.2,261.3z"/>
		<path class="st1" d="M422.7,35.2L422.7,35.2c0,0.6,0.5,1.1,1.1,1.1l0,0c-0.6,0-1.1,0.5-1.1,1.1l0,0c0-0.6-0.5-1.1-1.1-1.1l0,0
			C422.2,36.3,422.7,35.8,422.7,35.2z"/>
		<path class="st1" d="M350.8,53.5L350.8,53.5c0,0.6,0.5,1.1,1.1,1.1l0,0c-0.6,0-1.1,0.5-1.1,1.1l0,0c0-0.6-0.5-1.1-1.1-1.1l0,0
			C350.3,54.6,350.8,54.1,350.8,53.5z"/>
		<path class="st1" d="M416.8,90.7L416.8,90.7c0,0.6,0.5,1.1,1.1,1.1l0,0c-0.6,0-1.1,0.5-1.1,1.1l0,0c0-0.6-0.5-1.1-1.1-1.1l0,0
			C416.3,91.8,416.8,91.3,416.8,90.7z"/>
		<path class="st1" d="M461.7,177.7L461.7,177.7c0,0.6,0.5,1.1,1.1,1.1l0,0c-0.6,0-1.1,0.5-1.1,1.1l0,0c0-0.6-0.5-1.1-1.1-1.1l0,0
			C461.2,178.8,461.7,178.3,461.7,177.7z"/>
		<path class="st1" d="M514.4,312.6L514.4,312.6c0.9,0,1.6-0.7,1.6-1.6l0,0c0,0.9,0.7,1.6,1.6,1.6l0,0c-0.9,0-1.6,0.7-1.6,1.6l0,0
			C515.9,313.3,515.2,312.6,514.4,312.6z"/>
		<path class="st1" d="M273.8,246.6L273.8,246.6c0.9,0,1.6-0.7,1.6-1.6l0,0c0,0.9,0.7,1.6,1.6,1.6l0,0c-0.9,0-1.6,0.7-1.6,1.6l0,0
			C275.4,247.3,274.7,246.6,273.8,246.6z"/>
		<path class="st1" d="M488.8,459.2L488.8,459.2c0.9,0,1.6-0.7,1.6-1.6l0,0c0,0.9,0.7,1.6,1.6,1.6l0,0c-0.9,0-1.6,0.7-1.6,1.6l0,0
			C490.4,459.9,489.7,459.2,488.8,459.2z"/>
		<path class="st1" d="M408.6,406.4L408.6,406.4c0.4,0,0.7-0.3,0.7-0.7l0,0c0,0.4,0.3,0.7,0.7,0.7l0,0c-0.4,0-0.7,0.3-0.7,0.7l0,0
			C409.3,406.7,409,406.4,408.6,406.4z"/>
		<path class="st1" d="M450.1,500.1L450.1,500.1c0,0.6,0.5,1.1,1.1,1.1l0,0c-0.6,0-1.1,0.5-1.1,1.1l0,0c0-0.6-0.5-1.1-1.1-1.1l0,0
			C449.6,501.2,450.1,500.7,450.1,500.1z"/>
		<path class="st1" d="M445.6,508.6L445.6,508.6c0,0.6,0.5,1.1,1.1,1.1l0,0c-0.6,0-1.1,0.5-1.1,1.1l0,0c0-0.6-0.5-1.1-1.1-1.1l0,0
			C445.1,509.7,445.6,509.2,445.6,508.6z"/>
		<path class="st1" d="M413.9,384.3L413.9,384.3c0-0.6-0.5-1.1-1.1-1.1l0,0c0.6,0,1.1-0.5,1.1-1.1l0,0c0,0.6,0.5,1.1,1.1,1.1l0,0
			C414.4,383.2,413.9,383.7,413.9,384.3z"/>
		<path class="st1" d="M557.7,424.5L557.7,424.5c0,0.9,0.7,1.6,1.6,1.6l0,0c-0.9,0-1.6,0.7-1.6,1.6l0,0c0-0.9-0.7-1.6-1.6-1.6l0,0
			C557,426.1,557.7,425.4,557.7,424.5z"/>
		<path class="st1" d="M457.4,385.3L457.4,385.3c0,0.6,0.5,1.1,1.1,1.1l0,0c-0.6,0-1.1,0.5-1.1,1.1l0,0c0-0.6-0.5-1.1-1.1-1.1l0,0
			C456.9,386.4,457.4,385.9,457.4,385.3z"/>
		<path class="st1" d="M501.9,360.4L501.9,360.4c0,0.9,0.7,1.6,1.6,1.6l0,0c-0.9,0-1.6,0.7-1.6,1.6l0,0c0-0.9-0.7-1.6-1.6-1.6l0,0
			C501.2,362,501.9,361.3,501.9,360.4z"/>
		<path class="st1" d="M408.1,393.8L408.1,393.8c0,0.6,0.5,1.1,1.1,1.1l0,0c-0.6,0-1.1,0.5-1.1,1.1l0,0c0-0.6-0.5-1.1-1.1-1.1l0,0
			C407.6,394.9,408.1,394.4,408.1,393.8z"/>
		<path class="st1" d="M445.9,382.3L445.9,382.3c0,0.6,0.5,1.1,1.1,1.1l0,0c-0.6,0-1.1,0.5-1.1,1.1l0,0c0-0.6-0.5-1.1-1.1-1.1l0,0
			C445.5,383.4,445.9,382.9,445.9,382.3z"/>
		<path class="st1" d="M414,410.2L414,410.2c-0.4,0-0.7,0.3-0.7,0.7l0,0c0-0.4-0.3-0.7-0.7-0.7l0,0c0.4,0,0.7-0.3,0.7-0.7l0,0
			C413.4,409.9,413.7,410.2,414,410.2z"/>
		<path class="st1" d="M467,394L467,394c0.9,0,1.6-0.7,1.6-1.6l0,0c0,0.9,0.7,1.6,1.6,1.6l0,0c-0.9,0-1.6,0.7-1.6,1.6l0,0
			C468.6,394.7,467.9,394,467,394z"/>
		<path class="st1" d="M538.6,484.5L538.6,484.5c0-0.9-0.7-1.6-1.6-1.6l0,0c0.9,0,1.6-0.7,1.6-1.6l0,0c0,0.9,0.7,1.6,1.6,1.6l0,0
			C539.3,482.9,538.6,483.6,538.6,484.5z"/>
		<path class="st1" d="M488.3,500.1L488.3,500.1c0-0.4-0.3-0.7-0.7-0.7l0,0c0.4,0,0.7-0.3,0.7-0.7l0,0c0,0.4,0.3,0.7,0.7,0.7l0,0
			C488.6,499.4,488.3,499.7,488.3,500.1z"/>
		<path class="st1" d="M489.8,381L489.8,381c0-0.6-0.5-1.1-1.1-1.1l0,0c0.6,0,1.1-0.5,1.1-1.1l0,0c0,0.6,0.5,1.1,1.1,1.1l0,0
			C490.2,379.9,489.8,380.4,489.8,381z"/>
		<path class="st1" d="M458.7,397.5L458.7,397.5c0-0.6-0.5-1.1-1.1-1.1l0,0c0.6,0,1.1-0.5,1.1-1.1l0,0c0,0.6,0.5,1.1,1.1,1.1l0,0
			C459.2,396.4,458.7,396.9,458.7,397.5z"/>
		<path class="st1" d="M459.8,422.6L459.8,422.6c0-0.9-0.7-1.6-1.6-1.6l0,0c0.9,0,1.6-0.7,1.6-1.6l0,0c0,0.9,0.7,1.6,1.6,1.6l0,0
			C460.5,421,459.8,421.7,459.8,422.6z"/>
		<path class="st1" d="M423.9,377.8L423.9,377.8c0.9,0,1.6-0.7,1.6-1.6l0,0c0,0.9,0.7,1.6,1.6,1.6l0,0c-0.9,0-1.6,0.7-1.6,1.6l0,0
			C425.4,378.5,424.7,377.8,423.9,377.8z"/>
		<path class="st1" d="M485.2,261.9L485.2,261.9c0.9,0,1.6-0.7,1.6-1.6l0,0c0,0.9,0.7,1.6,1.6,1.6l0,0c-0.9,0-1.6,0.7-1.6,1.6l0,0
			C486.8,262.6,486.1,261.9,485.2,261.9z"/>
		<path class="st1" d="M506.7,320.3L506.7,320.3c0.4,0,0.7-0.3,0.7-0.7l0,0c0,0.4,0.3,0.7,0.7,0.7l0,0c-0.4,0-0.7,0.3-0.7,0.7l0,0
			C507.4,320.6,507.1,320.3,506.7,320.3z"/>
		<path class="st1" d="M480.3,182L480.3,182c0.4,0,0.7-0.3,0.7-0.7l0,0c0,0.4,0.3,0.7,0.7,0.7l0,0c-0.4,0-0.7,0.3-0.7,0.7l0,0
			C481,182.4,480.7,182,480.3,182z"/>
		<path class="st1" d="M506,211.3L506,211.3c0.4,0,0.7-0.3,0.7-0.7l0,0c0,0.4,0.3,0.7,0.7,0.7l0,0c-0.4,0-0.7,0.3-0.7,0.7l0,0
			C506.7,211.6,506.4,211.3,506,211.3z"/>
		<path class="st1" d="M503.6,311.8L503.6,311.8c0.6,0,1.1-0.5,1.1-1.1l0,0c0,0.6,0.5,1.1,1.1,1.1l0,0c-0.6,0-1.1,0.5-1.1,1.1l0,0
			C504.7,312.2,504.2,311.8,503.6,311.8z"/>
		<path class="st1" d="M343.5,54L343.5,54c0.6,0,1.1-0.5,1.1-1.1l0,0c0,0.6,0.5,1.1,1.1,1.1l0,0c-0.6,0-1.1,0.5-1.1,1.1l0,0
			C344.6,54.5,344.1,54,343.5,54z"/>
		<path class="st1" d="M516.4,186.3L516.4,186.3c0.6,0,1.1-0.5,1.1-1.1l0,0c0,0.6,0.5,1.1,1.1,1.1l0,0c-0.6,0-1.1,0.5-1.1,1.1l0,0
			C517.5,186.8,517,186.3,516.4,186.3z"/>
		<path class="st1" d="M467.1,233.3L467.1,233.3c0.6,0,1.1-0.5,1.1-1.1l0,0c0,0.6,0.5,1.1,1.1,1.1l0,0c-0.6,0-1.1,0.5-1.1,1.1l0,0
			C468.3,233.8,467.8,233.3,467.1,233.3z"/>
		<path class="st1" d="M367.8,181.4L367.8,181.4c0.6,0,1.1-0.5,1.1-1.1l0,0c0,0.6,0.5,1.1,1.1,1.1l0,0c-0.6,0-1.1,0.5-1.1,1.1l0,0
			C368.9,181.9,368.4,181.4,367.8,181.4z"/>
		<path class="st1" d="M309.3,154.3L309.3,154.3c0.9,0,1.6-0.7,1.6-1.6l0,0c0,0.9,0.7,1.6,1.6,1.6l0,0c-0.9,0-1.6,0.7-1.6,1.6l0,0
			C310.9,155,310.2,154.3,309.3,154.3z"/>
		<path class="st1" d="M242,191.9L242,191.9c0.4,0,0.7-0.3,0.7-0.7l0,0c0,0.4,0.3,0.7,0.7,0.7l0,0c-0.4,0-0.7,0.3-0.7,0.7l0,0
			C242.6,192.3,242.3,191.9,242,191.9z"/>
		<path class="st1" d="M265,199.1L265,199.1c0.6,0,1.1-0.5,1.1-1.1l0,0c0,0.6,0.5,1.1,1.1,1.1l0,0c-0.6,0-1.1,0.5-1.1,1.1l0,0
			C266.1,199.6,265.6,199.1,265,199.1z"/>
		<path class="st1" d="M253.4,161.1L253.4,161.1c0.6,0,1.1-0.5,1.1-1.1l0,0c0,0.6,0.5,1.1,1.1,1.1l0,0c-0.6,0-1.1,0.5-1.1,1.1l0,0
			C254.6,161.6,254.1,161.1,253.4,161.1z"/>
		<path class="st1" d="M198.3,86.8L198.3,86.8c0,0.9,0.7,1.6,1.6,1.6l0,0c-0.9,0-1.6,0.7-1.6,1.6l0,0c0-0.9-0.7-1.6-1.6-1.6l0,0
			C197.6,88.4,198.3,87.7,198.3,86.8z"/>
		<path class="st1" d="M298.8,141.2L298.8,141.2c0-0.4-0.3-0.7-0.7-0.7l0,0c0.4,0,0.7-0.3,0.7-0.7l0,0c0,0.4,0.3,0.7,0.7,0.7l0,0
			C299.1,140.5,298.8,140.8,298.8,141.2z"/>
		<path class="st1" d="M242.5,137.6L242.5,137.6c0-0.6-0.5-1.1-1.1-1.1l0,0c0.6,0,1.1-0.5,1.1-1.1l0,0c0,0.6,0.5,1.1,1.1,1.1l0,0
			C243,136.5,242.5,137,242.5,137.6z"/>
		<path class="st1" d="M289.3,187L289.3,187c0-0.6-0.5-1.1-1.1-1.1l0,0c0.6,0,1.1-0.5,1.1-1.1l0,0c0,0.6,0.5,1.1,1.1,1.1l0,0
			C289.8,185.9,289.3,186.4,289.3,187z"/>
		<path class="st1" d="M178.6,154.7L178.6,154.7c0,0.9,0.7,1.6,1.6,1.6l0,0c-0.9,0-1.6,0.7-1.6,1.6l0,0c0-0.9-0.7-1.6-1.6-1.6l0,0
			C177.9,156.3,178.6,155.6,178.6,154.7z"/>
		<path class="st1" d="M164.8,123.1L164.8,123.1c0,0.9,0.7,1.6,1.6,1.6l0,0c-0.9,0-1.6,0.7-1.6,1.6l0,0c0-0.9-0.7-1.6-1.6-1.6l0,0
			C164.1,124.6,164.8,123.9,164.8,123.1z"/>
		<path class="st1" d="M312.3,123.1L312.3,123.1c0,0.9,0.7,1.6,1.6,1.6l0,0c-0.9,0-1.6,0.7-1.6,1.6l0,0c0-0.9-0.7-1.6-1.6-1.6l0,0
			C311.6,124.6,312.3,123.9,312.3,123.1z"/>
		<path class="st1" d="M464.7,52.6L464.7,52.6c0-0.9-0.7-1.6-1.6-1.6l0,0c0.9,0,1.6-0.7,1.6-1.6l0,0c0,0.9,0.7,1.6,1.6,1.6l0,0
			C465.4,51.1,464.7,51.8,464.7,52.6z"/>
		<path class="st1" d="M253.4,168L253.4,168c0-0.9-0.7-1.6-1.6-1.6l0,0c0.9,0,1.6-0.7,1.6-1.6l0,0c0,0.9,0.7,1.6,1.6,1.6l0,0
			C254.1,166.4,253.4,167.1,253.4,168z"/>
		<path class="st1" d="M334.5,142.7L334.5,142.7c0-0.6-0.5-1.1-1.1-1.1l0,0c0.6,0,1.1-0.5,1.1-1.1l0,0c0,0.6,0.5,1.1,1.1,1.1l0,0
			C335,141.6,334.5,142.1,334.5,142.7z"/>
		<path class="st1" d="M290.7,173.4L290.7,173.4c0,0.4,0.3,0.7,0.7,0.7l0,0c-0.4,0-0.7,0.3-0.7,0.7l0,0c0-0.4-0.3-0.7-0.7-0.7l0,0
			C290.4,174.1,290.7,173.8,290.7,173.4z"/>
		<path class="st1" d="M299.8,120.2L299.8,120.2c0,0.4,0.3,0.7,0.7,0.7l0,0c-0.4,0-0.7,0.3-0.7,0.7l0,0c0-0.4-0.3-0.7-0.7-0.7l0,0
			C299.5,120.9,299.8,120.6,299.8,120.2z"/>
		<path class="st1" d="M283.6,196.5L283.6,196.5c0,0.6,0.5,1.1,1.1,1.1l0,0c-0.6,0-1.1,0.5-1.1,1.1l0,0c0-0.6-0.5-1.1-1.1-1.1l0,0
			C283.1,197.6,283.6,197.1,283.6,196.5z"/>
		<path class="st1" d="M530.1,53.1L530.1,53.1c-0.9,0-1.6,0.7-1.6,1.6l0,0c0-0.9-0.7-1.6-1.6-1.6l0,0c0.9,0,1.6-0.7,1.6-1.6l0,0
			C528.5,52.4,529.2,53.1,530.1,53.1z"/>
		<path class="st1" d="M271.4,199.3L271.4,199.3c0.9,0,1.6-0.7,1.6-1.6l0,0c0,0.9,0.7,1.6,1.6,1.6l0,0c-0.9,0-1.6,0.7-1.6,1.6l0,0
			C273,200,272.3,199.3,271.4,199.3z"/>
		<path class="st1" d="M300.9,140.4L300.9,140.4c0.4,0,0.7-0.3,0.7-0.7l0,0c0,0.4,0.3,0.7,0.7,0.7l0,0c-0.4,0-0.7,0.3-0.7,0.7l0,0
			C301.5,140.7,301.2,140.4,300.9,140.4z"/>
		<path class="st1" d="M258.7,132.7L258.7,132.7c0-0.9-0.7-1.6-1.6-1.6l0,0c0.9,0,1.6-0.7,1.6-1.6l0,0c0,0.9,0.7,1.6,1.6,1.6l0,0
			C259.4,131.1,258.7,131.8,258.7,132.7z"/>
		<path class="st1" d="M537,54.7L537,54.7c0-0.9-0.7-1.6-1.6-1.6l0,0c0.9,0,1.6-0.7,1.6-1.6l0,0c0,0.9,0.7,1.6,1.6,1.6l0,0
			C537.7,53.1,537,53.8,537,54.7z"/>
		<path class="st1" d="M251.4,144L251.4,144c0-0.4-0.3-0.7-0.7-0.7l0,0c0.4,0,0.7-0.3,0.7-0.7l0,0c0,0.4,0.3,0.7,0.7,0.7l0,0
			C251.7,143.3,251.4,143.6,251.4,144z"/>
		<path class="st1" d="M284.3,200L284.3,200c0-0.4-0.3-0.7-0.7-0.7l0,0c0.4,0,0.7-0.3,0.7-0.7l0,0c0,0.4,0.3,0.7,0.7,0.7l0,0
			C284.6,199.4,284.3,199.7,284.3,200z"/>
		<path class="st1" d="M283.5,67.3L283.5,67.3c0,0.9,0.7,1.6,1.6,1.6l0,0c-0.9,0-1.6,0.7-1.6,1.6l0,0c0-0.9-0.7-1.6-1.6-1.6l0,0
			C282.8,68.9,283.5,68.2,283.5,67.3z"/>
		<path class="st1" d="M263.9,49.9L263.9,49.9c0-0.6-0.5-1.1-1.1-1.1l0,0c0.6,0,1.1-0.5,1.1-1.1l0,0c0,0.6,0.5,1.1,1.1,1.1l0,0
			C264.4,48.8,263.9,49.3,263.9,49.9z"/>
		<path class="st1" d="M284.1,75.1L284.1,75.1c0,0.6,0.5,1.1,1.1,1.1l0,0c-0.6,0-1.1,0.5-1.1,1.1l0,0c0-0.6-0.5-1.1-1.1-1.1l0,0
			C283.6,76.2,284.1,75.7,284.1,75.1z"/>
		<path class="st1" d="M284.8,78.6L284.8,78.6c0-0.4-0.3-0.7-0.7-0.7l0,0c0.4,0,0.7-0.3,0.7-0.7l0,0c0,0.4,0.3,0.7,0.7,0.7l0,0
			C285.1,78,284.8,78.3,284.8,78.6z"/>
		<path class="st1" d="M227.3,93.4L227.3,93.4c0.6,0,1.1-0.5,1.1-1.1l0,0c0,0.6,0.5,1.1,1.1,1.1l0,0c-0.6,0-1.1,0.5-1.1,1.1l0,0
			C228.4,93.9,227.9,93.4,227.3,93.4z"/>
		<path class="st1" d="M250.7,67L250.7,67c0,0.6,0.5,1.1,1.1,1.1l0,0c-0.6,0-1.1,0.5-1.1,1.1l0,0c0-0.6-0.5-1.1-1.1-1.1l0,0
			C250.2,68.2,250.7,67.7,250.7,67z"/>
		<path class="st1" d="M248,80.8L248,80.8c0.9,0,1.6-0.7,1.6-1.6l0,0c0,0.9,0.7,1.6,1.6,1.6l0,0c-0.9,0-1.6,0.7-1.6,1.6l0,0
			C249.6,81.5,248.9,80.8,248,80.8z"/>
		<path class="st1" d="M246.6,94.4L246.6,94.4c0-0.4-0.3-0.7-0.7-0.7l0,0c0.4,0,0.7-0.3,0.7-0.7l0,0c0,0.4,0.3,0.7,0.7,0.7l0,0
			C246.9,93.7,246.6,94,246.6,94.4z"/>
		<path class="st1" d="M242.9,147.1L242.9,147.1c0-0.6-0.5-1.1-1.1-1.1l0,0c0.6,0,1.1-0.5,1.1-1.1l0,0c0,0.6,0.5,1.1,1.1,1.1l0,0
			C243.4,146,242.9,146.5,242.9,147.1z"/>
		<path class="st1" d="M284.7,143.8L284.7,143.8c0-0.6-0.5-1.1-1.1-1.1l0,0c0.6,0,1.1-0.5,1.1-1.1l0,0c0,0.6,0.5,1.1,1.1,1.1l0,0
			C285.2,142.6,284.7,143.1,284.7,143.8z"/>
		<path class="st1" d="M246.2,172.1L246.2,172.1c0-0.6-0.5-1.1-1.1-1.1l0,0c0.6,0,1.1-0.5,1.1-1.1l0,0c0,0.6,0.5,1.1,1.1,1.1l0,0
			C246.7,170.9,246.2,171.4,246.2,172.1z"/>
		<path class="st1" d="M321.7,125.7L321.7,125.7c0,0.9,0.7,1.6,1.6,1.6l0,0c-0.9,0-1.6,0.7-1.6,1.6l0,0c0-0.9-0.7-1.6-1.6-1.6l0,0
			C321,127.3,321.7,126.6,321.7,125.7z"/>
		<path class="st1" d="M205.8,57.2L205.8,57.2c0,0.9,0.7,1.6,1.6,1.6l0,0c-0.9,0-1.6,0.7-1.6,1.6l0,0c0-0.9-0.7-1.6-1.6-1.6l0,0
			C205.1,58.7,205.8,58,205.8,57.2z"/>
		<path class="st1" d="M329.4,159.1L329.4,159.1c0,0.4,0.3,0.7,0.7,0.7l0,0c-0.4,0-0.7,0.3-0.7,0.7l0,0c0-0.4-0.3-0.7-0.7-0.7l0,0
			C329.1,159.8,329.4,159.5,329.4,159.1z"/>
		<path class="st1" d="M299.3,180.5L299.3,180.5c0.9,0,1.6-0.7,1.6-1.6l0,0c0,0.9,0.7,1.6,1.6,1.6l0,0c-0.9,0-1.6,0.7-1.6,1.6l0,0
			C300.9,181.2,300.2,180.5,299.3,180.5z"/>
		<path class="st1" d="M332.7,114.8L332.7,114.8c0.6,0,1.1-0.5,1.1-1.1l0,0c0,0.6,0.5,1.1,1.1,1.1l0,0c-0.6,0-1.1,0.5-1.1,1.1l0,0
			C333.8,115.3,333.3,114.8,332.7,114.8z"/>
		<path class="st1" d="M435.2,318.8L435.2,318.8c-0.9,0-1.6,0.7-1.6,1.6l0,0c0-0.9-0.7-1.6-1.6-1.6l0,0c0.9,0,1.6-0.7,1.6-1.6l0,0
			C433.6,318.1,434.3,318.8,435.2,318.8z"/>
		<path class="st1" d="M334.9,22.9L334.9,22.9c-0.9,0-1.6,0.7-1.6,1.6l0,0c0-0.9-0.7-1.6-1.6-1.6l0,0c0.9,0,1.6-0.7,1.6-1.6l0,0
			C333.4,22.2,334.1,22.9,334.9,22.9z"/>
		<path class="st1" d="M425.9,278.5L425.9,278.5c-0.9,0-1.6,0.7-1.6,1.6l0,0c0-0.9-0.7-1.6-1.6-1.6l0,0c0.9,0,1.6-0.7,1.6-1.6l0,0
			C424.3,277.8,425,278.5,425.9,278.5z"/>
		<path class="st1" d="M443.8,330.1L443.8,330.1c-0.9,0-1.6,0.7-1.6,1.6l0,0c0-0.9-0.7-1.6-1.6-1.6l0,0c0.9,0,1.6-0.7,1.6-1.6l0,0
			C442.2,329.4,442.9,330.1,443.8,330.1z"/>
		<path class="st1" d="M488.3,326.7L488.3,326.7c-0.9,0-1.6,0.7-1.6,1.6l0,0c0-0.9-0.7-1.6-1.6-1.6l0,0c0.9,0,1.6-0.7,1.6-1.6l0,0
			C486.8,326,487.5,326.7,488.3,326.7z"/>
		<path class="st1" d="M289.4,33.7L289.4,33.7c-0.9,0-1.6,0.7-1.6,1.6l0,0c0-0.9-0.7-1.6-1.6-1.6l0,0c0.9,0,1.6-0.7,1.6-1.6l0,0
			C287.8,33,288.5,33.7,289.4,33.7z"/>
		<path class="st1" d="M475.8,208.1L475.8,208.1c-0.9,0-1.6,0.7-1.6,1.6l0,0c0-0.9-0.7-1.6-1.6-1.6l0,0c0.9,0,1.6-0.7,1.6-1.6l0,0
			C474.2,207.4,474.9,208.1,475.8,208.1z"/>
		<path class="st1" d="M524.1,224.8L524.1,224.8c-0.9,0-1.6,0.7-1.6,1.6l0,0c0-0.9-0.7-1.6-1.6-1.6l0,0c0.9,0,1.6-0.7,1.6-1.6l0,0
			C522.5,224.1,523.2,224.8,524.1,224.8z"/>
		<path class="st1" d="M381.8,315.1L381.8,315.1c-0.4,0-0.7,0.3-0.7,0.7l0,0c0-0.4-0.3-0.7-0.7-0.7l0,0c0.4,0,0.7-0.3,0.7-0.7l0,0
			C381.1,314.8,381.4,315.1,381.8,315.1z"/>
		<path class="st1" d="M275.3,398.4L275.3,398.4c0.4,0,0.7-0.3,0.7-0.7l0,0c0,0.4,0.3,0.7,0.7,0.7l0,0c-0.4,0-0.7,0.3-0.7,0.7l0,0
			C276,398.7,275.7,398.4,275.3,398.4z"/>
		<path class="st1" d="M282.6,375.4L282.6,375.4c0-0.9-0.7-1.6-1.6-1.6l0,0c0.9,0,1.6-0.7,1.6-1.6l0,0c0,0.9,0.7,1.6,1.6,1.6l0,0
			C283.3,373.8,282.6,374.5,282.6,375.4z"/>
		<path class="st1" d="M285.6,383.5L285.6,383.5c0,0.6,0.5,1.1,1.1,1.1l0,0c-0.6,0-1.1,0.5-1.1,1.1l0,0c0-0.6-0.5-1.1-1.1-1.1l0,0
			C285.1,384.6,285.6,384.1,285.6,383.5z"/>
		<path class="st1" d="M317.3,403.8L317.3,403.8c-0.9,0-1.6,0.7-1.6,1.6l0,0c0-0.9-0.7-1.6-1.6-1.6l0,0c0.9,0,1.6-0.7,1.6-1.6l0,0
			C315.7,403.1,316.4,403.8,317.3,403.8z"/>
		<path class="st1" d="M289.2,381.9L289.2,381.9c-0.4,0-0.7,0.3-0.7,0.7l0,0c0-0.4-0.3-0.7-0.7-0.7l0,0c0.4,0,0.7-0.3,0.7-0.7l0,0
			C288.6,381.6,288.9,381.9,289.2,381.9z"/>
		<path class="st1" d="M278.4,387.6L278.4,387.6c0,0.9,0.7,1.6,1.6,1.6l0,0c-0.9,0-1.6,0.7-1.6,1.6l0,0c0-0.9-0.7-1.6-1.6-1.6l0,0
			C277.7,389.1,278.4,388.4,278.4,387.6z"/>
		<path class="st1" d="M263.7,383.5L263.7,383.5c-0.9,0-1.6,0.7-1.6,1.6l0,0c0-0.9-0.7-1.6-1.6-1.6l0,0c0.9,0,1.6-0.7,1.6-1.6l0,0
			C262.2,382.8,262.9,383.5,263.7,383.5z"/>
		<path class="st1" d="M289.3,395.2L289.3,395.2c-0.4,0-0.7,0.3-0.7,0.7l0,0c0-0.4-0.3-0.7-0.7-0.7l0,0c0.4,0,0.7-0.3,0.7-0.7l0,0
			C288.6,394.8,288.9,395.2,289.3,395.2z"/>
		<path class="st1" d="M306.1,475L306.1,475c0,0.6,0.5,1.1,1.1,1.1l0,0c-0.6,0-1.1,0.5-1.1,1.1l0,0c0-0.6-0.5-1.1-1.1-1.1l0,0
			C305.6,476.1,306.1,475.6,306.1,475z"/>
		<path class="st1" d="M309.8,473.4L309.8,473.4c-0.4,0-0.7,0.3-0.7,0.7l0,0c0-0.4-0.3-0.7-0.7-0.7l0,0c0.4,0,0.7-0.3,0.7-0.7l0,0
			C309.1,473.1,309.4,473.4,309.8,473.4z"/>
		<path class="st1" d="M309.8,486.6L309.8,486.6c-0.4,0-0.7,0.3-0.7,0.7l0,0c0-0.4-0.3-0.7-0.7-0.7l0,0c0.4,0,0.7-0.3,0.7-0.7l0,0
			C309.1,486.3,309.4,486.6,309.8,486.6z"/>
		<path class="st1" d="M479.7,299.3L479.7,299.3c-0.4,0-0.7,0.3-0.7,0.7l0,0c0-0.4-0.3-0.7-0.7-0.7l0,0c0.4,0,0.7-0.3,0.7-0.7l0,0
			C479.1,299,479.4,299.3,479.7,299.3z"/>
		<path class="st1" d="M437.6,282.1L437.6,282.1c-0.4,0-0.7,0.3-0.7,0.7l0,0c0-0.4-0.3-0.7-0.7-0.7l0,0c0.4,0,0.7-0.3,0.7-0.7l0,0
			C436.9,281.8,437.2,282.1,437.6,282.1z"/>
		<path class="st1" d="M526,277L526,277c-0.4,0-0.7,0.3-0.7,0.7l0,0c0-0.4-0.3-0.7-0.7-0.7l0,0c0.4,0,0.7-0.3,0.7-0.7l0,0
			C525.4,276.6,525.7,277,526,277z"/>
		<path class="st1" d="M385.3,86.9L385.3,86.9c-0.4,0-0.7,0.3-0.7,0.7l0,0c0-0.4-0.3-0.7-0.7-0.7l0,0c0.4,0,0.7-0.3,0.7-0.7l0,0
			C384.6,86.6,384.9,86.9,385.3,86.9z"/>
		<path class="st1" d="M384.9,323.6L384.9,323.6c-0.6,0-1.1,0.5-1.1,1.1l0,0c0-0.6-0.5-1.1-1.1-1.1l0,0c0.6,0,1.1-0.5,1.1-1.1l0,0
			C383.8,323.1,384.3,323.6,384.9,323.6z"/>
		<path class="st1" d="M280.3,288.5L280.3,288.5c-0.6,0-1.1,0.5-1.1,1.1l0,0c0-0.6-0.5-1.1-1.1-1.1l0,0c0.6,0,1.1-0.5,1.1-1.1l0,0
			C279.2,288,279.7,288.5,280.3,288.5z"/>
		<path class="st1" d="M456.7,292.2L456.7,292.2c-0.6,0-1.1,0.5-1.1,1.1l0,0c0-0.6-0.5-1.1-1.1-1.1l0,0c0.6,0,1.1-0.5,1.1-1.1l0,0
			C455.6,291.7,456.1,292.2,456.7,292.2z"/>
		<path class="st1" d="M411.7,108.4L411.7,108.4c-0.6,0-1.1,0.5-1.1,1.1l0,0c0-0.6-0.5-1.1-1.1-1.1l0,0c0.6,0,1.1-0.5,1.1-1.1l0,0
			C410.6,107.9,411.1,108.4,411.7,108.4z"/>
		<path class="st1" d="M409.7,320.3L409.7,320.3c-0.6,0-1.1,0.5-1.1,1.1l0,0c0-0.6-0.5-1.1-1.1-1.1l0,0c0.6,0,1.1-0.5,1.1-1.1l0,0
			C408.6,319.8,409.1,320.3,409.7,320.3z"/>
		<path class="st1" d="M569.4,239.9L569.4,239.9c-0.9,0-1.6,0.7-1.6,1.6l0,0c0-0.9-0.7-1.6-1.6-1.6l0,0c0.9,0,1.6-0.7,1.6-1.6l0,0
			C567.8,239.2,568.5,239.9,569.4,239.9z"/>
		<path class="st1" d="M592.2,297.9L592.2,297.9c0,0.6,0.5,1.1,1.1,1.1l0,0c-0.6,0-1.1,0.5-1.1,1.1l0,0c0-0.6-0.5-1.1-1.1-1.1l0,0
			C591.7,299,592.2,298.5,592.2,297.9z"/>
		<path class="st1" d="M599.1,284.9L599.1,284.9c0.9,0,1.6-0.7,1.6-1.6l0,0c0,0.9,0.7,1.6,1.6,1.6l0,0c-0.9,0-1.6,0.7-1.6,1.6l0,0
			C600.7,285.6,600,284.9,599.1,284.9z"/>
		<path class="st1" d="M609,284.3L609,284.3c0,0.4,0.3,0.7,0.7,0.7l0,0c-0.4,0-0.7,0.3-0.7,0.7l0,0c0-0.4-0.3-0.7-0.7-0.7l0,0
			C608.7,285,609,284.7,609,284.3z"/>
		<path class="st1" d="M560.3,280L560.3,280c-0.6,0-1.1,0.5-1.1,1.1l0,0c0-0.6-0.5-1.1-1.1-1.1l0,0c0.6,0,1.1-0.5,1.1-1.1l0,0
			C559.2,279.5,559.7,280,560.3,280z"/>
		<path class="st1" d="M468.3,330.1L468.3,330.1c-0.6,0-1.1,0.5-1.1,1.1l0,0c0-0.6-0.5-1.1-1.1-1.1l0,0c0.6,0,1.1-0.5,1.1-1.1l0,0
			C467.1,329.6,467.6,330.1,468.3,330.1z"/>
	</g>
</g>
<g>
	<g>
		<g>
			<path class="st2" d="M375,459.6c-106.2,0-192.6-86.4-192.6-192.6S268.8,74.4,375,74.4S567.6,160.8,567.6,267
				S481.2,459.6,375,459.6z M375,75.4c-105.6,0-191.6,85.9-191.6,191.6c0,105.6,85.9,191.6,191.6,191.6s191.6-86,191.6-191.6
				S480.6,75.4,375,75.4z"/>
		</g>
		<g>
			<path class="st2" d="M375,463.5c-52.5,0-101.8-20.4-138.9-57.6c-37.1-37.1-57.6-86.5-57.6-138.9s20.4-101.8,57.6-138.9
				C273.2,91,322.6,70.5,375,70.5c52.5,0,101.8,20.4,138.9,57.6c37.1,37.1,57.6,86.5,57.6,138.9s-20.4,101.8-57.6,138.9
				C476.8,443.1,427.5,463.5,375,463.5z M375,71c-52.4,0-101.6,20.4-138.6,57.4S179,214.6,179,267s20.4,101.6,57.4,138.6
				S322.6,463,375,463s101.6-20.4,138.6-57.4S571,319.4,571,267s-20.4-101.6-57.4-138.6S427.4,71,375,71z"/>
		</g>
		<g>
			<path class="st2" d="M375,398.1c-72.3,0-131.1-58.8-131.1-131.1S302.7,135.9,375,135.9S506.1,194.7,506.1,267
				S447.3,398.1,375,398.1z M375,136.9c-71.8,0-130.1,58.4-130.1,130.1S303.2,397.1,375,397.1S505.1,338.8,505.1,267
				S446.8,136.9,375,136.9z"/>
		</g>
		<g>
			<path class="st2" d="M375,370c-56.8,0-103-46.2-103-103s46.2-103,103-103s103,46.2,103,103S431.8,370,375,370z M375,164.5
				c-56.5,0-102.5,46-102.5,102.5s46,102.5,102.5,102.5s102.5-46,102.5-102.5S431.5,164.5,375,164.5z"/>
		</g>
		<g>
			<path class="st2" d="M375,367.4c-55.4,0-100.4-45-100.4-100.4s45-100.4,100.4-100.4s100.4,45,100.4,100.4S430.4,367.4,375,367.4z
				 M375,167.6c-54.8,0-99.4,44.6-99.4,99.4s44.6,99.4,99.4,99.4s99.4-44.6,99.4-99.4S429.8,167.6,375,167.6z"/>
		</g>
		<g>
			<path class="st2" d="M375,346.7c-44,0-79.7-35.8-79.7-79.7s35.8-79.7,79.7-79.7c44,0,79.7,35.8,79.7,79.7S419,346.7,375,346.7z
				 M375,188.3c-43.4,0-78.7,35.3-78.7,78.7s35.3,78.7,78.7,78.7s78.7-35.3,78.7-78.7S418.4,188.3,375,188.3z"/>
		</g>
		<g>
			<path class="st2" d="M375,309.5c-23.5,0-42.5-19.1-42.5-42.5s19.1-42.5,42.5-42.5c23.5,0,42.5,19.1,42.5,42.5
				S398.5,309.5,375,309.5z M375,225c-23.2,0-42,18.9-42,42s18.9,42,42,42c23.2,0,42-18.9,42-42S398.2,225,375,225z"/>
		</g>
		<g>
			<path class="st2" d="M375,225c-0.1,0-0.3-0.1-0.3-0.3V74.9c0-0.1,0.1-0.3,0.3-0.3c0.1,0,0.3,0.1,0.3,0.3v149.8
				C375.3,224.8,375.1,225,375,225z"/>
		</g>
		<g>
			<path class="st2" d="M353.8,230.6c-0.1,0-0.2,0-0.2-0.1l-74.9-129.7c-0.1-0.1,0-0.3,0.1-0.3c0.1-0.1,0.3,0,0.3,0.1L354,230.3
				C354.1,230.4,354,230.6,353.8,230.6C353.9,230.6,353.9,230.6,353.8,230.6z"/>
		</g>
		<g>
			<path class="st2" d="M338.4,246.1h-0.1l-129.7-74.9c-0.1-0.1-0.2-0.2-0.1-0.3c0.1-0.1,0.2-0.2,0.3-0.1l129.7,74.9
				c0.1,0.1,0.2,0.2,0.1,0.3C338.5,246.1,338.5,246.1,338.4,246.1z"/>
		</g>
		<g>
			<path class="st2" d="M332.7,267.3H182.9c-0.1,0-0.3-0.1-0.3-0.3s0.1-0.3,0.3-0.3h149.8c0.1,0,0.3,0.1,0.3,0.3
				S332.8,267.3,332.7,267.3z"/>
		</g>
		<g>
			<path class="st2" d="M208.7,363.3c-0.1,0-0.2,0-0.2-0.1c-0.1-0.1,0-0.3,0.1-0.3L338.3,288c0.1-0.1,0.3,0,0.3,0.1
				c0.1,0.1,0,0.3-0.1,0.3L208.7,363.3C208.8,363.3,208.7,363.3,208.7,363.3z"/>
		</g>
		<g>
			<path class="st2" d="M279,433.6h-0.1c-0.1-0.1-0.2-0.2-0.1-0.3l74.9-129.7c0.1-0.1,0.2-0.2,0.3-0.1c0.1,0.1,0.2,0.2,0.1,0.3
				l-74.9,129.7C279.1,433.5,279.1,433.6,279,433.6z"/>
		</g>
		<g>
			<path class="st2" d="M375,459.3c-0.1,0-0.3-0.1-0.3-0.3V309.3c0-0.1,0.1-0.3,0.3-0.3c0.1,0,0.3,0.1,0.3,0.3v149.8
				C375.3,459.2,375.1,459.3,375,459.3z"/>
		</g>
		<g>
			<path class="st2" d="M471,433.6c-0.1,0-0.2,0-0.2-0.1l-74.9-129.7c-0.1-0.1,0-0.3,0.1-0.3c0.1-0.1,0.3,0,0.3,0.1l74.9,129.7
				C471.3,433.4,471.2,433.6,471,433.6C471.1,433.6,471.1,433.6,471,433.6z"/>
		</g>
		<g>
			<path class="st2" d="M541.3,363.3L541.3,363.3l-129.8-74.9c-0.1-0.1-0.2-0.2-0.1-0.3c0.1-0.1,0.2-0.2,0.3-0.1l129.7,74.9
				c0.1,0.1,0.2,0.2,0.1,0.3C541.5,363.2,541.4,363.3,541.3,363.3z"/>
		</g>
		<g>
			<path class="st2" d="M567.1,267.3H417.3c-0.1,0-0.3-0.1-0.3-0.3s0.1-0.3,0.3-0.3h149.8c0.1,0,0.3,0.1,0.3,0.3
				S567.2,267.3,567.1,267.3z"/>
		</g>
		<g>
			<path class="st2" d="M411.6,246.1c-0.1,0-0.2,0-0.2-0.1c-0.1-0.1,0-0.3,0.1-0.3l129.7-74.9c0.1-0.1,0.3,0,0.3,0.1
				c0.1,0.1,0,0.3-0.1,0.3l-129.7,74.9C411.7,246.1,411.7,246.1,411.6,246.1z"/>
		</g>
		<g>
			<path class="st2" d="M396.2,230.6h-0.1c-0.1-0.1-0.2-0.2-0.1-0.3l74.9-129.7c0.1-0.1,0.2-0.2,0.3-0.1c0.1,0.1,0.2,0.2,0.1,0.3
				l-74.9,129.7C396.3,230.6,396.2,230.6,396.2,230.6z"/>
		</g>
		<g>
			<path class="st2" d="M375,492.2c-0.1,0-0.2,0-0.2-0.1l-41.5-69.4l-70.7,39.4c-0.1,0-0.2,0-0.2,0c-0.1,0-0.1-0.1-0.1-0.2L261,381
				l-80.9-1.2c-0.1,0-0.2,0-0.2-0.1s0-0.2,0-0.2l39.4-70.7l-69.4-41.5c-0.1,0-0.1-0.1-0.1-0.2s0-0.2,0.1-0.2l69.4-41.5l-39.4-70.7
				c0-0.1,0-0.2,0-0.2c0-0.1,0.1-0.1,0.2-0.1L261,153l1.2-80.9c0-0.1,0-0.2,0.1-0.2s0.2,0,0.2,0l70.7,39.4l41.5-69.4
				c0.1-0.2,0.3-0.2,0.4,0l41.5,69.4l70.7-39.4c0.1,0,0.2,0,0.2,0c0.1,0,0.1,0.1,0.1,0.2L489,153l80.9,1.2c0.1,0,0.2,0,0.2,0.1
				s0,0.2,0,0.2l-39.4,70.7l69.4,41.5c0.1,0,0.1,0.1,0.1,0.2s0,0.2-0.1,0.2l-69.4,41.5l39.4,70.7c0,0.1,0,0.2,0,0.2
				s-0.1,0.1-0.2,0.1L489,381l-1.2,80.9c0,0.1,0,0.2-0.1,0.2s-0.2,0-0.2,0l-70.7-39.4l-41.5,69.4C375.2,492.2,375.1,492.2,375,492.2
				z M333.4,422.1c0.1,0,0.2,0,0.2,0.1l41.4,69.3l41.4-69.3c0.1-0.1,0.2-0.2,0.3-0.1l70.5,39.3l1.2-80.7c0-0.1,0.1-0.2,0.2-0.2
				l80.7-1.2L530,308.8c-0.1-0.1,0-0.3,0.1-0.3l69.3-41.4l-69.3-41.4c-0.1-0.1-0.2-0.2-0.1-0.3l39.3-70.5l-80.7-1.2
				c-0.1,0-0.2-0.1-0.2-0.2l-1.2-80.7l-70.5,39.3c-0.1,0.1-0.3,0-0.3-0.1L375,42.5l-41.4,69.3c-0.1,0.1-0.2,0.2-0.3,0.1l-70.5-39.3
				l-1.2,80.7c0,0.1-0.1,0.2-0.2,0.2l-80.7,1.2l39.3,70.5c0.1,0.1,0,0.3-0.1,0.3L150.5,267l69.3,41.4c0.1,0.1,0.2,0.2,0.1,0.3
				l-39.3,70.5l80.7,1.2c0.1,0,0.2,0.1,0.2,0.2l1.2,80.7l70.5-39.3C333.3,422.1,333.3,422.1,333.4,422.1z"/>
		</g>
		<g>
			<path class="st2" d="M375,309.5c-0.1,0-0.2,0-0.2-0.1l-7.7-12.9l-13.1,7.3c-0.1,0-0.2,0-0.2,0c-0.1,0-0.1-0.1-0.1-0.2l-0.2-15
				l-15-0.2c-0.1,0-0.2,0-0.2-0.1s0-0.2,0-0.2l7.3-13.1l-12.9-7.7c-0.1,0-0.1-0.1-0.1-0.2s0-0.2,0.1-0.2l12.9-7.7l-7.3-13.1
				c0-0.1,0-0.2,0-0.2c0-0.1,0.1-0.1,0.2-0.1l15-0.2l0.2-15c0-0.1,0-0.2,0.1-0.2s0.2,0,0.2,0l13.1,7.3l7.7-12.9
				c0.1-0.2,0.3-0.2,0.4,0l7.7,12.9l13.1-7.3c0.1,0,0.2,0,0.2,0c0.1,0,0.1,0.1,0.1,0.2l0.2,15l15,0.2c0.1,0,0.2,0,0.2,0.1
				s0,0.2,0,0.2l-7.3,13.1l12.9,7.7c0.1,0,0.1,0.1,0.1,0.2s0,0.2-0.1,0.2l-12.9,7.7l7.3,13.1c0,0.1,0,0.2,0,0.2
				c0,0.1-0.1,0.1-0.2,0.1l-15,0.2l-0.2,15c0,0.1,0,0.2-0.1,0.2s-0.2,0-0.2,0l-13.1-7.3l-7.7,12.9
				C375.2,309.5,375.1,309.5,375,309.5z M367.2,296c0.1,0,0.2,0,0.2,0.1l7.6,12.7l7.6-12.7c0.1-0.1,0.2-0.2,0.3-0.1l13,7.2l0.2-14.8
				c0-0.1,0.1-0.2,0.2-0.2l14.8-0.2l-7.2-13c-0.1-0.1,0-0.3,0.1-0.3l12.7-7.6l-12.7-7.6c-0.1-0.1-0.2-0.2-0.1-0.3l7.2-13l-14.8-0.2
				c-0.1,0-0.2-0.1-0.2-0.2l-0.2-14.8l-13,7.2c-0.1,0.1-0.3,0-0.3-0.1l-7.6-12.7l-7.6,12.7c-0.1,0.1-0.2,0.2-0.3,0.1l-13-7.2
				l-0.2,14.8c0,0.1-0.1,0.2-0.2,0.2l-14.8,0.2l7.2,13c0.1,0.1,0,0.3-0.1,0.3l-12.7,7.6l12.7,7.6c0.1,0.1,0.2,0.2,0.1,0.3l-7.2,13
				l14.8,0.2c0.1,0,0.2,0.1,0.2,0.2l0.2,14.8L367.2,296C367.1,296,367.1,296,367.2,296z"/>
		</g>
		<g>
			<path class="st2" d="M375,282.3c-0.1,0-0.2,0-0.2-0.1l-2.7-4.4l-4.5,2.5c-0.1,0-0.2,0-0.2,0c-0.1,0-0.1-0.1-0.1-0.2l-0.1-5.2
				l-5.2-0.1c-0.1,0-0.2,0-0.2-0.1s0-0.2,0-0.2l2.5-4.5l-4.4-2.7c-0.1,0-0.1-0.1-0.1-0.2s0-0.2,0.1-0.2l4.4-2.7l-2.5-4.5
				c0-0.1,0-0.2,0-0.2c0-0.1,0.1-0.1,0.2-0.1l5.2-0.1l0.1-5.2c0-0.1,0-0.2,0.1-0.2s0.2,0,0.2,0l4.5,2.5l2.7-4.4
				c0.1-0.2,0.3-0.2,0.4,0l2.7,4.4l4.5-2.5c0.1,0,0.2,0,0.2,0c0.1,0,0.1,0.1,0.1,0.2l0.1,5.2l5.2,0.1c0.1,0,0.2,0,0.2,0.1
				s0,0.2,0,0.2l-2.5,4.5l4.4,2.7c0.1,0,0.1,0.1,0.1,0.2s0,0.2-0.1,0.2l-4.4,2.7l2.5,4.5c0,0.1,0,0.2,0,0.2c0,0.1-0.1,0.1-0.2,0.1
				l-5.2,0.1l-0.1,5.2c0,0.1,0,0.2-0.1,0.2s-0.2,0-0.2,0l-4.5-2.5l-2.7,4.4C375.2,282.2,375.1,282.3,375,282.3z M372.2,277.1
				c0.1,0,0.2,0,0.2,0.1l2.6,4.3l2.6-4.3c0.1-0.1,0.2-0.2,0.3-0.1l4.4,2.4l0.1-5c0-0.1,0.1-0.2,0.2-0.2l5-0.1l-2.4-4.4
				c-0.1-0.1,0-0.3,0.1-0.3l4.3-2.6l-4.3-2.6c-0.1-0.1-0.2-0.2-0.1-0.3l2.4-4.4l-5-0.1c-0.1,0-0.2-0.1-0.2-0.2l-0.1-5l-4.4,2.4
				c-0.1,0.1-0.3,0-0.3-0.1l-2.6-4.3l-2.6,4.3c-0.1,0.1-0.2,0.2-0.3,0.1l-4.4-2.4l-0.1,5c0,0.1-0.1,0.2-0.2,0.2l-5,0.1l2.4,4.4
				c0.1,0.1,0,0.3-0.1,0.3l-4.3,2.6l4.3,2.6c0.1,0.1,0.2,0.2,0.1,0.3l-2.4,4.4l5,0.1c0.1,0,0.2,0.1,0.2,0.2l0.1,5L372.2,277.1
				C372.1,277.1,372.2,277.1,372.2,277.1z"/>
		</g>
		<polygon class="st2" points="375,261.6 376,263.3 377.7,262.3 377.7,264.3 379.7,264.3 378.7,266 380.4,267 378.7,268 
			379.7,269.7 377.7,269.7 377.7,271.7 376,270.7 375,272.4 374,270.7 372.3,271.7 372.3,269.7 370.3,269.7 371.3,268 369.6,267 
			371.3,266 370.3,264.3 372.3,264.3 372.3,262.3 374,263.3 		"/>
		<g>
			<path class="st2" d="M375,302.1c-0.2,0-0.3-0.1-0.4-0.2l-6.2-10.3l-10.5,5.8c-0.2,0.1-0.3,0.1-0.5,0s-0.2-0.2-0.3-0.4l-0.2-12
				l-12-0.2c-0.2,0-0.3-0.1-0.4-0.3c-0.1-0.2-0.1-0.3,0-0.5l5.8-10.5l-10.3-6.2c-0.2-0.1-0.2-0.3-0.2-0.4s0.1-0.3,0.2-0.4l10.3-6.2
				l-5.8-10.5c-0.1-0.2-0.1-0.3,0-0.5s0.2-0.2,0.4-0.3l12-0.2l0.2-12c0-0.2,0.1-0.3,0.3-0.4c0.2-0.1,0.3-0.1,0.5,0l10.5,5.8
				l6.2-10.3c0.2-0.3,0.7-0.3,0.9,0l6.2,10.3l10.5-5.8c0.2-0.1,0.3-0.1,0.5,0s0.2,0.2,0.3,0.4l0.2,12l12,0.2c0.2,0,0.3,0.1,0.4,0.3
				s0.1,0.3,0,0.5l-5.8,10.5l10.3,6.2c0.2,0.1,0.2,0.3,0.2,0.4s-0.1,0.3-0.2,0.4l-10.3,6.2l5.8,10.5c0.1,0.2,0.1,0.3,0,0.5
				s-0.2,0.2-0.4,0.3l-12,0.2l-0.2,12c0,0.2-0.1,0.3-0.3,0.4c-0.2,0.1-0.3,0.1-0.5,0l-10.5-5.8l-6.2,10.3
				C375.3,302,375.2,302.1,375,302.1z M368.6,290.4c0.2,0,0.3,0.1,0.4,0.2l6,10l6-10c0.1-0.2,0.4-0.3,0.7-0.2l10.2,5.7l0.2-11.6
				c0-0.3,0.2-0.5,0.5-0.5l11.6-0.2l-5.7-10.2c-0.1-0.2-0.1-0.5,0.2-0.7l10-6l-10-6c-0.2-0.1-0.3-0.4-0.2-0.7l5.7-10.2l-11.6-0.2
				c-0.3,0-0.5-0.2-0.5-0.5l-0.2-11.6l-10.2,5.7c-0.2,0.1-0.5,0.1-0.7-0.2l-6-10l-6,10c-0.1,0.2-0.4,0.3-0.7,0.2l-10.2-5.7
				l-0.2,11.6c0,0.3-0.2,0.5-0.5,0.5l-11.6,0.2l5.7,10.2c0.1,0.2,0.1,0.5-0.2,0.7l-10,6l10,6c0.2,0.1,0.3,0.4,0.2,0.7l-5.7,10.2
				l11.6,0.2c0.3,0,0.5,0.2,0.5,0.5l0.2,11.6l10.2-5.7C368.4,290.4,368.5,290.4,368.6,290.4z"/>
		</g>
		<g>
			<path class="st2" d="M375,492.2L375,492.2L262.4,462c0,0-0.1,0-0.1-0.1L180,379.7l-0.1-0.1l-30.1-112.5V267l30.1-112.5
				c0,0,0-0.1,0.1-0.1L262.3,72l0.1-0.1l112.5-30.1h0.1l112.5,30.1c0,0,0.1,0,0.1,0.1l82.4,82.4l0.1,0.1L600.2,267v0.1l-30.1,112.5
				c0,0,0,0.1-0.1,0.1L487.7,462l-0.1,0.1L375,492.2L375,492.2z M262.6,461.6L375,491.7l112.4-30.1l82.3-82.3l30-112.3l-30.1-112.4
				l-82.3-82.3L375,42.3L262.6,72.4l-82.3,82.3l-30,112.3l30.1,112.4L262.6,461.6z"/>
		</g>
		<g>
			<path class="st2" d="M375,492.2c-0.1,0-0.2-0.1-0.2-0.2l-20-149.6L262.7,462c-0.1,0.1-0.2,0.1-0.3,0.1c-0.1-0.1-0.2-0.2-0.1-0.3
				l57.5-139.5l-139.5,57.5c-0.1,0-0.2,0-0.3-0.1s0-0.2,0.1-0.3l119.5-92.1l-149.6-20c-0.1,0-0.2-0.1-0.2-0.2s0.1-0.2,0.2-0.2
				l149.6-20L180,154.7c-0.1-0.1-0.1-0.2-0.1-0.3c0.1-0.1,0.2-0.2,0.3-0.1l139.5,57.5L262.3,72.2c0-0.1,0-0.2,0.1-0.3
				c0.1-0.1,0.2,0,0.3,0.1l92.1,119.5l20-149.6c0-0.1,0.1-0.2,0.2-0.2s0.2,0.1,0.2,0.2l20,149.6L487.3,72c0.1-0.1,0.2-0.1,0.3-0.1
				c0.1,0.1,0.2,0.2,0.1,0.3l-57.5,139.5l139.5-57.5c0.1,0,0.3,0,0.3,0.1c0.1,0.1,0,0.2-0.1,0.3l-119.5,92.1l149.6,20
				c0.1,0,0.2,0.1,0.2,0.2s-0.1,0.2-0.2,0.2l-149.6,20L570,379.3c0.1,0.1,0.1,0.2,0.1,0.3c-0.1,0.1-0.2,0.2-0.3,0.1l-139.5-57.5
				l57.5,139.5c0,0.1,0,0.3-0.1,0.3c-0.1,0.1-0.2,0-0.3-0.1l-92.1-119.5l-20,149.6C375.2,492.1,375.1,492.2,375,492.2z M354.9,341.6
				C355,341.6,355,341.6,354.9,341.6c0.2,0,0.2,0.1,0.2,0.2L375,490.1l19.8-148.3c0-0.1,0.1-0.2,0.2-0.2s0.2,0,0.3,0.1l91.3,118.5
				l-57-138.3c0-0.1,0-0.2,0.1-0.3c0.1-0.1,0.2-0.1,0.3-0.1l138.3,57l-118.5-91.3c-0.1-0.1-0.1-0.2-0.1-0.3c0-0.1,0.1-0.2,0.2-0.2
				L598.1,267l-148.3-19.8c-0.1,0-0.2-0.1-0.2-0.2c0-0.1,0-0.2,0.1-0.3l118.5-91.3l-138.3,57c-0.1,0-0.2,0-0.3-0.1
				c-0.1-0.1-0.1-0.2-0.1-0.3l57-138.3l-91.3,118.5c-0.1,0.1-0.2,0.1-0.3,0.1c-0.1,0-0.2-0.1-0.2-0.2L375,43.9l-19.8,148.3
				c0,0.1-0.1,0.2-0.2,0.2s-0.2,0-0.3-0.1L263.4,73.8l57,138.3c0,0.1,0,0.2-0.1,0.3s-0.2,0.1-0.3,0.1l-138.3-57l118.5,91.3
				c0.1,0.1,0.1,0.2,0.1,0.3s-0.1,0.2-0.2,0.2L151.9,267l148.3,19.8c0.1,0,0.2,0.1,0.2,0.2s0,0.2-0.1,0.3l-118.5,91.3l138.3-57
				c0.1,0,0.2,0,0.3,0.1c0.1,0.1,0.1,0.2,0.1,0.3l-57,138.3l91.3-118.5C354.8,341.6,354.9,341.6,354.9,341.6z"/>
		</g>
		<g>
			<path class="st2" d="M395.1,342.1H355h-0.1L320.1,322l-0.1-0.1l-20.1-34.7v-0.1V247v-0.1l20.1-34.7l0.1-0.1l34.7-20.1h0.1H395
				h0.1l34.7,20.1l0.1,0.1l20.1,34.7v0.1v40.1v0.1l-20,34.7l-0.1,0.1L395.1,342.1C395.1,342.1,395.1,342.1,395.1,342.1z M355,341.6
				h40l34.6-20l20-34.6v-40l-20-34.6l-34.6-20h-40l-34.6,20l-20,34.6v40l20,34.6L355,341.6z"/>
		</g>
		<g>
			<path class="st2" d="M393,334.7h-36c-0.1,0-0.2,0-0.3-0.1l-31.2-18c-0.1,0-0.1-0.1-0.2-0.2l-18-31.2c0-0.1-0.1-0.2-0.1-0.3v-36
				c0-0.1,0-0.2,0.1-0.3l18-31.2c0-0.1,0.1-0.1,0.2-0.2l31.2-18c0.1,0,0.2-0.1,0.3-0.1h36c0.1,0,0.2,0,0.3,0.1l31.2,18
				c0.1,0,0.1,0.1,0.2,0.2l18,31.2c0,0.1,0.1,0.2,0.1,0.3v36c0,0.1,0,0.2-0.1,0.3l-18,31.2c0,0.1-0.1,0.1-0.2,0.2l-31.2,18
				C393.2,334.7,393.1,334.7,393,334.7z M357.1,333.7h35.7l31-17.9l17.9-31v-35.7l-17.9-31l-31-17.9h-35.7l-31,17.9l-17.9,31v35.7
				l17.9,31L357.1,333.7z"/>
		</g>
		<g>
			<path class="st2" d="M391,326.8h-32h-0.1l-27.6-16l-0.1-0.1l-16-27.6V283v-32v-0.1l16-27.6l0.1-0.1l27.6-16h0.1h32h0.1l27.6,16
				l0.1,0.1l16,27.6v0.1v32v0.1l-16,27.6l-0.1,0.1l-27.6,16C391,326.8,391,326.8,391,326.8z M359.1,326.3h31.8l27.5-15.9l15.9-27.5
				v-31.8l-15.9-27.5l-27.5-15.9h-31.8l-27.5,15.9l-15.9,27.5v31.8l15.9,27.5L359.1,326.3z"/>
		</g>
	</g>
	<g>
		<g>
			<g>
				<path id="SVGID_x5F_2_x5F_" class="st3" d="M316.7,166.1c17.1-9.9,37-15.6,58.3-15.6"/>
				<text class="st4 st5 st6">    </text>
				<text transform="matrix(1 0 0 1 316.6941 166.0896)" class="st4 st5 st6"> </text>
				<text transform="matrix(1 0 0 1 319.5925 164.4396)" class="st7 st8 st9">P</text>
				<text transform="matrix(1 0 0 1 324.7246 161.8553)" class="st7 st8 st9">I</text>
				<text transform="matrix(1 0 0 1 327.1292 160.7136)" class="st7 st8 st9">S</text>
				<text transform="matrix(1 0 0 1 331.9493 158.6599)" class="st7 st8 st9">C</text>
				<text transform="matrix(1 0 0 1 337.6044 156.5904)" class="st7 st8 st9">E</text>
				<text transform="matrix(1 0 0 1 342.6713 155.0059)" class="st7 st8 st9">S</text>
				<text transform="matrix(1 0 0 1 347.7411 153.6884)" class="st4 st5 st6"> </text>
				<text transform="matrix(1 0 0 1 350.9946 152.959)" class="st4 st5 st6"> </text>
				<text transform="matrix(1 0 0 1 354.2677 152.3235)" class="st4 st5 st6"> </text>
				<text transform="matrix(1 0 0 1 357.5577 151.7822)" class="st4 st5 st6"> </text>
				<text class="st4 st5 st6"> </text>
				<path id="SVGID_x5F_3_x5F_" class="st3" d="M274.1,208.7c9.9-17.2,24.3-32,42.7-42.6"/>
				<text class="st4 st5 st6">    </text>
				<text transform="matrix(1 0 0 1 274.0897 208.6939)" class="st4 st5 st6"> </text>
				<text transform="matrix(1 0 0 1 275.7712 205.8135)" class="st7 st8 st9">A</text>
				<text transform="matrix(1 0 0 1 279.0513 200.7391)" class="st7 st8 st9">Q</text>
				<text transform="matrix(1 0 0 1 283.4717 194.7607)" class="st7 st8 st9">U</text>
				<text transform="matrix(1 0 0 1 287.9451 189.45)" class="st7 st8 st9">A</text>
				<text transform="matrix(1 0 0 1 292.0847 185.0504)" class="st7 st8 st9">R</text>
				<text transform="matrix(1 0 0 1 296.369 180.9854)" class="st7 st8 st9">I</text>
				<text transform="matrix(1 0 0 1 298.3308 179.1805)" class="st7 st8 st9">U</text>
				<text transform="matrix(1 0 0 1 303.724 174.7983)" class="st7 st8 st9">S</text>
				<text transform="matrix(1 0 0 1 307.9568 171.7124)" class="st4 st5 st6"> </text>
				<text transform="matrix(1 0 0 1 310.7147 169.8387)" class="st4 st5 st6"> </text>
				<text transform="matrix(1 0 0 1 313.5244 168.0435)" class="st4 st5 st6"> </text>
				<text class="st4 st5 st6"> </text>
				<path id="SVGID_x5F_4_x5F_" class="st3" d="M258.4,267c0-19.8,5-39.9,15.6-58.3"/>
				<text class="st4 st5 st6">    </text>
				<text transform="matrix(1 0 0 1 258.3882 266.9999)" class="st4 st5 st6"> </text>
				<text transform="matrix(1 0 0 1 258.4087 263.6647)" class="st7 st8 st9">C</text>
				<text transform="matrix(1 0 0 1 258.7336 257.6511)" class="st7 st8 st9">A</text>
				<text transform="matrix(1 0 0 1 259.3737 251.6443)" class="st7 st8 st9">P</text>
				<text transform="matrix(1 0 0 1 260.265 245.9666)" class="st7 st8 st9">R</text>
				<text transform="matrix(1 0 0 1 261.5013 240.1978)" class="st7 st8 st9">I</text>
				<text transform="matrix(1 0 0 1 262.1111 237.6063)" class="st7 st8 st9">C</text>
				<text transform="matrix(1 0 0 1 263.7578 231.8123)" class="st7 st8 st9">O</text>
				<text transform="matrix(1 0 0 1 266.2451 224.8065)" class="st7 st8 st9">R</text>
				<text transform="matrix(1 0 0 1 268.5022 219.353)" class="st7 st8 st9">N</text>
				<text transform="matrix(1 0 0 1 271.6804 212.8976)" class="st4 st5 st6"> </text>
				<text class="st4 st5 st6"> </text>
				<path id="SVGID_x5F_5_x5F_" class="st3" d="M274.1,325.3c-9.9-17.1-15.6-37-15.6-58.3"/>
				<text class="st4 st5 st6">    </text>
				<text transform="matrix(1 0 0 1 274.0896 325.3059)" class="st4 st5 st6"> </text>
				<text transform="matrix(1 0 0 1 272.4449 322.4048)" class="st7 st8 st9">S</text>
				<text transform="matrix(1 0 0 1 270.0469 317.7463)" class="st7 st8 st9">A</text>
				<text transform="matrix(1 0 0 1 267.5449 312.2471)" class="st7 st8 st9">G</text>
				<text transform="matrix(1 0 0 1 265.0822 305.7499)" class="st7 st8 st9">I</text>
				<text transform="matrix(1 0 0 1 264.2054 303.2366)" class="st7 st8 st9">T</text>
				<text transform="matrix(1 0 0 1 262.6722 298.1826)" class="st7 st8 st9">A</text>
				<text transform="matrix(1 0 0 1 261.2158 292.3199)" class="st7 st8 st9">R</text>
				<text transform="matrix(1 0 0 1 260.1177 286.5232)" class="st7 st8 st9">I</text>
				<text transform="matrix(1 0 0 1 259.662 283.8995)" class="st7 st8 st9">U</text>
				<text transform="matrix(1 0 0 1 258.8923 276.9932)" class="st7 st8 st9">S</text>
				<text transform="matrix(1 0 0 1 258.5837 271.764)" class="st4 st5 st6"> </text>
				<text class="st4 st5 st6"> </text>
				<path id="SVGID_x5F_6_x5F_" class="st3" d="M316.7,367.9c-17.2-9.9-32-24.3-42.6-42.7"/>
				<text class="st4 st5 st6">    </text>
				<text transform="matrix(1 0 0 1 316.694 367.9103)" class="st4 st5 st6"> </text>
				<text transform="matrix(1 0 0 1 313.819 366.2206)" class="st7 st8 st9">S</text>
				<text transform="matrix(1 0 0 1 309.4132 363.3848)" class="st7 st8 st9">C</text>
				<text transform="matrix(1 0 0 1 304.5077 359.8892)" class="st7 st8 st9">O</text>
				<text transform="matrix(1 0 0 1 298.7501 355.1948)" class="st7 st8 st9">R</text>
				<text transform="matrix(1 0 0 1 294.387 351.2159)" class="st7 st8 st9">P</text>
				<text transform="matrix(1 0 0 1 290.3641 347.1187)" class="st7 st8 st9">I</text>
				<text transform="matrix(1 0 0 1 288.5157 345.1897)" class="st7 st8 st9">O</text>
				<text transform="matrix(1 0 0 1 283.7582 339.4784)" class="st4 st5 st6"> </text>
				<text transform="matrix(1 0 0 1 281.7281 336.8334)" class="st4 st5 st6"> </text>
				<text transform="matrix(1 0 0 1 279.7744 334.1316)" class="st4 st5 st6"> </text>
				<text transform="matrix(1 0 0 1 277.8982 331.3754)" class="st4 st5 st6"> </text>
				<text class="st4 st5 st6"> </text>
				<path id="SVGID_x5F_7_x5F_" class="st3" d="M375,383.6c-19.8,0-39.9-5-58.3-15.6"/>
				<text class="st4 st5 st6">    </text>
				<text transform="matrix(1 0 0 1 374.9999 383.6118)" class="st4 st5 st6"> </text>
				<text transform="matrix(1 0 0 1 371.6654 383.5789)" class="st7 st8 st9">L</text>
				<text transform="matrix(1 0 0 1 366.7186 383.3152)" class="st7 st8 st9">I</text>
				<text transform="matrix(1 0 0 1 364.0626 383.1305)" class="st7 st8 st9">B</text>
				<text transform="matrix(1 0 0 1 357.922 382.3876)" class="st7 st8 st9">R</text>
				<text transform="matrix(1 0 0 1 352.1072 381.3815)" class="st7 st8 st9">A</text>
				<text transform="matrix(1 0 0 1 346.223 380.0195)" class="st4 st5 st6"> </text>
				<text transform="matrix(1 0 0 1 343.0037 379.1517)" class="st4 st5 st6"> </text>
				<text transform="matrix(1 0 0 1 339.8107 378.1919)" class="st4 st5 st6"> </text>
				<text transform="matrix(1 0 0 1 336.6464 377.1409)" class="st4 st5 st6"> </text>
				<text class="st4 st5 st6"> </text>
				<path id="SVGID_x5F_8_x5F_" class="st3" d="M433.3,367.9c-17.1,9.9-37,15.6-58.3,15.6"/>
				<text class="st4 st5 st6">    </text>
				<text transform="matrix(1 0 0 1 433.3059 367.9104)" class="st4 st5 st6"> </text>
				<text transform="matrix(1 0 0 1 430.4071 369.5596)" class="st7 st8 st9">V</text>
				<text transform="matrix(1 0 0 1 425.3342 372.1165)" class="st7 st8 st9">I</text>
				<text transform="matrix(1 0 0 1 422.9335 373.2669)" class="st7 st8 st9">R</text>
				<text transform="matrix(1 0 0 1 417.5001 375.5713)" class="st7 st8 st9">G</text>
				<text transform="matrix(1 0 0 1 410.9568 377.9166)" class="st7 st8 st9">O</text>
				<text transform="matrix(1 0 0 1 403.8019 379.931)" class="st4 st5 st6"> </text>
				<text transform="matrix(1 0 0 1 400.5588 380.705)" class="st4 st5 st6"> </text>
				<text transform="matrix(1 0 0 1 397.2947 381.3853)" class="st4 st5 st6"> </text>
				<text transform="matrix(1 0 0 1 394.0125 381.9716)" class="st4 st5 st6"> </text>
				<text class="st4 st5 st6"> </text>
				<path id="SVGID_x5F_9_x5F_" class="st3" d="M475.9,325.3c-9.9,17.2-24.3,32-42.7,42.6"/>
				<text class="st4 st5 st6">    </text>
				<text transform="matrix(1 0 0 1 475.9104 325.306)" class="st4 st5 st6"> </text>
				<text transform="matrix(1 0 0 1 474.2179 328.1794)" class="st7 st8 st9">L</text>
				<text transform="matrix(1 0 0 1 471.5371 332.3463)" class="st7 st8 st9">E</text>
				<text transform="matrix(1 0 0 1 468.4885 336.6945)" class="st7 st8 st9">O</text>
				<text transform="matrix(1 0 0 1 463.822 342.4792)" class="st4 st5 st6"> </text>
				<text transform="matrix(1 0 0 1 461.629 344.9836)" class="st4 st5 st6"> </text>
				<text transform="matrix(1 0 0 1 459.3572 347.4312)" class="st4 st5 st6"> </text>
				<text transform="matrix(1 0 0 1 457.0225 349.8045)" class="st4 st5 st6"> </text>
				<text class="st4 st5 st6"> </text>
				<path id="SVGID_x5F_10_x5F_" class="st3" d="M491.6,267c0,19.8-5,39.9-15.6,58.3"/>
				<text class="st4 st5 st6">    </text>
				<text transform="matrix(1 0 0 1 491.6118 267.0001)" class="st4 st5 st6"> </text>
				<text transform="matrix(1 0 0 1 491.5913 270.3353)" class="st7 st8 st9">C</text>
				<text transform="matrix(1 0 0 1 491.2664 276.3489)" class="st7 st8 st9">A</text>
				<text transform="matrix(1 0 0 1 490.6462 282.3588)" class="st7 st8 st9">N</text>
				<text transform="matrix(1 0 0 1 489.467 289.4583)" class="st7 st8 st9">C</text>
				<text transform="matrix(1 0 0 1 488.15 295.3344)" class="st7 st8 st9">E</text>
				<text transform="matrix(1 0 0 1 486.752 300.4562)" class="st7 st8 st9">R</text>
				<text transform="matrix(1 0 0 1 484.8938 306.056)" class="st4 st5 st6"> </text>
				<text transform="matrix(1 0 0 1 483.7324 309.1814)" class="st4 st5 st6"> </text>
				<text transform="matrix(1 0 0 1 482.4819 312.2722)" class="st4 st5 st6"> </text>
				<text transform="matrix(1 0 0 1 481.1437 315.326)" class="st4 st5 st6"> </text>
				<text class="st4 st5 st6"> </text>
				<path id="SVGID_x5F_11_x5F_" class="st3" d="M475.9,208.7c9.9,17.1,15.6,37,15.6,58.3"/>
				<text class="st4 st5 st6">    </text>
				<text transform="matrix(1 0 0 1 475.9104 208.6941)" class="st4 st5 st6"> </text>
				<text transform="matrix(1 0 0 1 477.5751 211.585)" class="st7 st8 st9">G</text>
				<text transform="matrix(1 0 0 1 480.6791 217.8025)" class="st7 st8 st9">E</text>
				<text transform="matrix(1 0 0 1 482.8578 222.647)" class="st7 st8 st9">M</text>
				<text transform="matrix(1 0 0 1 485.7687 230.7568)" class="st7 st8 st9">I</text>
				<text transform="matrix(1 0 0 1 486.6125 233.2827)" class="st7 st8 st9">N</text>
				<text transform="matrix(1 0 0 1 488.4266 240.2455)" class="st7 st8 st9">I</text>
				<text transform="matrix(1 0 0 1 489.009 242.8422)" class="st4 st5 st6"> </text>
				<text transform="matrix(1 0 0 1 489.6489 246.1144)" class="st4 st5 st6"> </text>
				<text transform="matrix(1 0 0 1 490.1946 249.4036)" class="st4 st5 st6"> </text>
				<text transform="matrix(1 0 0 1 490.6459 252.7072)" class="st4 st5 st6"> </text>
				<text class="st4 st5 st6"> </text>
				<path id="SVGID_x5F_12_x5F_" class="st3" d="M433.3,166.1c17.2,9.9,32,24.3,42.6,42.7"/>
				<text class="st4 st5 st6">    </text>
				<text transform="matrix(1 0 0 1 433.3062 166.0897)" class="st4 st5 st6"> </text>
				<text transform="matrix(1 0 0 1 436.1813 167.7791)" class="st7 st8 st9">T</text>
				<text transform="matrix(1 0 0 1 440.6216 170.6386)" class="st7 st8 st9">A</text>
				<text transform="matrix(1 0 0 1 445.5358 174.1534)" class="st7 st8 st9">U</text>
				<text transform="matrix(1 0 0 1 450.929 178.5285)" class="st7 st8 st9">R</text>
				<text transform="matrix(1 0 0 1 455.3176 182.4788)" class="st7 st8 st9">U</text>
				<text transform="matrix(1 0 0 1 460.1884 187.4389)" class="st7 st8 st9">S</text>
				<text transform="matrix(1 0 0 1 463.6572 191.3674)" class="st4 st5 st6"> </text>
				<text transform="matrix(1 0 0 1 465.7788 193.9396)" class="st4 st5 st6"> </text>
				<text transform="matrix(1 0 0 1 467.8256 196.5715)" class="st4 st5 st6"> </text>
				<text transform="matrix(1 0 0 1 469.7964 199.2609)" class="st4 st5 st6"> </text>
				<text class="st4 st5 st6"> </text>
				<path id="SVGID_x5F_13_x5F_" class="st3" d="M375,150.4c19.8,0,39.9,5,58.3,15.6"/>
				<text class="st4 st5 st6">    </text>
				<text transform="matrix(1 0 0 1 375.0001 150.3882)" class="st4 st5 st6"> </text>
				<text transform="matrix(1 0 0 1 378.3352 150.4084)" class="st7 st8 st9">A</text>
				<text transform="matrix(1 0 0 1 384.3672 150.7369)" class="st7 st8 st9">R</text>
				<text transform="matrix(1 0 0 1 390.2313 151.3854)" class="st7 st8 st9">I</text>
				<text transform="matrix(1 0 0 1 392.8696 151.7391)" class="st7 st8 st9">E</text>
				<text transform="matrix(1 0 0 1 398.0963 152.6693)" class="st7 st8 st9">S</text>
				<text transform="matrix(1 0 0 1 403.2029 153.8362)" class="st4 st5 st6"> </text>
				<text transform="matrix(1 0 0 1 406.4266 154.6875)" class="st4 st5 st6"> </text>
				<text transform="matrix(1 0 0 1 409.6246 155.631)" class="st4 st5 st6"> </text>
				<text transform="matrix(1 0 0 1 412.7942 156.666)" class="st4 st5 st6"> </text>
				<text class="st4 st5 st6"> </text>
			</g>
		</g>
		<g>
			<g>
				<g>
					<g>
						<path class="st7" d="M345.5,114.2h-24.2c-0.6,0-1-0.4-1-1s0.4-1,1-1h24.2c0.6,0,1,0.4,1,1C346.5,113.7,346,114.2,345.5,114.2z
							"/>
					</g>
					<g>
						<g>
							<path class="st7" d="M347.7,131.1c-0.2,0-0.5-0.1-0.6-0.2c-5.2-4.4-8.2-10.8-8.2-17.7c0-6.8,3-13.3,8.2-17.7
								c0.4-0.4,1.1-0.3,1.4,0.1c0.4,0.4,0.3,1.1-0.1,1.4c-4.8,4-7.5,9.9-7.5,16.1s2.7,12.1,7.5,16.1c0.4,0.4,0.5,1,0.1,1.4
								C348.3,131,348,131.1,347.7,131.1z"/>
						</g>
						<g>
							<path class="st7" d="M319.1,131.1c-0.3,0-0.6-0.1-0.8-0.4c-0.4-0.4-0.3-1.1,0.1-1.4c4.8-4,7.5-9.9,7.5-16.1
								s-2.7-12.1-7.5-16.1c-0.4-0.4-0.5-1-0.1-1.4s1-0.5,1.4-0.1c5.2,4.4,8.2,10.8,8.2,17.7c0,6.8-3,13.3-8.2,17.7
								C319.5,131,319.3,131.1,319.1,131.1z"/>
						</g>
					</g>
				</g>
				<g>
					<g>
						<path class="st7" d="M416.6,131.3c-0.6,0-1-0.4-1-1c0-23.7-3.3-30.9-6.1-32.7c-1.1-0.7-2.3-0.8-3.7-0.1
							c-1.6,0.7-2.5,1.6-2.8,2.7c-0.5,2,1.3,4.2,1.3,4.2c0.3,0.4,0.3,1.1-0.1,1.4c-0.4,0.4-1.1,0.3-1.4-0.1c-0.1-0.1-2.4-3-1.7-5.9
							c0.4-1.7,1.8-3.1,4-4.1c2.1-0.9,4-0.8,5.6,0.3c4.7,3.1,7,14.4,7,34.4C417.6,130.9,417.1,131.3,416.6,131.3z"/>
					</g>
					<g>
						<path class="st7" d="M416.6,131.3c-0.6,0-1-0.4-1-1c0-20,2.3-31.3,7-34.4c1.7-1.1,3.5-1.2,5.6-0.3c2.2,0.9,3.6,2.3,4,4.1
							c0.7,3-1.6,5.8-1.7,5.9c-0.4,0.4-1,0.5-1.4,0.1s-0.5-1-0.1-1.4c0,0,1.8-2.2,1.3-4.2c-0.3-1.1-1.2-2-2.8-2.7
							c-1.4-0.6-2.7-0.6-3.7,0.1c-2.8,1.8-6.1,9-6.1,32.7C417.6,130.9,417.1,131.3,416.6,131.3z"/>
					</g>
				</g>
				<g>
					<g>
						<path class="st7" d="M531.2,220.4c-6.8,0-13.3-3-17.7-8.2c-0.4-0.4-0.3-1.1,0.1-1.4c0.4-0.4,1.1-0.3,1.4,0.1
							c4,4.8,9.9,7.5,16.1,7.5c6.2,0,12.1-2.7,16.1-7.5c0.4-0.4,1-0.5,1.4-0.1s0.5,1,0.1,1.4C544.5,217.4,538.1,220.4,531.2,220.4z"
							/>
					</g>
					<g>
						<path class="st7" d="M514.3,246.9c-0.2,0-0.5-0.1-0.6-0.2c-0.4-0.4-0.5-1-0.1-1.4c4.4-5.2,10.8-8.2,17.7-8.2
							c6.8,0,13.3,3,17.7,8.2c0.4,0.4,0.3,1.1-0.1,1.4c-0.4,0.4-1.1,0.3-1.4-0.1c-4-4.8-9.9-7.5-16.1-7.5c-6.2,0-12.1,2.7-16.1,7.5
							C514.9,246.7,514.6,246.9,514.3,246.9z"/>
					</g>
					<g>
						<g>
							<path class="st7" d="M521.2,241.4c-0.6,0-1-0.4-1-1V217c0-0.6,0.4-1,1-1s1,0.4,1,1v23.4C522.2,240.9,521.8,241.4,521.2,241.4
								z"/>
						</g>
						<g>
							<path class="st7" d="M541.3,241.4c-0.6,0-1-0.4-1-1V217c0-0.6,0.4-1,1-1s1,0.4,1,1v23.4C542.3,240.9,541.8,241.4,541.3,241.4
								z"/>
						</g>
					</g>
				</g>
				<g>
					<g>
						<g>
							<path class="st7" d="M519.5,306.8c-3.6,0-6.5-2.9-6.5-6.5s2.9-6.5,6.5-6.5s6.5,2.9,6.5,6.5S523.1,306.8,519.5,306.8z
								 M519.5,295.9c-2.5,0-4.5,2-4.5,4.5s2,4.5,4.5,4.5s4.5-2,4.5-4.5S522,295.9,519.5,295.9z"/>
						</g>
						<g>
							<path class="st7" d="M514.1,301.4c-0.6,0-1-0.4-1-1c0-6.4,8.3-11.4,19-11.4c7.4,0,13.9,2.4,17.1,6.4c0.3,0.4,0.3,1.1-0.1,1.4
								c-0.4,0.4-1.1,0.3-1.4-0.1c-2.8-3.4-8.9-5.6-15.5-5.6c-9.2,0-17,4.3-17,9.4C515.1,300.9,514.6,301.4,514.1,301.4z"/>
						</g>
					</g>
					<g>
						<g>
							<path class="st7" d="M542.9,313.4c-3.6,0-6.5-2.9-6.5-6.5s2.9-6.5,6.5-6.5s6.5,2.9,6.5,6.5S546.5,313.4,542.9,313.4z
								 M542.9,302.4c-2.5,0-4.5,2-4.5,4.5s2,4.5,4.5,4.5s4.5-2,4.5-4.5S545.4,302.4,542.9,302.4z"/>
						</g>
						<g>
							<path class="st7" d="M530.4,318.3c-7.4,0-13.9-2.4-17.1-6.4c-0.3-0.4-0.3-1.1,0.1-1.4c0.4-0.3,1.1-0.3,1.4,0.1
								c2.8,3.4,8.9,5.6,15.5,5.6c9.2,0,17-4.3,17-9.4c0-0.6,0.4-1,1-1s1,0.4,1,1C549.4,313.3,541,318.3,530.4,318.3z"/>
						</g>
					</g>
				</g>
				<g>
					<g>
						<path class="st7" d="M476.5,387.9c-3.6,0-6.5-2.9-6.5-6.5s2.9-6.5,6.5-6.5s6.5,2.9,6.5,6.5S480.1,387.9,476.5,387.9z
							 M476.5,377c-2.5,0-4.5,2-4.5,4.5s2,4.5,4.5,4.5s4.5-2,4.5-4.5S479,377,476.5,377z"/>
					</g>
					<g>
						<path class="st7" d="M498.1,395.8c-1.7,0-3.2-0.8-4.2-2.1c-1-1.4-1.2-3-0.7-4.6c5.4-16.1,3.2-22.9,0.5-25.8
							c-2.4-2.5-5.9-2.5-8.1-1.8c-2,0.6-3.4,1.8-4.3,3.6c-1.5,3.2-1.1,8.4,1.3,14.1c0.2,0.5,0,1.1-0.5,1.3c-0.5,0.2-1.1,0-1.3-0.5
							c-1.2-3-3.7-10.4-1.2-15.7c1.1-2.3,2.9-3.8,5.5-4.6c2.9-0.9,7.1-0.8,10.2,2.3c3.2,3.3,5.8,10.7,0,27.8c-0.3,1-0.2,2,0.4,2.8
							s1.5,1.3,2.6,1.3c1.3,0,2.5-0.8,2.9-2l2-5.2c0.2-0.5,0.8-0.8,1.3-0.6c0.5,0.2,0.8,0.8,0.6,1.3l-2,5.2
							C502.1,394.4,500.2,395.8,498.1,395.8z"/>
					</g>
				</g>
				<g>
					<g>
						<path class="st7" d="M410,436.9c-0.6,0-1-0.4-1-1v-25.8c0-1.8-1.5-3.2-3.2-3.2c-1.8,0-3.2,1.5-3.2,3.2v25.8c0,0.6-0.4,1-1,1
							s-1-0.4-1-1v-25.8c0-2.9,2.4-5.2,5.2-5.2c2.9,0,5.2,2.4,5.2,5.2v25.8C411,436.4,410.5,436.9,410,436.9z"/>
					</g>
					<g>
						<path class="st7" d="M401.5,436.9c-0.6,0-1-0.4-1-1v-25.8c0-1.8-1.5-3.2-3.2-3.2c-0.6,0-1-0.4-1-1s0.4-1,1-1
							c2.9,0,5.2,2.4,5.2,5.2v25.8C402.5,436.4,402,436.9,401.5,436.9z"/>
					</g>
					<g>
						<path class="st7" d="M422.3,441.6c-2.6,0-4.8-2.2-4.8-4.8v-26.7c0-1.8-1.5-3.2-3.2-3.2s-3.2,1.5-3.2,3.2v25.8c0,0.6-0.4,1-1,1
							s-1-0.4-1-1v-25.8c0-2.9,2.4-5.2,5.2-5.2c2.9,0,5.2,2.4,5.2,5.2v26.7c0,1.5,1.3,2.8,2.8,2.8s2.8-1.3,2.8-2.8c0-0.6,0.4-1,1-1
							s1,0.4,1,1C427.1,439.5,424.9,441.6,422.3,441.6z"/>
					</g>
					<g>
						<path class="st7" d="M413.4,441.6c-0.4,0-0.7-0.2-0.9-0.5c-0.3-0.5-0.1-1.1,0.4-1.4c0.1-0.1,9.8-5.3,10.2-11.6
							c0.1-1.8-0.3-3.2-1.1-3.7c-0.4-0.3-0.9-0.3-1.4,0c-0.8,0.4-1.2,1.4-1.2,2.5c0,0.6-0.4,1-1,1s-1-0.4-1-1c0-1.9,0.8-3.5,2.3-4.3
							c1.1-0.6,2.4-0.6,3.4,0.1c0.9,0.5,2.2,2,2,5.6c-0.5,7.4-10.8,13-11.3,13.2C413.7,441.6,413.5,441.6,413.4,441.6z"/>
					</g>
				</g>
				<g>
					<g>
						<path class="st7" d="M261.1,389.6c-0.6,0-1-0.4-1-1v-25.8c0-1.8-1.5-3.2-3.2-3.2c-1.8,0-3.2,1.5-3.2,3.2v25.8c0,0.6-0.4,1-1,1
							s-1-0.4-1-1v-25.8c0-2.9,2.4-5.2,5.2-5.2c2.9,0,5.2,2.4,5.2,5.2v25.8C262.1,389.2,261.7,389.6,261.1,389.6z"/>
					</g>
					<g>
						<path class="st7" d="M252.6,389.6c-0.6,0-1-0.4-1-1v-25.8c0-1.8-1.5-3.2-3.2-3.2c-0.6,0-1-0.4-1-1s0.4-1,1-1
							c2.9,0,5.2,2.4,5.2,5.2v25.8C253.6,389.2,253.2,389.6,252.6,389.6z"/>
					</g>
					<g>
						<path class="st7" d="M279.7,394.3h-5.5c-3,0-5.5-2.5-5.5-5.5v-26c0-1.8-1.5-3.2-3.2-3.2c-1.8,0-3.2,1.5-3.2,3.2v25.8
							c0,0.6-0.4,1-1,1s-1-0.4-1-1v-25.8c0-2.9,2.4-5.2,5.2-5.2s5.2,2.4,5.2,5.2v26c0,1.9,1.6,3.5,3.5,3.5h5.5c0.6,0,1,0.4,1,1
							S280.2,394.3,279.7,394.3z"/>
					</g>
				</g>
				<g>
					<g>
						<path class="st7" d="M277.8,163.2c-0.4,0-0.7-0.2-0.9-0.6l-3.6-7.3l-8.1,7.6c-0.2,0.2-0.6,0.3-0.9,0.3
							c-0.3-0.1-0.6-0.3-0.7-0.5l-3.6-7.3l-8.1,7.6c-0.2,0.2-0.5,0.3-0.9,0.3c-0.3-0.1-0.6-0.3-0.7-0.5l-3.6-7.3l-8.1,7.6
							c-0.4,0.4-1,0.4-1.4,0s-0.4-1,0-1.4l9.1-8.5c0.2-0.2,0.6-0.3,0.9-0.3c0.3,0.1,0.6,0.3,0.7,0.5l3.6,7.3l8.1-7.6
							c0.2-0.2,0.6-0.3,0.9-0.3c0.3,0.1,0.6,0.3,0.7,0.5l3.6,7.3l8.1-7.6c0.2-0.2,0.5-0.3,0.9-0.3c0.3,0.1,0.6,0.3,0.7,0.5l4.2,8.5
							c0.2,0.5,0,1.1-0.5,1.3C278.1,163.2,277.9,163.2,277.8,163.2z"/>
					</g>
					<g>
						<path class="st7" d="M277.8,153.5c-0.4,0-0.7-0.2-0.9-0.6l-3.6-7.3l-8.1,7.6c-0.2,0.2-0.6,0.3-0.9,0.3
							c-0.3-0.1-0.6-0.3-0.7-0.5l-3.6-7.3l-8.1,7.6c-0.2,0.2-0.5,0.3-0.9,0.3c-0.3-0.1-0.6-0.3-0.7-0.5l-3.6-7.3l-8.1,7.6
							c-0.4,0.4-1,0.4-1.4,0s-0.4-1,0-1.4l9.1-8.5c0.2-0.2,0.6-0.3,0.9-0.3c0.3,0.1,0.6,0.3,0.7,0.5l3.6,7.3l8.1-7.6
							c0.2-0.2,0.6-0.3,0.9-0.3c0.3,0.1,0.6,0.3,0.7,0.5l3.6,7.3l8.1-7.6c0.2-0.2,0.5-0.3,0.9-0.3c0.3,0.1,0.6,0.3,0.7,0.5l4.2,8.5
							c0.2,0.5,0,1.1-0.5,1.3C278.1,153.4,277.9,153.5,277.8,153.5z"/>
					</g>
				</g>
				<g>
					<g>
						<path class="st7" d="M356.4,431.1h-39.9c-0.6,0-1-0.4-1-1s0.4-1,1-1h39.9c0.6,0,1,0.4,1,1
							C357.4,430.6,356.9,431.1,356.4,431.1z"/>
					</g>
					<g>
						<path class="st7" d="M356.4,423.6h-14l1.4-1.7c1.5-1.8,2.4-4.1,2.4-6.4c0-5.4-4.4-9.8-9.8-9.8s-9.8,4.4-9.8,9.8
							c0,2.4,0.9,4.6,2.4,6.4l1.4,1.7h-14c-0.6,0-1-0.4-1-1s0.4-1,1-1h9.9c-1.1-1.8-1.7-3.9-1.7-6.1c0-6.5,5.3-11.8,11.8-11.8
							s11.8,5.3,11.8,11.8c0,2.2-0.6,4.3-1.7,6.1h9.9c0.6,0,1,0.4,1,1C357.4,423.1,356.9,423.6,356.4,423.6z"/>
					</g>
				</g>
				<g>
					<g>
						<path class="st7" d="M209.5,318.3c-0.3,0-0.5-0.1-0.7-0.3c-0.4-0.4-0.4-1,0-1.4l24.3-24.3c0.4-0.4,1-0.4,1.4,0s0.4,1,0,1.4
							L210.2,318C210,318.2,209.8,318.3,209.5,318.3z"/>
					</g>
					<g>
						<path class="st7" d="M225.8,314.9c-0.3,0-0.5-0.1-0.7-0.3l-12.8-12.8c-0.4-0.4-0.4-1,0-1.4s1-0.4,1.4,0l12.8,12.8
							c0.4,0.4,0.4,1,0,1.4C226.3,314.8,226,314.9,225.8,314.9z"/>
					</g>
					<g>
						<path class="st7" d="M233.8,308.6c-0.6,0-1-0.4-1-1V294h-13.6c-0.6,0-1-0.4-1-1s0.4-1,1-1h14.6c0.6,0,1,0.4,1,1v14.6
							C234.8,308.2,234.3,308.6,233.8,308.6z"/>
					</g>
				</g>
				<g>
					<g>
						<g>
							<path class="st7" d="M490.1,172.9c-6.5,0-11.8-5.3-11.8-11.8s5.3-11.8,11.8-11.8s11.8,5.3,11.8,11.8
								C501.9,167.6,496.6,172.9,490.1,172.9z M490.1,151.4c-5.4,0-9.8,4.4-9.8,9.8s4.4,9.8,9.8,9.8s9.8-4.4,9.8-9.8
								S495.5,151.4,490.1,151.4z"/>
						</g>
						<g>
							<path class="st7" d="M490.1,151.4c-0.6,0-1-0.4-1-1s0.4-1,1-1c2.5,0,3.3-2.2,4.3-5.9c0.9-3.2,1.9-6.9,5.6-6.9
								c0.6,0,1,0.4,1,1s-0.4,1-1,1c-2.1,0-2.8,2-3.7,5.4C495.4,147.3,494.3,151.4,490.1,151.4z"/>
						</g>
						<g>
							<path class="st7" d="M490.1,151.4c-4.2,0-5.3-4.1-6.2-7.3c-0.9-3.4-1.6-5.4-3.7-5.4c-0.6,0-1-0.4-1-1s0.4-1,1-1
								c3.8,0,4.7,3.7,5.6,6.9c1,3.6,1.8,5.9,4.3,5.9c0.6,0,1,0.4,1,1C491.1,150.9,490.7,151.4,490.1,151.4z"/>
						</g>
					</g>
					<g>
						<path class="st7" d="M490.1,172.9c-6.5,0-11.8-5.3-11.8-11.8s5.3-11.8,11.8-11.8s11.8,5.3,11.8,11.8
							C501.9,167.6,496.6,172.9,490.1,172.9z M490.1,151.4c-5.4,0-9.8,4.4-9.8,9.8s4.4,9.8,9.8,9.8s9.8-4.4,9.8-9.8
							S495.5,151.4,490.1,151.4z"/>
					</g>
				</g>
				<g>
					<g>
						<path class="st7" d="M204.7,240.7c-0.6,0-1-0.4-1-1v-25.8c0-1.8-1.5-3.2-3.2-3.2c-0.6,0-1-0.4-1-1s0.4-1,1-1
							c2.9,0,5.2,2.4,5.2,5.2v25.8C205.7,240.3,205.3,240.7,204.7,240.7z"/>
					</g>
					<g>
						<path class="st7" d="M204.7,240.7c-0.6,0-1-0.4-1-1v-21.4c0-5.3,4.3-9.6,9.6-9.6s9.6,4.3,9.6,9.6v8.8c0,4.5,3.7,8.2,8.2,8.2
							h0.8c0.6,0,1,0.4,1,1s-0.4,1-1,1h-0.8c-5.6,0-10.2-4.6-10.2-10.2v-8.8c0-4.2-3.4-7.6-7.6-7.6c-4.2,0-7.6,3.4-7.6,7.6v21.4
							C205.7,240.3,205.3,240.7,204.7,240.7z"/>
					</g>
					<g>
						<path class="st7" d="M232.1,237.4c-4,0-7.2-3.2-7.2-7.2s3.2-7.2,7.2-7.2s7.2,3.2,7.2,7.2C239.2,234.1,236,237.4,232.1,237.4z
							 M232.1,225c-2.9,0-5.2,2.3-5.2,5.2s2.3,5.2,5.2,5.2s5.2-2.3,5.2-5.2C237.2,227.3,234.9,225,232.1,225z"/>
					</g>
					<g>
						<path class="st7" d="M217.6,240.7c-0.6,0-1-0.4-1-1s0.4-1,1-1c4,0,7.3-3.3,7.3-7.3v-1.3c0-0.6,0.4-1,1-1s1,0.4,1,1v1.3
							C226.9,236.6,222.7,240.7,217.6,240.7z"/>
					</g>
				</g>
			</g>
		</g>
	</g>
</g>
<radialGradient id="SVGID_2_" cx="-470" cy="-185.9" r="250" gradientUnits="userSpaceOnUse">
	<stop  offset="0" style="stop-color:#6DA375"/>
	<stop  offset="1" style="stop-color:#6DA374"/>
</radialGradient>
<rect x="-720" y="-435.9" class="st10" width="500" height="500"/>
</svg>
