<svg xmlns="http://www.w3.org/2000/svg" viewBox="0 0 837.45 837.45"><defs><style>.cls-1{fill:#caa777;}.cls-2{fill:#efbf7e;}.cls-3{fill:#daaa66;}.cls-4{fill:#466583;}.cls-5{fill:#8bd4e4;}.cls-6{fill:#6dc0d5;}.cls-7{fill:#1e4569;}</style></defs><title>aquarius</title><g id="Layer_2" data-name="Layer 2"><g id="Layer_1-2" data-name="Layer 1"><path class="cls-1" d="M388.21,129.28c-18.29,24.71-37.13,59.59-53.45,100.5a748.19,748.19,0,0,1,78.67,11.34c11.36-40.05,17.3-76.45,17.58-104.52C431.6,79.84,420.17,86.1,388.21,129.28Z"/><path class="cls-2" d="M313.17,92.9c-42.79.83-91.16,5.73-138.91,14C127.45,115,82,127.74,65.78,178,53.67,215.54,68,254.31,94.64,281.9c52.25,47.88,117,79,171.42,104.24-5.33-69.67,28.66-170.46,62.33-233.09l17.79-30A234.54,234.54,0,0,1,368,94.38,537.17,537.17,0,0,0,313.17,92.9Z"/><path class="cls-3" d="M211.33,197.85a963.86,963.86,0,0,0-146.2-17.72C54.21,217,68.52,254.83,94.64,281.9c52.25,47.88,117,79,171.42,104.24-3.71-48.42,11.58-111.87,32.56-167.09C271,211,241.72,203.84,211.33,197.85Z"/><path class="cls-4" d="M418.72,0A417.07,417.07,0,0,0,198.78,62.4q-15.84,2.25-31.68,5C104.16,78.29,48.79,100,27.57,165.75c-10.1,31.28-7.49,63.51,4.35,92.56A419.66,419.66,0,0,0,0,418.72C0,650,187.48,837.45,418.72,837.45A418.75,418.75,0,0,0,837.45,418.72C837.45,187.48,650,0,418.72,0ZM65.78,178c16.24-50.28,61.67-63,108.48-71.11,47.75-8.28,96.12-13.18,138.91-14A537.17,537.17,0,0,1,368,94.38,234.54,234.54,0,0,0,346.18,123c-50.34-2.29-129.47-.49-231.23,27.44,52-5.18,156.44-8.41,213.44,2.57-33.67,62.63-67.66,163.42-62.33,233.09C211.6,360.89,146.89,329.78,94.64,281.9,68,254.31,53.67,215.54,65.78,178Zm504.55,329.5c17,9,29.4,23.6,32.84,42.94,2.7,15.2-.87,31.93-11.1,43.73-11.74,13.56-33.14,19.62-47.72,7-11.14-9.65-12.53-20.92-13.91-34.35C516.71,434.2,436.66,357.14,312.21,315.66a507.17,507.17,0,0,1,14.08-53.84C465.56,272.71,588.94,321,650.51,454.28a137.71,137.71,0,0,0-79.13,17.19C556.44,478.31,555.48,499.63,570.33,507.52Zm-114.26,75a20,20,0,0,0-12.43-1.07,121.32,121.32,0,0,0-24.12,7.31c3.09-88.43-27.75-141.94-109-181.75-6.69-6-5-40.3-4.15-50.87,106.24,37.63,172.34,101,184.12,214.79,1,9.6,2,18.93,3.35,28,2.38,35.42-2.45,53.77-9.8,60.59-4.12,3.84-10.84-3.16-13.22-6.15-7.94-10-11.75-26.68-4.14-44.51A20.09,20.09,0,0,0,456.07,582.51ZM409.91,232.74a662.77,662.77,0,0,0-69.61-10c14.44-36.2,31.11-67.08,47.3-89C415.88,95.55,426,90,425.48,140.24,425.23,165.08,420,197.3,409.91,232.74ZM287.49,767.24c-26.29-20.37-29.38-56.74-11-83.51a66.1,66.1,0,0,1,15.13-15.65c4.55,27.4,27.3,53.89,56.23,55.51a120.55,120.55,0,0,0,18.67,44.71C343.47,786.84,310.4,785,287.49,767.24Zm89.69-148.53a122.36,122.36,0,0,0-30.34,64.06c-14.21-5.67-19-24.76-13.25-38.3,6.5-15.26-7.34-31.11-23.07-27.4a106,106,0,0,0-82.81,128.45A379.41,379.41,0,0,1,58.56,301.84c44.87,52.69,136.33,95.65,199.08,124.67C361.3,474.47,388.42,503.07,377.18,618.71ZM481.4,779.79A80.75,80.75,0,0,1,420.75,767c-47.15-32.41-46.67-103,1.75-134.52,1.44,28.71,19.36,60.49,49,67.31,24.25,5.58,43.29-8.43,53-29.63a137.82,137.82,0,0,0,22.85,26A80.86,80.86,0,0,1,481.4,779.79Zm86.36-13.08A121.31,121.31,0,0,0,586,720.16a138.52,138.52,0,0,0,47.23,10.38A377.8,377.8,0,0,1,567.76,766.71Zm166-149.05a98,98,0,0,1-14.42,31c-25.66,33.5-64,49.69-105.89,38.47a97.88,97.88,0,0,1-55.39-39c56.12,4,94.07-51.83,84.7-104.53a97.7,97.7,0,0,0-23.13-47.69C690,481.87,752.8,546.73,733.8,617.66Zm38.3-63.16a138.77,138.77,0,0,0-72.68-86.78c-44.11-119.53-130-191.91-250.35-225.61,10.65-38.11,16.22-73.47,16.51-101.55.26-25.41-4.48-65-32.91-74.75-26.92-9.26-65.89-13.39-110.57-13.13a379.47,379.47,0,0,1,96.62-12.42c209,0,378.47,169.44,378.47,378.46A377.69,377.69,0,0,1,772.1,554.5Z"/><path class="cls-5" d="M664.36,497.35a98.66,98.66,0,0,0-44.69-1.5,97.7,97.7,0,0,1,23.13,47.69c9.37,52.7-28.58,108.49-84.7,104.53A98.26,98.26,0,1,0,664.36,497.35Z"/><path class="cls-6" d="M619.69,495.88a97.66,97.66,0,0,1,23.11,47.66c9.37,52.7-28.58,108.49-84.7,104.53a98.34,98.34,0,0,0,102.1,40.07,172.22,172.22,0,0,0,14.34-69.6C674.54,566.69,652.6,521.24,619.69,495.88Z"/><path class="cls-5" d="M524.51,670.11c-9.72,21.2-28.76,35.21-53,29.63-29.64-6.82-47.56-38.6-49-67.31a80.9,80.9,0,1,0,124.86,63.65A137.82,137.82,0,0,1,524.51,670.11Z"/><path class="cls-6" d="M471.5,699.74c-29.61-6.82-47.53-38.54-49-67.23-.06,2-.11,4-.11,6.08,0,62.65,32,115.95,76.72,135.76a80.9,80.9,0,0,0,48.25-78.27,137.82,137.82,0,0,1-22.85-26C514.79,691.31,495.75,705.32,471.5,699.74Z"/><path class="cls-5" d="M291.63,668.08a66.1,66.1,0,0,0-15.13,15.65c-18.39,26.77-15.3,63.14,11,83.51,22.91,17.75,56,19.6,79,1.06a120.55,120.55,0,0,1-18.67-44.71C318.93,722,296.18,695.48,291.63,668.08Z"/><path class="cls-6" d="M291.63,668.1c.84,46.15,19.06,86.93,46.79,112.55a59.33,59.33,0,0,0,28.11-12.35,120.55,120.55,0,0,1-18.67-44.71C318.93,722,296.19,695.49,291.63,668.1Z"/><path class="cls-5" d="M490.5,570.92c-11.78-113.78-77.88-177.16-184.12-214.79-.83,10.57-2.54,44.9,4.15,50.87,81.24,39.81,112.08,93.32,109,181.75a121.32,121.32,0,0,1,24.12-7.31,20.08,20.08,0,0,1,23.05,27.41c-7.61,17.83-3.8,34.5,4.14,44.51,2.38,3,9.1,10,13.22,6.15,7.35-6.82,12.18-25.17,9.8-60.59C492.46,589.85,491.49,580.52,490.5,570.92Z"/><path class="cls-6" d="M310.53,407q12.08,5.92,22.66,12.26-12.39-8-24.6-15.25A8.24,8.24,0,0,0,310.53,407Z"/><path class="cls-6" d="M490.5,570.92q-1.35-13-3.63-25.12c-43.51-43.79-88.33-81.49-132-111.93,48.26,36.76,67.08,84.87,64.63,154.88a121.32,121.32,0,0,1,24.12-7.31,20.08,20.08,0,0,1,23.05,27.41c-7.61,17.83-3.8,34.5,4.14,44.51,2.38,3,9.1,10,13.22,6.15,7.35-6.82,12.18-25.17,9.8-60.59C492.46,589.85,491.49,580.52,490.5,570.92Z"/><path class="cls-5" d="M326.29,261.82a507.17,507.17,0,0,0-14.08,53.84c124.45,41.48,204.5,118.54,218.23,251.17,1.38,13.43,2.77,24.7,13.91,34.35,14.58,12.63,36,6.57,47.72-7,10.23-11.8,13.8-28.53,11.1-43.73-3.44-19.34-15.88-33.92-32.84-42.94-14.85-7.89-13.89-29.21,1-36a137.71,137.71,0,0,1,79.13-17.19C588.94,321,465.56,272.71,326.29,261.82Z"/><path class="cls-6" d="M312.25,315.68c124.43,41.48,204.46,118.54,218.19,251.15,1.38,13.43,2.77,24.7,13.91,34.35,14.58,12.63,36,6.57,47.72-7,10.23-11.8,13.8-28.53,11.1-43.73-3.44-19.34-15.88-33.92-32.84-42.94-14.85-7.89-13.89-29.21,1-36a137.71,137.71,0,0,1,79.13-17.19c-.85-1.85-1.72-3.67-2.59-5.48C526.06,368.62,402.75,321.87,312.25,315.68Z"/><path class="cls-7" d="M24.69,277a179.07,179.07,0,0,0,29.05,40.92q2.23-8.1,4.82-16.07a159.21,159.21,0,0,1-26.67-43.47Q28.08,267.59,24.69,277Z"/><path class="cls-7" d="M232.39,43.68q-17.26,8.61-33.61,18.72c40.67-5.8,82.2-9.47,123.31-9.72a377.38,377.38,0,0,1,65.25-11.14C337.63,35.56,282.13,38.31,232.39,43.68Z"/></g></g></svg>