<svg xmlns="http://www.w3.org/2000/svg" viewBox="0 0 837.44 965.98"><defs><style>.cls-1{fill:#8bd4e4;}.cls-2{fill:#6dc0d5;}.cls-3{fill:#466583;}.cls-4{fill:#1e4569;}</style></defs><title>capricorn</title><g id="Layer_2" data-name="Layer 2"><g id="Layer_1-2" data-name="Layer 1"><path class="cls-1" d="M460.54,364q-4.5,14.93-7.86,31.2a20.06,20.06,0,1,1-39.31-8c21.61-105.38,78.22-179.4,167.15-236C493.72,192.14,376,291.73,358.15,388.51c-2.51,13.58-2.75,26.73-.33,39.11a20.07,20.07,0,0,1-5,17.52c-41.17,48.8-26.71,83.37-53.6,139.2-18.92,39.27-43.9,76.12-65.13,114.22-2,3.52,2.33,11.31,9,20.06,11.78,15.43,32.82,33.14,49.84,42.62,3.82,1.18,52.42-41.68,127.65,2.08a114.31,114.31,0,0,1,8.7-45.89c10.39-24.58,69.36-93.6,150.66-78.77-30.58,15.6-47.27,23.39-59.14,34.46,78.29,34.41,123.71,59.38,177.63,129.09a379,379,0,0,0,76.72-382.47C683.66,377,564.77,396.29,460.54,364Z"/><path class="cls-2" d="M447.18,691.05c102.08-13.36,187.14,28.26,251.26,111.16A377.11,377.11,0,0,0,794,596.88C670,538.89,527.53,580.84,447.18,691.05Z"/><path class="cls-3" d="M335.36,535.06a20.07,20.07,0,0,0,34.48,20.56c-10.58-25-7.78-44.19,6.75-69.39C353.79,500.81,348.21,513.47,335.36,535.06Z"/><path class="cls-3" d="M614.87,177.24c25.85-17.77,75.92-40.66,106.52-53.48,17.71-8,14.78-34.47-4.63-38-54.33-10-114.78,9.74-162.93,33.9q4.08-4.17,8.22-8.24c28.16-27.64,58.64-51.91,87.49-74.75C666.09,25.25,657.33-1.15,637,0c-70.63,4.28-146.63,58.2-206.36,128.67C194.85,122.05,0,311.3,0,547.26,0,778.51,187.47,966,418.72,966A418.77,418.77,0,0,0,614.87,177.24ZM520.85,96c-24.74,25.93-47.37,54.81-65.38,88a538.69,538.69,0,0,0-45.56,41.87C438.61,177.81,477.45,131.42,520.85,96ZM418.72,925.73c-209,0-378.46-169.44-378.46-378.47,0-201.46,158-367.8,359.05-378-46.33,66-77.15,140-77.94,199.81-4.73,18.42-6.71,37.63-4.52,56.53-44.53,55.45-26.75,85.09-53.79,141.25-18.48,38.35-43.22,74.83-64,112.17-11.42,20.51-3.65,43.22,12.15,63.93,15.32,20.08,40.14,41,62.26,53.32,14.17,7.89,27.34,9.4,35.7,3,46.68-35.63,95.56.4,115.31,14.95s50.87,14.5,41.76-17.3c-7.84-27.33-6.64-48.2,0-64,5.17-12.22,13.86-21.85,24.26-29.32,78.8,35.1,124.23,54.66,179.18,126.88A377.05,377.05,0,0,1,418.72,925.73ZM797.19,547.26a377.11,377.11,0,0,1-98.75,255c-53.92-69.71-99.34-94.68-177.63-129.09,11.87-11.07,28.56-18.86,59.14-34.46-81.3-14.83-140.27,54.19-150.66,78.77a114.31,114.31,0,0,0-8.7,45.89c-75.23-43.76-123.83-.9-127.65-2.08-17-9.48-38.06-27.19-49.84-42.62-6.67-8.75-11-16.54-9-20.06,21.23-38.1,46.21-74.95,65.13-114.22,26.89-55.83,12.43-90.4,53.6-139.2a20.07,20.07,0,0,0,5-17.52c-2.42-12.38-2.18-25.53.33-39.11C376,291.73,493.72,192.14,580.52,151.22c-88.93,56.59-145.54,130.61-167.15,236a20.06,20.06,0,1,0,39.31,8q3.35-16.29,7.86-31.2C564.77,396.29,683.66,377,775.16,419.74A377.76,377.76,0,0,1,797.19,547.26ZM474.5,326.33c22.63-50.81,57.2-90.61,101.53-123.39a379.94,379.94,0,0,1,176,164.93C662.93,340.43,568.42,354.86,474.5,326.33Z"/><path class="cls-4" d="M409,128.65c-11,13.66-21.41,27.84-31.07,42.33q10.62-1.14,21.41-1.69c9.79-13.95,20.27-27.55,31.32-40.58q-5.94-.17-11.92-.17Q413.85,128.54,409,128.65Z"/><path class="cls-4" d="M576,202.94q8.61,3.94,17,8.3c12.47-8.81,25.43-16.93,38.71-24.55q-8.31-4.91-16.85-9.45C601.52,185.2,588.52,193.71,576,202.94Z"/><path class="cls-1" d="M409.91,225.88A538.69,538.69,0,0,1,455.47,184c18-33.2,40.64-62.08,65.38-88C477.45,131.42,438.61,177.81,409.91,225.88Z"/></g></g></svg>