<svg xmlns="http://www.w3.org/2000/svg" viewBox="0 0 837.45 883.29"><defs><style>.cls-1{fill:#efbf7e;}.cls-2{fill:#daaa66;}.cls-3{fill:#8bd4e4;}.cls-4{fill:#6dc0d5;}.cls-5{fill:#466583;}</style></defs><title>leo</title><g id="Layer_2" data-name="Layer 2"><g id="Layer_1-2" data-name="Layer 1"><path class="cls-1" d="M477.11,234.69c-15.48,14.87-30.29,20.88-43.8,6.82a238.26,238.26,0,0,0-50.19-39.85q-7-4.16-13.33-7.63c-71.23,66.49-74.06,95.81-76.77,124-2.88,30-5.68,58.95-54.36,109.68,4.8,20.47-2.51,54.18-24.92,73.89,5.61,3.26,12.6,7.1,20.2,11.29,33.6,18.5,57.83,30.33,80.34,61.76,12.65,17.66,30.74,42.9,41.9,36.24,44.62-26.62,82.41-64.27,126.11-92.21,33.52-21.37,19.24-147,7.27-183.23-5.61-17,4.79-31.66,17.66-49.77,16.3-22.94,39.28-55.3,5.76-88.3C511.53,196,481,231,477.11,234.69Z"/><path class="cls-2" d="M513.9,388.81c1.79-39.71-29.38-74.61-62.54-94.17,21.94,54.84,32.93,181.71,7,240.55C528.73,528.06,512.53,420,513.9,388.81Z"/><path class="cls-3" d="M607.08,111.37c-26.28-8.31-56-13-89.76-13.39,134.34,42.38,207,130.52,200.61,278.58-54.18-202.24-168.24-266-367-262.45-19,.34-77-1.17-27.06,15.89,46.08,15.74,92.11,39.71,127.93,73.31,17.7-18,49.48-66.41,76.22-45.94,102.85,78.74-1.77,160.78-.21,165.51,20,60.7,22.66,134.13-2.65,217.71C509.75,591.34,484,646,445.43,703.83c121.78-72.92,169.6-228,128.32-362.6,100.45,133.5,27.47,375.42-46.4,479,60.45-31.89,110.5-76.49,142.58-144,37.9-79.75,48.92-188.84,53.15-256.8,21.89,77.35,12.53,175.63-.33,224.69a376.75,376.75,0,0,0,74.44-225.41C797.19,294.4,733.27,151.29,607.08,111.37Z"/><path class="cls-4" d="M527.39,820.17c142.73-119.6,191.18-340.84,46.36-478.94C674.18,474.7,601.24,716.55,527.39,820.17Z"/><path class="cls-5" d="M418.72,0C187.48,0,0,187.48,0,418.72S187.48,837.44,418.72,837.44a422.7,422.7,0,0,0,55.81-3.69c-30.94,72.54,14.58,51.18,65.65,25,43.74-22.41,96.7-54.31,136.09-109.89A422.8,422.8,0,0,0,714.8,714.8,418.72,418.72,0,0,0,418.72,0Zm0,797.19c-209,0-378.46-169.45-378.46-378.47S209.7,40.26,418.72,40.26a378.22,378.22,0,0,1,115.72,18C489.75,56,438.91,60.87,381,74.39c-34.37-1.44-69.85.29-103.6,6.92-88.58,17.41,18.11,79.81,53.65,94.1-71.34,69.61-74.74,104.88-78,138.86-2.2,22.85-4.33,45-43.35,85.62-61.93,64.46-85.18,98.65,4.87,148.23,27.28,15,48.78,24.56,67,50,21.49,30,52.21,72.89,95.2,47.25,32.49-19.39,62.05-44.32,92-67.47C446.16,631,411.52,688.29,362.07,749.08A20.07,20.07,0,0,0,387.86,779c6.56-3.47,14-7.09,22-11,43.82-21.48,104.67-51.33,150.89-109.62-17.67,41-41.65,81.1-66,131.17A380,380,0,0,1,418.72,797.19Zm70.84-461.73c12,36.27,26.25,161.86-7.27,183.23-43.7,27.94-81.49,65.59-126.11,92.21-11.16,6.66-29.25-18.58-41.9-36.24-22.51-31.43-46.74-43.26-80.34-61.76-7.6-4.19-14.59-8-20.2-11.29,22.41-19.71,29.72-53.42,24.92-73.89C287.34,377,290.14,348,293,318c2.71-28.2,5.54-57.52,76.77-124q6.31,3.48,13.33,7.63a238.26,238.26,0,0,1,50.19,39.85c13.51,14.06,28.32,8.05,43.8-6.82C481,231,511.53,196,513,197.39c33.52,33,10.54,65.36-5.76,88.3C494.35,303.8,484,318.45,489.56,335.46ZM722.75,644.13c12.86-49.06,22.22-147.34.33-224.69-4.23,68-15.25,177.05-53.15,256.8-32.08,67.5-82.13,112.1-142.58,144,73.87-103.58,146.85-345.5,46.4-479,41.28,134.56-6.54,289.68-128.32,362.6C484,646,509.75,591.34,525.12,540.59c25.31-83.58,22.69-157,2.65-217.71-1.56-4.73,103.06-86.77.21-165.51-26.74-20.47-58.52,27.93-76.22,45.94-35.82-33.6-81.85-57.57-127.93-73.31-49.94-17.06,8-15.55,27.06-15.89,198.8-3.57,312.86,60.21,367,262.45C727.51,266.24,673.67,128.83,517.32,98c33.72.38,63.48,5.08,89.76,13.39,126.19,39.92,190.11,183,190.11,307.35A376.75,376.75,0,0,1,722.75,644.13Z"/><path class="cls-5" d="M369.91,260c-20.88,5.5-38.83,25.67-47.8,46.07-4.68,10,7,30.35,17,35,1.23.58-3.51-15,1.38-31C346.37,290.89,362.45,269.84,369.91,260Z"/><path class="cls-5" d="M367.37,470.34a12.32,12.32,0,1,0,12.31,12.32A12.32,12.32,0,0,0,367.37,470.34Z"/><path class="cls-5" d="M367.37,470.34a12.32,12.32,0,1,0,12.31,12.32A12.32,12.32,0,0,0,367.37,470.34Z"/></g></g></svg>