<svg xmlns="http://www.w3.org/2000/svg" viewBox="0 0 837.44 837.45"><defs><style>.cls-1{fill:#8bd4e4;}.cls-1,.cls-2,.cls-4{fill-rule:evenodd;}.cls-2{fill:#6dc0d5;}.cls-3,.cls-4{fill:#466583;}</style></defs><title>pisces</title><g id="Layer_2" data-name="Layer 2"><g id="Layer_1-2" data-name="Layer 1"><path class="cls-1" d="M205.2,207.06a312.77,312.77,0,0,0-74.66,323.12c8-14.31,19.14-25.41,31.69-34.17-12.72-23.36-23.73-64.14-20.19-98.07,10.73,34.85,22.46,63.06,47.87,83,16.26-6.95,32.92-11.43,47.3-14.84-4.15-2.78-8.36-5.55-12.54-8.3-28.13-18.47-55-36.15-61.7-57.72-22.13-71.63,167.58-81.16,211.15-84.47,97.18-7.4,186.78-14.25,260.35-120.91C511.28,84.74,320.4,91.86,205.2,207.06Z"/><path class="cls-2" d="M121.5,358a313,313,0,0,0,9,172.17c8-14.31,19.14-25.41,31.69-34.17-12.72-23.36-23.73-64.14-20.19-98.07,10.73,34.85,22.46,63.06,47.87,83,16.26-6.95,32.92-11.43,47.3-14.84-4.15-2.78-8.36-5.55-12.54-8.3-28.13-18.47-55-36.15-61.7-57.72-22.13-71.63,167.58-81.16,211.15-84.47,78.73-6,152.5-11.64,216.78-70.28-51.82-36.36-116.47-57.95-186.6-57.95C277.82,187.34,169.14,257.54,121.5,358Z"/><path class="cls-3" d="M418.72,0A418.74,418.74,0,1,0,714.8,122.65,417.41,417.41,0,0,0,418.72,0ZM686.34,686.34A378.46,378.46,0,1,1,797.19,418.72,377.33,377.33,0,0,1,686.34,686.34Z"/><path class="cls-4" d="M499.79,179.57a16,16,0,1,0-22.64,0A16,16,0,0,0,499.79,179.57Z"/><path class="cls-4" d="M176.74,178.6c-111,111-135.49,282.46-59.67,420,15.23,27.75,42,14.63,40.7-5.53-4.42-66.89,63.37-82.25,99.56-90.44,22.92-5.19,63.62-21.34,31.73-48.22-12.23-10.32-27.49-20.35-42.38-30.12-11.86-8-23.51-15.81-32.07-22.48-12.43-9.66-11.42-15.62-4.23-19.69,23.42-13.25,137.5-24.21,166.73-26.44,108.15-8.23,207.8-15.84,292-140.58,13.14-19.46,16.06-28.2-1.74-44.84C529.62,41.51,311.05,44.29,176.74,178.6Zm197.38,137C330.55,318.88,140.84,328.41,163,400c6.66,21.57,33.57,39.25,61.7,57.72,4.18,2.75,8.39,5.52,12.54,8.3-14.38,3.41-31,7.89-47.3,14.84-25.41-19.9-37.14-48.11-47.87-83-3.54,33.93,7.47,74.71,20.19,98.07-12.55,8.76-23.66,19.86-31.69,34.17A312.77,312.77,0,0,1,205.2,207.06a309.63,309.63,0,0,1,122.07-75.18c-19.43,63.06,12,133.2,52.17,167-28.26-41.71-38.78-144.45-10.63-177.69,92.33-17.12,191.24,7,265.66,73.45C560.9,301.32,471.3,308.17,374.12,315.57Z"/><path class="cls-1" d="M674.54,342c12.71,23.37,23.73,64.15,20.18,98.08-10.73-34.85-22.45-63.07-47.87-83-16.25,7-32.92,11.44-47.3,14.85,4.15,2.78,8.36,5.55,12.55,8.3,28.12,18.47,55,36.15,61.69,57.72,22.13,71.63-167.57,81.15-211.15,84.47-97.18,7.4-186.78,14.24-260.34,120.9C325.48,753.27,516.36,746.15,631.56,631a312.79,312.79,0,0,0,74.66-323.13C698.19,322.14,687.08,333.25,674.54,342Z"/><path class="cls-2" d="M674.54,342c12.71,23.37,23.73,64.15,20.18,98.08-10.73-34.85-22.45-63.07-47.87-83-16.25,7-32.92,11.44-47.3,14.85,4.15,2.78,8.36,5.55,12.55,8.3,28.12,18.47,55,36.15,61.69,57.72,22.13,71.63-167.57,81.15-211.15,84.47-78.73,6-152.49,11.63-216.78,70.28,51.82,36.35,116.47,57.95,186.6,57.95,126.48,0,235.16-70.21,282.8-170.67a312.93,312.93,0,0,0-9-172.18C698.19,322.14,687.08,333.25,674.54,342Z"/><path class="cls-4" d="M337,658.45a16,16,0,1,0,22.64,0A16,16,0,0,0,337,658.45Z"/><path class="cls-4" d="M679,245c4.41,66.9-63.38,82.25-99.57,90.45-22.91,5.19-63.62,21.33-31.72,48.22C559.94,394,575.2,404,590.08,413.75c11.86,8,23.51,15.81,32.08,22.47,12.43,9.67,11.41,15.62,4.22,19.69C603,469.17,488.89,480.13,459.66,482.35c-108.15,8.24-207.81,15.84-292.06,140.59-13.14,19.45-16.06,28.2,1.74,44.83,137.81,128.74,356.37,126,490.68-8.35,111-111,135.49-282.47,59.68-420C704.46,211.69,677.73,224.8,679,245ZM631.56,631a309.86,309.86,0,0,1-122.07,75.18c19.43-63.06-12-133.2-52.17-167,28.26,41.7,38.78,144.45,10.63,177.69-92.33,17.11-191.23-7-265.65-73.46,73.56-106.66,163.16-113.5,260.34-120.9,43.58-3.32,233.28-12.84,211.15-84.47-6.66-21.57-33.57-39.25-61.69-57.72-4.19-2.75-8.4-5.52-12.55-8.3,14.38-3.41,31.05-7.89,47.3-14.85,25.42,19.9,37.14,48.12,47.87,83,3.55-33.93-7.47-74.71-20.18-98.08,12.54-8.75,23.65-19.86,31.68-34.17A312.79,312.79,0,0,1,631.56,631Z"/></g></g></svg>